<?xml version="1.0" encoding="UTF-8"?>
<!DOCTYPE svg PUBLIC "-//W3C//DTD SVG 1.1//EN" "http://www.w3.org/Graphics/SVG/1.1/DTD/svg11.dtd">
<!-- Creator: CorelDRAW X8 -->
<svg xmlns="http://www.w3.org/2000/svg" xml:space="preserve" width="200.558mm" height="190.17mm" version="1.1" style="shape-rendering:geometricPrecision; text-rendering:geometricPrecision; image-rendering:optimizeQuality; fill-rule:evenodd; clip-rule:evenodd"
viewBox="0 0 20056 19017"
 xmlns:xlink="http://www.w3.org/1999/xlink">
 <defs>
  <style type="text/css">
   <![CDATA[
    .fil0 {fill:#C29216}
   ]]>
  </style>
 </defs>
 <g id="Layer_x0020_1">
  <metadata id="CorelCorpID_0Corel-Layer"/>
  <g id="_1715536696160">
   <path class="fil0" d="M7588 18525c-362,0 -374,-120 -595,-575l-131 -245c466,0 743,-125 1241,-257l1780 -492c544,-143 1286,-377 1780,-492 -57,78 -369,208 -484,266l-757 390c-519,258 -1302,633 -1790,903 -174,97 -334,171 -513,260 -99,49 -441,242 -531,242zm-1171 -2389c70,6 160,34 216,42l4210 5 -2857 797c-162,42 -310,83 -478,130 -281,80 -582,223 -781,4 -96,-105 -288,-810 -310,-978zm-4098 -7471c0,-368 164,-386 577,-593 124,-62 220,-110 344,-172 100,-50 269,-149 367,-171 11,131 82,338 117,468 205,784 465,1614 660,2384 38,148 79,321 127,482l136 474c228,920 542,1933 786,2866l258 960 -1592 -3115c-201,-423 -1780,-3458 -1780,-3583zm1475 -2107c0,-112 -8,-106 37,-198 109,-222 541,-279 872,-369 355,-97 737,-214 1105,-300l0 8197c-58,-84 -511,-1787 -515,-1803 -162,-616 -330,-1218 -505,-1837 -252,-888 -503,-1900 -757,-2756 -47,-157 -81,-299 -125,-461 -34,-125 -112,-321 -112,-473zm9953 -773c0,377 -16,3285 10,3456 21,137 21,304 0,441l-10 4534c0,304 0,609 0,913 1,191 20,562 -374,562l-6698 0c-206,0 -367,-151 -376,-350 -23,-500 1,-1676 1,-2226l1 -3184c3,-127 -15,-165 -23,-260 -14,-168 -2,-390 16,-520 27,-202 6,-3717 6,-4326 0,-222 -25,-322 84,-455 103,-127 194,-133 408,-131l1579 -10c146,20 111,-20 245,-13 90,5 133,23 260,23l492 -24c95,0 170,24 304,24 514,0 1093,21 1597,-21 101,-8 130,20 253,22l1663 -1c349,0 562,26 585,468 9,173 2,387 -16,522 -21,150 -7,395 -7,556zm-7939 -1148l0 562 -1514 407c-311,90 -457,97 -688,272 -155,117 -304,385 -304,656 0,247 113,509 164,726 -133,31 -683,335 -879,433 -388,194 -760,372 -760,949 0,236 182,529 273,710l4310 8525c21,38 24,40 42,75 246,492 439,1065 1089,1065 218,0 348,-80 500,-156 154,-77 290,-145 437,-219 74,-37 140,-71 216,-112l1990 -1007c287,-172 1352,-692 1663,-843l327 -165c82,-44 149,-81 230,-121 111,-55 333,-185 448,-209 275,-56 299,-28 508,-170 219,-149 496,-575 496,-839 0,-530 -120,-268 -117,-749l0 -8455c0,-327 41,-1258 -13,-1509 -88,-415 -432,-716 -830,-716l-6745 0c-113,0 -256,42 -340,82 -217,104 -326,230 -425,441 -49,102 -78,225 -78,367z"/>
   <path class="fil0" d="M468 5996l0 -469c146,-34 1010,-528 1187,-616l3596 -1885c100,-62 184,-96 292,-153 694,-372 1398,-716 2084,-1101 578,-323 1239,-608 1798,-942 71,-43 576,-304 599,-304 80,0 2121,1108 2381,1238l3575 1882c607,302 1191,646 1802,938l1797 943 0 469c-142,-34 -304,-148 -437,-219l-1351 -710c-875,-438 -1728,-912 -2595,-1363l-1854 -980c-812,-405 -1583,-851 -2397,-1256l-601 -313c-337,-167 -292,-172 -625,-7 -96,47 -198,92 -294,150 -481,288 -1004,505 -1487,785 -99,58 -203,102 -308,160l-877 458c-119,59 -187,106 -305,164l-2381 1249c-113,57 -181,102 -288,157 -114,57 -204,97 -308,160 -99,60 -182,104 -292,153 -214,95 -389,217 -598,315l-1505 791c-107,62 -507,282 -608,306zm-468 -633l0 1054c0,137 118,225 234,224 116,0 826,-403 968,-474 119,-59 191,-108 304,-164 123,-61 208,-116 321,-172 824,-408 1708,-915 2521,-1319l3146 -1655c109,-54 205,-104 306,-163 103,-59 221,-109 327,-164 240,-125 1826,-984 1897,-984 73,0 564,280 655,328l1968 1030c112,56 197,111 320,172l812 429c65,35 105,53 171,86 123,61 203,114 320,172l5223 2740c137,68 330,226 499,70 49,-45 63,-99 64,-181l-7 -983c-3,-197 -80,-216 -212,-280 -117,-57 -206,-107 -321,-171 -63,-36 -116,-57 -174,-84l-1473 -775c-109,-57 -202,-114 -320,-172l-5542 -2912c-123,-61 -208,-116 -320,-172l-984 -515c-131,-65 -595,-328 -679,-328 -85,0 -1306,663 -1585,804l-953 499c-112,57 -186,106 -304,165 -122,60 -214,108 -321,170 -99,58 -202,102 -312,157 -70,36 -84,50 -148,86 -61,34 -115,58 -171,86 -109,55 -202,111 -304,165l-1586 826c-708,357 -1489,805 -2193,1156l-1905 999c-112,55 -242,95 -242,250z"/>
   <path class="fil0" d="M9110 8665c0,-746 951,-1240 1553,-639 595,596 40,1181 40,1319 0,416 463,105 891,326 780,404 594,1711 -352,1711 -127,0 -253,-36 -333,-89 -91,-61 -157,-134 -220,-225 -68,-100 -89,-187 -136,-309 -134,-348 -500,-177 -477,77 38,417 246,1249 252,1319l-609 0c24,-289 361,-1279 203,-1491 -86,-114 -298,-184 -422,77 -30,61 -38,99 -59,152 -274,682 -1049,599 -1340,93 -293,-510 -97,-1175 502,-1376 319,-108 742,119 742,-265 0,-142 -235,-335 -235,-680zm-468 -70c0,333 47,402 47,515 -287,7 -634,215 -826,415 -297,310 -369,651 -369,1061 0,643 580,1264 1148,1264 272,0 430,15 679,-117 -44,188 -84,356 -147,533 -74,208 0,381 241,381l1218 0c460,0 196,-507 182,-557 -26,-92 -80,-247 -89,-357 329,174 795,158 1133,-15 391,-199 694,-656 694,-1132 0,-441 -57,-722 -380,-1072 -183,-198 -543,-398 -814,-404 2,-122 46,-200 46,-538 0,-638 -634,-1288 -1311,-1288l-141 0c-673,0 -1311,636 -1311,1311z"/>
  </g>
 </g>
</svg>
