<?xml version="1.0" encoding="UTF-8"?>
<!DOCTYPE svg PUBLIC "-//W3C//DTD SVG 1.1//EN" "http://www.w3.org/Graphics/SVG/1.1/DTD/svg11.dtd">
<!-- Creator: CorelDRAW X8 -->
<svg xmlns="http://www.w3.org/2000/svg" xml:space="preserve" width="187.808mm" height="152.044mm" version="1.1" style="shape-rendering:geometricPrecision; text-rendering:geometricPrecision; image-rendering:optimizeQuality; fill-rule:evenodd; clip-rule:evenodd"
viewBox="0 0 18781 15204"
 xmlns:xlink="http://www.w3.org/1999/xlink">
 <defs>
  <style type="text/css">
   <![CDATA[
    .fil0 {fill:#C29216}
   ]]>
  </style>
 </defs>
 <g id="Layer_x0020_1">
  <metadata id="CorelCorpID_0Corel-Layer"/>
  <g id="_1715603513968">
   <path class="fil0" d="M11013 5447l0 9071 -10303 0 0 -5045c0,-1101 -24,-2126 -24,-3221 0,-1081 3,-2163 0,-3245 0,-268 24,-490 24,-781l-3 -1401c9,-204 111,-81 483,-132 206,-28 8860,-7 9846,-7 0,1612 -23,3149 -23,4761zm-10966 9746l11676 0 14 -15174 81 0 -11747 0 -24 0 0 15174z"/>
   <path class="fil0" d="M3244 7105c0,461 -22,1488 0,1895 13,246 15,579 162,762 175,217 469,398 857,398l-1 1114c0,130 19,152 24,260 21,377 0,751 25,1112 11,158 64,333 140,428 204,252 720,166 939,199 177,27 957,14 1194,14 635,0 900,-290 900,-924l0 -2203c504,-11 984,-319 995,-852 5,-223 23,-377 23,-616l0 -2558c0,-568 -363,-971 -923,-971 -535,0 -371,-69 -718,396l-643 873c-71,95 -264,358 -345,412 -107,-72 -678,-866 -819,-1052 -566,-751 -345,-629 -933,-629 -234,0 -373,70 -512,175 -425,319 -315,608 -341,1080l-24 687z"/>
   <path class="fil0" d="M12955 8171c7,88 27,107 66,170 37,60 59,106 95,166 64,106 118,207 179,319 447,818 995,1703 1453,2526l1144 1887c20,-74 125,-229 170,-303l1283 -2199c295,-541 839,-1402 1089,-1895 59,-116 121,-214 180,-317 51,-89 144,-230 167,-331 -143,0 -172,-23 -307,-24 -117,-2 -238,1 -356,1 -237,0 -474,1 -711,0 -147,0 -184,-25 -330,-25l-4122 25z"/>
   <path class="fil0" d="M12955 7034l3434 23c824,0 1569,-23 2392,-23 -15,-182 -1049,-1873 -1247,-2235 -63,-115 -114,-204 -181,-316 -66,-108 -125,-209 -182,-315l-1327 -2203 -1094 1890c-543,906 -1105,1969 -1634,2843 -34,56 -50,92 -82,154 -40,78 -72,97 -79,182z"/>
   <path class="fil0" d="M4263 3221c0,565 -62,686 208,1117 61,98 88,132 164,215 206,223 368,368 702,483 249,85 780,96 1025,23 230,-69 424,-210 601,-346 321,-245 544,-801 544,-1232 0,-1492 -1791,-2107 -2741,-1226 -193,178 -503,613 -503,966z"/>
   <path class="fil0" d="M47 19l24 0 11747 0 -81 0 -14 15174 -11676 0 0 -15174zm-48 15186l11748 0 0 -15206 -11748 0 0 15206z"/>
  </g>
 </g>
</svg>
