<?xml version="1.0" encoding="UTF-8"?>
<!DOCTYPE svg PUBLIC "-//W3C//DTD SVG 1.1//EN" "http://www.w3.org/Graphics/SVG/1.1/DTD/svg11.dtd">
<!-- Creator: CorelDRAW X8 -->
<svg xmlns="http://www.w3.org/2000/svg" xml:space="preserve" width="183.083mm" height="221.234mm" version="1.1" style="shape-rendering:geometricPrecision; text-rendering:geometricPrecision; image-rendering:optimizeQuality; fill-rule:evenodd; clip-rule:evenodd"
viewBox="0 0 18308 22123"
 xmlns:xlink="http://www.w3.org/1999/xlink">
 <defs>
  <style type="text/css">
   <![CDATA[
    .fil0 {fill:#C29216}
   ]]>
  </style>
 </defs>
 <g id="Layer_x0020_1">
  <metadata id="CorelCorpID_0Corel-Layer"/>
  <g id="_1715535110960">
   <path class="fil0" d="M4670 1728c0,611 36,987 496,1446 328,327 545,487 1081,583 765,138 1526,-229 1903,-860 58,-98 78,-198 218,-198l1618 0 0 3282c-243,21 -492,152 -637,288 -217,204 -289,271 -427,544 -179,356 -130,286 -136,788 -2,204 -43,273 -39,410 4,123 37,259 37,467l-4068 0c-2560,0 -4161,1973 -4161,4253l0 2867 3190 0 0 -2173c0,-1148 1260,-1665 2219,-1665l12298 0 0 -3143c0,-107 -32,-139 -139,-139l-3930 0c0,-966 132,-2129 -1039,-2474 -128,-37 -209,-12 -209,-161l0 -3144 1665 0c228,0 194,443 816,801 399,230 762,342 1309,262 767,-113 1573,-842 1573,-1710l0 -324c0,-1632 -2331,-2336 -3311,-1091 -466,592 118,444 -2052,444 -270,0 -288,-868 -1445,-960 -586,-46 -1308,476 -1421,960l-1803 0c-241,-360 -363,-614 -785,-834 -1467,-764 -2821,391 -2821,1481z"/>
   <path class="fil0" d="M0 20128c0,609 59,1065 543,1492 1112,980 3341,528 3341,-1353 0,-817 -423,-1725 -709,-2297 -231,-464 -577,-958 -881,-1384 -177,-249 -205,-202 -583,-202 -44,165 -27,80 -123,200 -644,799 -1588,2497 -1588,3544z"/>
  </g>
 </g>
</svg>
