<?xml version="1.0" encoding="UTF-8"?>
<svg id="Layer_1" data-name="Layer 1" xmlns="http://www.w3.org/2000/svg" xmlns:xlink="http://www.w3.org/1999/xlink" viewBox="0 0 836 323.61">
  <defs>
    <style>
      .cls-1 {
        fill: #fff;
      }

      .cls-2 {
        clip-path: url(#clippath-2);
      }

      .cls-3 {
        clip-path: url(#clippath-1);
      }

      .cls-4 {
        clip-path: url(#clippath-4);
      }

      .cls-5 {
        clip-path: url(#clippath);
      }

      .cls-6 {
        clip-path: url(#clippath-3);
      }

      .cls-7 {
        clip-path: url(#clippath-5);
      }
    </style>
    <clipPath id="clippath">
      <path class="cls-1" d="m535.66,179.77c-.48-.08-.98-.13-1.45-.25-.26-.07-.49-.26-.73-.4.19-.18.35-.43.57-.54,3.14-1.49,6.4-2.59,9.89-2.74,1.54-.07,3.09.08,4.64.13.02.12.05.24.07.37-.29.16-.56.39-.87.47-4.64,1.28-8.88,3.37-12.79,6.17-5.19,3.71-9.14,8.47-12.1,14.07-2.23,4.22-3.72,8.69-4.49,13.41-.83,5.11-.8,10.21.1,15.3.85,4.81,2.43,9.37,4.75,13.67.6,1.1,1.25,2.18,1.95,3.41-.96-3.05-1.95-5.88-2.71-8.76-.75-2.87-1.26-5.8-.95-8.81.17.1.25.21.27.34.18,1.09.27,2.21.55,3.28.42,1.65.85,3.32,1.47,4.9,1.46,3.69,3.42,7.09,6.03,10.13,4.18,4.86,9.26,8.44,15.15,10.86,5.78,2.37,11.81,3.5,18.07,3.17,1.46-.08,2.91-.27,4.23-.4-2.81-.56-5.73-1.07-8.61-1.73-5.63-1.31-10.5-4.18-14.92-7.79-3.27-2.67-5.99-5.87-8.34-9.39-4.07-6.1-6.63-12.78-7.51-20.03-.48-3.93-.48-7.92.26-11.88.87-4.64,2.54-8.91,5.22-12.8,2.5-3.63,5.74-6.46,9.57-8.54,5.28-2.86,11-4.28,17-4.41,2.74-.06,5.49-.02,8.23.04.97.02,1.94.23,2.91.36.21.03.42.05.66.07-.2-1.12-.87-2-1.96-2.87-2.6-2.07-5.66-2.76-8.86-2.95-1.73-.1-3.48.04-5.21-.05-.87-.04-1.8-.2-2.56-.59-3.04-1.57-6.31-2.19-9.65-2.32-3.42-.14-6.73.68-9.96,1.76-5.41,1.81-10.18,4.74-14.51,8.42-5.85,4.98-10.49,10.87-13.44,18.01-.57,1.37-1.04,2.78-1.55,4.17l.25.14c2.05-5.57,5.6-10.1,9.66-14.29.06.18.05.32-.02.42-.56.83-1.13,1.66-1.7,2.49-3.63,5.31-5.47,11.25-6.05,17.6-.48,5.33.46,10.5,2.14,15.53,2.34,6.99,6.25,13,11.8,17.89.55.48,1.14.92,1.71,1.38.05-.05.09-.1.14-.15-.54-.66-1.13-1.29-1.62-1.98-3.64-5.18-5.77-10.94-6.76-17.19-.77-4.83-.59-9.62.13-14.39.61-4.02,1.74-7.93,3.4-11.67,2.36-5.32,5.4-10.18,9.59-14.28,2.66-2.6,5.58-4.83,8.9-6.76Z"/>
    </clipPath>
    <clipPath id="clippath-1">
      <path class="cls-1" d="m546.67,140.8c17.25,2.02,29.29,11.16,35.76,27.09,6.43,15.85,4.3,30.82-6.39,44.62,9.84-5.79,15.88-14.13,18.28-25.06,1.17-5.33,1.28-10.71.28-16.11-1-5.38-2.92-10.38-5.84-15,2.18,5.26,3.25,10.74,3.51,16.45-1.91-10.67-7.22-19.15-16.2-25.2-8.9-5.99-18.75-8.12-29.4-6.79Z"/>
    </clipPath>
    <clipPath id="clippath-2">
      <path class="cls-1" d="m600.54,206.51c-.14-.07-.27-.14-.41-.22,4.2-5.62,6.49-11.93,6.98-18.87.49-6.97-.93-13.56-3.81-19.91-3.38-7.46-10.25-14.26-12.63-15.35,1.24,1.82,2.67,3.76,3.92,5.8,2.95,4.79,4.82,10,5.43,15.59.65,5.97.25,11.89-1.47,17.72-1.87,6.33-4.92,12-9.15,17.05-4.09,4.89-9.03,8.69-14.81,11.37-4.05,1.88-8.28,3.1-12.73,3.52-.28.03-.55.1-.82.15,0,.09,0,.17,0,.26,1.78.32,3.55.86,5.34.91,3.24.09,6.5.07,9.72-.22,4.06-.36,7.86-1.79,11.48-3.6,4.79-2.39,8.89-5.68,12.39-9.76,3.39-3.96,6.13-8.27,7.8-13.23.64-1.89,1.24-3.8,1.85-5.7-.08-.04-.16-.08-.24-.11-1.87,5.56-5.17,10.21-8.86,14.62Z"/>
    </clipPath>
    <clipPath id="clippath-3">
      <path class="cls-1" d="m604.01,234.91c-.13.08-.27.15-.4.23-1.56,1.03-3.1,2.11-4.69,3.08-2.94,1.79-6.1,3.09-9.42,3.94-5.82,1.49-11.73,1.84-17.66.77-6.26-1.14-12.12-3.38-17.49-6.84-5.35-3.45-9.84-7.79-13.28-13.14-4.04-6.29-6.34-13.19-6.65-20.7,0-.23-.06-.46-.11-.87-2.05,5.87-2.73,14.08-.73,21.46,1.92,7.08,5.49,13.21,10.76,18.31,5.12,4.95,15.19,10.65,18.11,10.54-2.18-1.3-4.66-2.6-6.95-4.19-2.25-1.57-4.55-3.16-6.23-5.41,8.59,6.39,18.1,9.16,28.75,7.53,10.5-1.61,19.22-6.44,26-14.69Z"/>
    </clipPath>
    <clipPath id="clippath-4">
      <path class="cls-1" d="m507.83,163.76c13.62-10.78,28.62-12.66,44.41-6.02,15.77,6.64,24.79,18.84,27.08,35.91,2.65-10.76,1.34-20.96-4.72-30.33-6.31-9.75-15.3-15.76-26.28-18.41,2.38,1.27,5.01,2.61,7.57,4.08,2.36,1.35,6.76,4.82,7.06,5.62-9.03-6.39-18.81-8.82-29.47-6.74-10.5,2.05-19.12,7.33-25.65,15.89Z"/>
    </clipPath>
    <clipPath id="clippath-5">
      <path class="cls-1" d="m597.02,232.46c-.03-.08-.06-.16-.09-.24-1.44.43-2.87.92-4.33,1.29-1.44.37-2.89.69-4.35.93-1.49.24-3,.4-4.5.5-1.47.09-2.95.15-4.54-.16.19-.2.22-.27.26-.28.36-.05.72-.11,1.08-.12,4.3-.14,8.33-1.37,12.19-3.18,7.4-3.46,12.97-8.88,16.95-15.98,2.29-4.1,3.88-8.46,4.77-13.05.7-3.61.85-7.28.64-10.96,0-.16-.08-.32-.13-.48-.62,2.99-1.15,5.99-2.16,8.82-3.26,9.08-9.1,16.14-17.3,21.19-8.82,5.44-18.4,7.73-28.75,6.83-4.81-.42-9.36-1.78-13.72-3.74-4.05-1.83-7.76-4.24-10.94-7.41-.12-.12-.29-.2-.44-.3-.06.05-.13.1-.19.15.85,1.39,1.69,2.8,2.56,4.18,2.96,4.68,6.91,8.41,11.59,11.27,4.35,2.66,9.12,4.33,14.2,5.17,3.89.64,7.77.62,11.64.28,3.54-.32,7.02-1.17,10.35-2.45,1.77-.68,3.48-1.5,5.22-2.26Z"/>
    </clipPath>
  </defs>
  <g>
    <path class="cls-1" d="m535.66,179.77c-.48-.08-.98-.13-1.45-.25-.26-.07-.49-.26-.73-.4.19-.18.35-.43.57-.54,3.14-1.49,6.4-2.59,9.89-2.74,1.54-.07,3.09.08,4.64.13.02.12.05.24.07.37-.29.16-.56.39-.87.47-4.64,1.28-8.88,3.37-12.79,6.17-5.19,3.71-9.14,8.47-12.1,14.07-2.23,4.22-3.72,8.69-4.49,13.41-.83,5.11-.8,10.21.1,15.3.85,4.81,2.43,9.37,4.75,13.67.6,1.1,1.25,2.18,1.95,3.41-.96-3.05-1.95-5.88-2.71-8.76-.75-2.87-1.26-5.8-.95-8.81.17.1.25.21.27.34.18,1.09.27,2.21.55,3.28.42,1.65.85,3.32,1.47,4.9,1.46,3.69,3.42,7.09,6.03,10.13,4.18,4.86,9.26,8.44,15.15,10.86,5.78,2.37,11.81,3.5,18.07,3.17,1.46-.08,2.91-.27,4.23-.4-2.81-.56-5.73-1.07-8.61-1.73-5.63-1.31-10.5-4.18-14.92-7.79-3.27-2.67-5.99-5.87-8.34-9.39-4.07-6.1-6.63-12.78-7.51-20.03-.48-3.93-.48-7.92.26-11.88.87-4.64,2.54-8.91,5.22-12.8,2.5-3.63,5.74-6.46,9.57-8.54,5.28-2.86,11-4.28,17-4.41,2.74-.06,5.49-.02,8.23.04.97.02,1.94.23,2.91.36.21.03.42.05.66.07-.2-1.12-.87-2-1.96-2.87-2.6-2.07-5.66-2.76-8.86-2.95-1.73-.1-3.48.04-5.21-.05-.87-.04-1.8-.2-2.56-.59-3.04-1.57-6.31-2.19-9.65-2.32-3.42-.14-6.73.68-9.96,1.76-5.41,1.81-10.18,4.74-14.51,8.42-5.85,4.98-10.49,10.87-13.44,18.01-.57,1.37-1.04,2.78-1.55,4.17l.25.14c2.05-5.57,5.6-10.1,9.66-14.29.06.18.05.32-.02.42-.56.83-1.13,1.66-1.7,2.49-3.63,5.31-5.47,11.25-6.05,17.6-.48,5.33.46,10.5,2.14,15.53,2.34,6.99,6.25,13,11.8,17.89.55.48,1.14.92,1.71,1.38.05-.05.09-.1.14-.15-.54-.66-1.13-1.29-1.62-1.98-3.64-5.18-5.77-10.94-6.76-17.19-.77-4.83-.59-9.62.13-14.39.61-4.02,1.74-7.93,3.4-11.67,2.36-5.32,5.4-10.18,9.59-14.28,2.66-2.6,5.58-4.83,8.9-6.76Z"/>
    <g class="cls-5">
      <rect class="cls-1" x="504.08" y="172.54" width=".98" height="85.75"/>
      <rect class="cls-1" x="505.06" y="172.54" width=".98" height="85.75"/>
      <rect class="cls-1" x="506.05" y="172.54" width=".98" height="85.75"/>
      <rect class="cls-1" x="507.03" y="172.54" width=".98" height="85.75"/>
      <rect class="cls-1" x="508.01" y="172.54" width=".98" height="85.75"/>
      <rect class="cls-1" x="508.99" y="172.54" width=".98" height="85.75"/>
      <rect class="cls-1" x="509.97" y="172.54" width=".98" height="85.75"/>
      <rect class="cls-1" x="510.95" y="172.54" width=".98" height="85.75"/>
      <rect class="cls-1" x="511.93" y="172.54" width=".98" height="85.75"/>
      <rect class="cls-1" x="512.91" y="172.54" width=".98" height="85.75"/>
      <rect class="cls-1" x="513.89" y="172.54" width=".98" height="85.75"/>
      <rect class="cls-1" x="514.88" y="172.54" width=".98" height="85.75"/>
      <rect class="cls-1" x="515.86" y="172.54" width=".98" height="85.75"/>
      <rect class="cls-1" x="516.84" y="172.54" width=".98" height="85.75"/>
      <rect class="cls-1" x="517.82" y="172.54" width=".98" height="85.75"/>
      <rect class="cls-1" x="518.8" y="172.54" width=".98" height="85.75"/>
      <rect class="cls-1" x="519.78" y="172.54" width=".98" height="85.75"/>
      <rect class="cls-1" x="520.76" y="172.54" width=".98" height="85.75"/>
      <rect class="cls-1" x="521.74" y="172.54" width=".98" height="85.75"/>
      <rect class="cls-1" x="522.72" y="172.54" width=".98" height="85.75"/>
      <rect class="cls-1" x="523.71" y="172.54" width=".98" height="85.75"/>
      <rect class="cls-1" x="524.69" y="172.54" width=".98" height="85.75"/>
      <rect class="cls-1" x="525.67" y="172.54" width=".98" height="85.75"/>
      <rect class="cls-1" x="526.65" y="172.54" width=".98" height="85.75"/>
      <rect class="cls-1" x="527.63" y="172.54" width=".98" height="85.75"/>
      <rect class="cls-1" x="528.61" y="172.54" width=".98" height="85.75"/>
      <rect class="cls-1" x="529.59" y="172.54" width=".98" height="85.75"/>
      <rect class="cls-1" x="530.57" y="172.54" width=".98" height="85.75"/>
      <rect class="cls-1" x="531.56" y="172.54" width=".98" height="85.75"/>
      <rect class="cls-1" x="532.54" y="172.54" width=".98" height="85.75"/>
      <rect class="cls-1" x="533.52" y="172.54" width=".98" height="85.75"/>
      <rect class="cls-1" x="534.5" y="172.54" width=".98" height="85.75"/>
      <rect class="cls-1" x="535.48" y="172.54" width=".98" height="85.75"/>
      <rect class="cls-1" x="536.46" y="172.54" width=".98" height="85.75"/>
      <rect class="cls-1" x="537.44" y="172.54" width=".98" height="85.75"/>
      <rect class="cls-1" x="538.42" y="172.54" width=".98" height="85.75"/>
      <rect class="cls-1" x="539.4" y="172.54" width=".98" height="85.75"/>
      <rect class="cls-1" x="540.39" y="172.54" width=".98" height="85.75"/>
      <rect class="cls-1" x="541.37" y="172.54" width=".98" height="85.75"/>
      <rect class="cls-1" x="542.35" y="172.54" width=".98" height="85.75"/>
      <rect class="cls-1" x="543.33" y="172.54" width=".98" height="85.75"/>
      <rect class="cls-1" x="544.31" y="172.54" width=".98" height="85.75"/>
      <rect class="cls-1" x="545.29" y="172.54" width=".98" height="85.75"/>
      <rect class="cls-1" x="546.27" y="172.54" width=".98" height="85.75"/>
      <rect class="cls-1" x="547.25" y="172.54" width=".98" height="85.75"/>
      <rect class="cls-1" x="548.23" y="172.54" width=".98" height="85.75"/>
      <rect class="cls-1" x="549.22" y="172.54" width=".98" height="85.75"/>
      <rect class="cls-1" x="550.2" y="172.54" width=".98" height="85.75"/>
      <rect class="cls-1" x="551.18" y="172.54" width=".98" height="85.75"/>
      <rect class="cls-1" x="552.16" y="172.54" width=".98" height="85.75"/>
      <rect class="cls-1" x="553.14" y="172.54" width=".98" height="85.75"/>
      <rect class="cls-1" x="554.12" y="172.54" width=".98" height="85.75"/>
      <rect class="cls-1" x="555.1" y="172.54" width=".98" height="85.75"/>
      <rect class="cls-1" x="556.08" y="172.54" width=".98" height="85.75"/>
      <rect class="cls-1" x="557.07" y="172.54" width=".98" height="85.75"/>
      <rect class="cls-1" x="558.05" y="172.54" width=".98" height="85.75"/>
      <rect class="cls-1" x="559.03" y="172.54" width=".98" height="85.75"/>
      <rect class="cls-1" x="560.01" y="172.54" width=".98" height="85.75"/>
      <rect class="cls-1" x="560.99" y="172.54" width=".98" height="85.75"/>
      <rect class="cls-1" x="561.97" y="172.54" width=".98" height="85.75"/>
      <rect class="cls-1" x="562.95" y="172.54" width=".98" height="85.75"/>
      <rect class="cls-1" x="563.93" y="172.54" width=".98" height="85.75"/>
      <rect class="cls-1" x="564.91" y="172.54" width=".98" height="85.75"/>
      <rect class="cls-1" x="565.9" y="172.54" width=".98" height="85.75"/>
      <rect class="cls-1" x="566.88" y="172.54" width=".98" height="85.75"/>
      <rect class="cls-1" x="567.86" y="172.54" width=".98" height="85.75"/>
      <rect class="cls-1" x="568.84" y="172.54" width=".98" height="85.75"/>
      <rect class="cls-1" x="569.82" y="172.54" width=".98" height="85.75"/>
      <rect class="cls-1" x="570.8" y="172.54" width=".98" height="85.75"/>
    </g>
  </g>
  <g>
    <path class="cls-1" d="m546.67,140.8c17.25,2.02,29.29,11.16,35.76,27.09,6.43,15.85,4.3,30.82-6.39,44.62,9.84-5.79,15.88-14.13,18.28-25.06,1.17-5.33,1.28-10.71.28-16.11-1-5.38-2.92-10.38-5.84-15,2.18,5.26,3.25,10.74,3.51,16.45-1.91-10.67-7.22-19.15-16.2-25.2-8.9-5.99-18.75-8.12-29.4-6.79Z"/>
    <g class="cls-3">
      <rect class="cls-1" x="546.67" y="139.47" width=".7" height="73.04"/>
      <rect class="cls-1" x="547.38" y="139.47" width=".7" height="73.04"/>
      <rect class="cls-1" x="548.08" y="139.47" width=".7" height="73.04"/>
      <rect class="cls-1" x="548.79" y="139.47" width=".7" height="73.04"/>
      <rect class="cls-1" x="549.49" y="139.47" width=".7" height="73.04"/>
      <rect class="cls-1" x="550.2" y="139.47" width=".7" height="73.04"/>
      <rect class="cls-1" x="550.9" y="139.47" width=".7" height="73.04"/>
      <rect class="cls-1" x="551.61" y="139.47" width=".7" height="73.04"/>
      <rect class="cls-1" x="552.31" y="139.47" width=".7" height="73.04"/>
      <rect class="cls-1" x="553.02" y="139.47" width=".7" height="73.04"/>
      <rect class="cls-1" x="553.72" y="139.47" width=".7" height="73.04"/>
      <rect class="cls-1" x="554.42" y="139.47" width=".7" height="73.04"/>
      <rect class="cls-1" x="555.13" y="139.47" width=".7" height="73.04"/>
      <rect class="cls-1" x="555.83" y="139.47" width=".7" height="73.04"/>
      <rect class="cls-1" x="556.54" y="139.47" width=".7" height="73.04"/>
      <rect class="cls-1" x="557.24" y="139.47" width=".7" height="73.04"/>
      <rect class="cls-1" x="557.95" y="139.47" width=".7" height="73.04"/>
      <rect class="cls-1" x="558.65" y="139.47" width=".7" height="73.04"/>
      <rect class="cls-1" x="559.36" y="139.47" width=".7" height="73.04"/>
      <rect class="cls-1" x="560.06" y="139.47" width=".7" height="73.04"/>
      <rect class="cls-1" x="560.76" y="139.47" width=".7" height="73.04"/>
      <rect class="cls-1" x="561.47" y="139.47" width=".7" height="73.04"/>
      <rect class="cls-1" x="562.17" y="139.47" width=".7" height="73.04"/>
      <rect class="cls-1" x="562.88" y="139.47" width=".7" height="73.04"/>
      <rect class="cls-1" x="563.58" y="139.47" width=".7" height="73.04"/>
      <rect class="cls-1" x="564.29" y="139.47" width=".7" height="73.04"/>
      <rect class="cls-1" x="564.99" y="139.47" width=".7" height="73.04"/>
      <rect class="cls-1" x="565.7" y="139.47" width=".7" height="73.04"/>
      <rect class="cls-1" x="566.4" y="139.47" width=".7" height="73.04"/>
      <rect class="cls-1" x="567.11" y="139.47" width=".7" height="73.04"/>
      <rect class="cls-1" x="567.81" y="139.47" width=".7" height="73.04"/>
      <rect class="cls-1" x="568.51" y="139.47" width=".7" height="73.04"/>
      <rect class="cls-1" x="569.22" y="139.47" width=".7" height="73.04"/>
      <rect class="cls-1" x="569.92" y="139.47" width=".7" height="73.04"/>
      <rect class="cls-1" x="570.63" y="139.47" width=".7" height="73.04"/>
      <rect class="cls-1" x="571.33" y="139.47" width=".7" height="73.04"/>
      <rect class="cls-1" x="572.04" y="139.47" width=".7" height="73.04"/>
      <rect class="cls-1" x="572.74" y="139.47" width=".7" height="73.04"/>
      <rect class="cls-1" x="573.45" y="139.47" width=".7" height="73.04"/>
      <rect class="cls-1" x="574.15" y="139.47" width=".7" height="73.04"/>
      <rect class="cls-1" x="574.85" y="139.47" width=".7" height="73.04"/>
      <rect class="cls-1" x="575.56" y="139.47" width=".7" height="73.04"/>
      <rect class="cls-1" x="576.26" y="139.47" width=".7" height="73.04"/>
      <rect class="cls-1" x="576.97" y="139.47" width=".7" height="73.04"/>
      <rect class="cls-1" x="577.67" y="139.47" width=".7" height="73.04"/>
      <rect class="cls-1" x="578.38" y="139.47" width=".7" height="73.04"/>
      <rect class="cls-1" x="579.08" y="139.47" width=".7" height="73.04"/>
      <rect class="cls-1" x="579.79" y="139.47" width=".7" height="73.04"/>
      <rect class="cls-1" x="580.49" y="139.47" width=".7" height="73.04"/>
      <rect class="cls-1" x="581.19" y="139.47" width=".7" height="73.04"/>
      <rect class="cls-1" x="581.9" y="139.47" width=".7" height="73.04"/>
      <rect class="cls-1" x="582.6" y="139.47" width=".7" height="73.04"/>
      <rect class="cls-1" x="583.31" y="139.47" width=".7" height="73.04"/>
      <rect class="cls-1" x="584.01" y="139.47" width=".7" height="73.04"/>
      <rect class="cls-1" x="584.72" y="139.47" width=".7" height="73.04"/>
      <rect class="cls-1" x="585.42" y="139.47" width=".7" height="73.04"/>
      <rect class="cls-1" x="586.13" y="139.47" width=".7" height="73.04"/>
      <rect class="cls-1" x="586.83" y="139.47" width=".7" height="73.04"/>
      <rect class="cls-1" x="587.54" y="139.47" width=".7" height="73.04"/>
      <rect class="cls-1" x="588.24" y="139.47" width=".7" height="73.04"/>
      <rect class="cls-1" x="588.94" y="139.47" width=".7" height="73.04"/>
      <rect class="cls-1" x="589.65" y="139.47" width=".7" height="73.04"/>
      <rect class="cls-1" x="590.35" y="139.47" width=".7" height="73.04"/>
      <rect class="cls-1" x="591.06" y="139.47" width=".7" height="73.04"/>
      <rect class="cls-1" x="591.76" y="139.47" width=".7" height="73.04"/>
      <rect class="cls-1" x="592.47" y="139.47" width=".7" height="73.04"/>
      <rect class="cls-1" x="593.17" y="139.47" width=".7" height="73.04"/>
      <rect class="cls-1" x="593.88" y="139.47" width=".7" height="73.04"/>
      <rect class="cls-1" x="594.58" y="139.47" width=".7" height="73.04"/>
      <rect class="cls-1" x="595.28" y="139.47" width=".32" height="73.04"/>
    </g>
  </g>
  <g>
    <path class="cls-1" d="m600.54,206.51c-.14-.07-.27-.14-.41-.22,4.2-5.62,6.49-11.93,6.98-18.87.49-6.97-.93-13.56-3.81-19.91-3.38-7.46-10.25-14.26-12.63-15.35,1.24,1.82,2.67,3.76,3.92,5.8,2.95,4.79,4.82,10,5.43,15.59.65,5.97.25,11.89-1.47,17.72-1.87,6.33-4.92,12-9.15,17.05-4.09,4.89-9.03,8.69-14.81,11.37-4.05,1.88-8.28,3.1-12.73,3.52-.28.03-.55.1-.82.15,0,.09,0,.17,0,.26,1.78.32,3.55.86,5.34.91,3.24.09,6.5.07,9.72-.22,4.06-.36,7.86-1.79,11.48-3.6,4.79-2.39,8.89-5.68,12.39-9.76,3.39-3.96,6.13-8.27,7.8-13.23.64-1.89,1.24-3.8,1.85-5.7-.08-.04-.16-.08-.24-.11-1.87,5.56-5.17,10.21-8.86,14.62Z"/>
    <g class="cls-2">
      <rect class="cls-1" x="561.04" y="152.16" width=".7" height="72.46"/>
      <rect class="cls-1" x="561.75" y="152.16" width=".7" height="72.46"/>
      <rect class="cls-1" x="562.45" y="152.16" width=".7" height="72.46"/>
      <rect class="cls-1" x="563.15" y="152.16" width=".7" height="72.46"/>
      <rect class="cls-1" x="563.86" y="152.16" width=".7" height="72.46"/>
      <rect class="cls-1" x="564.56" y="152.16" width=".7" height="72.46"/>
      <rect class="cls-1" x="565.27" y="152.16" width=".7" height="72.46"/>
      <rect class="cls-1" x="565.97" y="152.16" width=".7" height="72.46"/>
      <rect class="cls-1" x="566.68" y="152.16" width=".7" height="72.46"/>
      <rect class="cls-1" x="567.38" y="152.16" width=".7" height="72.46"/>
      <rect class="cls-1" x="568.08" y="152.16" width=".7" height="72.46"/>
      <rect class="cls-1" x="568.79" y="152.16" width=".7" height="72.46"/>
      <rect class="cls-1" x="569.49" y="152.16" width=".7" height="72.46"/>
      <rect class="cls-1" x="570.2" y="152.16" width=".7" height="72.46"/>
      <rect class="cls-1" x="570.9" y="152.16" width=".7" height="72.46"/>
      <rect class="cls-1" x="571.61" y="152.16" width=".7" height="72.46"/>
      <rect class="cls-1" x="572.31" y="152.16" width=".7" height="72.46"/>
      <rect class="cls-1" x="573.01" y="152.16" width=".7" height="72.46"/>
      <rect class="cls-1" x="573.72" y="152.16" width=".7" height="72.46"/>
      <rect class="cls-1" x="574.42" y="152.16" width=".7" height="72.46"/>
      <rect class="cls-1" x="575.13" y="152.16" width=".7" height="72.46"/>
      <rect class="cls-1" x="575.83" y="152.16" width=".7" height="72.46"/>
      <rect class="cls-1" x="576.54" y="152.16" width=".7" height="72.46"/>
      <rect class="cls-1" x="577.24" y="152.16" width=".7" height="72.46"/>
      <rect class="cls-1" x="577.94" y="152.16" width=".7" height="72.46"/>
      <rect class="cls-1" x="578.65" y="152.16" width=".7" height="72.46"/>
      <rect class="cls-1" x="579.35" y="152.16" width=".7" height="72.46"/>
      <rect class="cls-1" x="580.06" y="152.16" width=".7" height="72.46"/>
      <rect class="cls-1" x="580.76" y="152.16" width=".7" height="72.46"/>
      <rect class="cls-1" x="581.46" y="152.16" width=".7" height="72.46"/>
      <rect class="cls-1" x="582.17" y="152.16" width=".7" height="72.46"/>
      <rect class="cls-1" x="582.87" y="152.16" width=".7" height="72.46"/>
      <rect class="cls-1" x="583.58" y="152.16" width=".7" height="72.46"/>
      <rect class="cls-1" x="584.28" y="152.16" width=".7" height="72.46"/>
      <rect class="cls-1" x="584.99" y="152.16" width=".7" height="72.46"/>
      <rect class="cls-1" x="585.69" y="152.16" width=".7" height="72.46"/>
      <rect class="cls-1" x="586.39" y="152.16" width=".7" height="72.46"/>
      <rect class="cls-1" x="587.1" y="152.16" width=".7" height="72.46"/>
      <rect class="cls-1" x="587.8" y="152.16" width=".7" height="72.46"/>
      <rect class="cls-1" x="588.51" y="152.16" width=".7" height="72.46"/>
      <rect class="cls-1" x="589.21" y="152.16" width=".7" height="72.46"/>
      <rect class="cls-1" x="589.92" y="152.16" width=".7" height="72.46"/>
      <rect class="cls-1" x="590.62" y="152.16" width=".7" height="72.46"/>
      <rect class="cls-1" x="591.32" y="152.16" width=".7" height="72.46"/>
      <rect class="cls-1" x="592.03" y="152.16" width=".7" height="72.46"/>
      <rect class="cls-1" x="592.73" y="152.16" width=".7" height="72.46"/>
      <rect class="cls-1" x="593.44" y="152.16" width=".7" height="72.46"/>
      <rect class="cls-1" x="594.14" y="152.16" width=".7" height="72.46"/>
      <rect class="cls-1" x="594.85" y="152.16" width=".7" height="72.46"/>
      <rect class="cls-1" x="595.55" y="152.16" width=".7" height="72.46"/>
      <rect class="cls-1" x="596.25" y="152.16" width=".7" height="72.46"/>
      <rect class="cls-1" x="596.96" y="152.16" width=".7" height="72.46"/>
      <rect class="cls-1" x="597.66" y="152.16" width=".7" height="72.46"/>
      <rect class="cls-1" x="598.37" y="152.16" width=".7" height="72.46"/>
      <rect class="cls-1" x="599.07" y="152.16" width=".7" height="72.46"/>
      <rect class="cls-1" x="599.78" y="152.16" width=".7" height="72.46"/>
      <rect class="cls-1" x="600.48" y="152.16" width=".7" height="72.46"/>
      <rect class="cls-1" x="601.18" y="152.16" width=".7" height="72.46"/>
      <rect class="cls-1" x="601.89" y="152.16" width=".7" height="72.46"/>
      <rect class="cls-1" x="602.59" y="152.16" width=".7" height="72.46"/>
      <rect class="cls-1" x="603.3" y="152.16" width=".7" height="72.46"/>
      <rect class="cls-1" x="604" y="152.16" width=".7" height="72.46"/>
      <rect class="cls-1" x="604.71" y="152.16" width=".7" height="72.46"/>
      <rect class="cls-1" x="605.41" y="152.16" width=".7" height="72.46"/>
      <rect class="cls-1" x="606.11" y="152.16" width=".7" height="72.46"/>
      <rect class="cls-1" x="606.82" y="152.16" width=".7" height="72.46"/>
      <rect class="cls-1" x="607.52" y="152.16" width=".7" height="72.46"/>
      <rect class="cls-1" x="608.23" y="152.16" width=".7" height="72.46"/>
      <rect class="cls-1" x="608.93" y="152.16" width=".7" height="72.46"/>
    </g>
  </g>
  <g>
    <path class="cls-1" d="m604.01,234.91c-.13.08-.27.15-.4.23-1.56,1.03-3.1,2.11-4.69,3.08-2.94,1.79-6.1,3.09-9.42,3.94-5.82,1.49-11.73,1.84-17.66.77-6.26-1.14-12.12-3.38-17.49-6.84-5.35-3.45-9.84-7.79-13.28-13.14-4.04-6.29-6.34-13.19-6.65-20.7,0-.23-.06-.46-.11-.87-2.05,5.87-2.73,14.08-.73,21.46,1.92,7.08,5.49,13.21,10.76,18.31,5.12,4.95,15.19,10.65,18.11,10.54-2.18-1.3-4.66-2.6-6.95-4.19-2.25-1.57-4.55-3.16-6.23-5.41,8.59,6.39,18.1,9.16,28.75,7.53,10.5-1.61,19.22-6.44,26-14.69Z"/>
    <g class="cls-6">
      <rect class="cls-1" x="531.56" y="201.36" width=".8" height="50.41"/>
      <rect class="cls-1" x="532.37" y="201.36" width="1.04" height="50.41"/>
      <rect class="cls-1" x="533.4" y="201.36" width="1.04" height="50.41"/>
      <rect class="cls-1" x="534.44" y="201.36" width="1.04" height="50.41"/>
      <rect class="cls-1" x="535.48" y="201.36" width="1.04" height="50.41"/>
      <rect class="cls-1" x="536.52" y="201.36" width="1.04" height="50.41"/>
      <rect class="cls-1" x="537.56" y="201.36" width="1.04" height="50.41"/>
      <rect class="cls-1" x="538.6" y="201.36" width="1.04" height="50.41"/>
      <rect class="cls-1" x="539.63" y="201.36" width="1.04" height="50.41"/>
      <rect class="cls-1" x="540.67" y="201.36" width="1.04" height="50.41"/>
      <rect class="cls-1" x="541.71" y="201.36" width="1.04" height="50.41"/>
      <rect class="cls-1" x="542.75" y="201.36" width="1.04" height="50.41"/>
      <rect class="cls-1" x="543.79" y="201.36" width="1.04" height="50.41"/>
      <rect class="cls-1" x="544.82" y="201.36" width="1.04" height="50.41"/>
      <rect class="cls-1" x="545.86" y="201.36" width="1.04" height="50.41"/>
      <rect class="cls-1" x="546.9" y="201.36" width="1.04" height="50.41"/>
      <rect class="cls-1" x="547.94" y="201.36" width="1.04" height="50.41"/>
      <rect class="cls-1" x="548.98" y="201.36" width="1.04" height="50.41"/>
      <rect class="cls-1" x="550.02" y="201.36" width="1.04" height="50.41"/>
      <rect class="cls-1" x="551.05" y="201.36" width="1.04" height="50.41"/>
      <rect class="cls-1" x="552.09" y="201.36" width="1.04" height="50.41"/>
      <rect class="cls-1" x="553.13" y="201.36" width="1.04" height="50.41"/>
      <rect class="cls-1" x="554.17" y="201.36" width="1.04" height="50.41"/>
      <rect class="cls-1" x="555.21" y="201.36" width="1.04" height="50.41"/>
      <rect class="cls-1" x="556.25" y="201.36" width="1.04" height="50.41"/>
      <rect class="cls-1" x="557.28" y="201.36" width="1.04" height="50.41"/>
      <rect class="cls-1" x="558.32" y="201.36" width="1.04" height="50.41"/>
      <rect class="cls-1" x="559.36" y="201.36" width="1.04" height="50.41"/>
      <rect class="cls-1" x="560.4" y="201.36" width="1.04" height="50.41"/>
      <rect class="cls-1" x="561.44" y="201.36" width="1.04" height="50.41"/>
      <rect class="cls-1" x="562.48" y="201.36" width="1.04" height="50.41"/>
      <rect class="cls-1" x="563.51" y="201.36" width="1.04" height="50.41"/>
      <rect class="cls-1" x="564.55" y="201.36" width="1.04" height="50.41"/>
      <rect class="cls-1" x="565.59" y="201.36" width="1.04" height="50.41"/>
      <rect class="cls-1" x="566.63" y="201.36" width="1.04" height="50.41"/>
      <rect class="cls-1" x="567.67" y="201.36" width="1.04" height="50.41"/>
      <rect class="cls-1" x="568.7" y="201.36" width="1.04" height="50.41"/>
      <rect class="cls-1" x="569.74" y="201.36" width="1.04" height="50.41"/>
      <rect class="cls-1" x="570.78" y="201.36" width="1.04" height="50.41"/>
      <rect class="cls-1" x="571.82" y="201.36" width="1.04" height="50.41"/>
      <rect class="cls-1" x="572.86" y="201.36" width="1.04" height="50.41"/>
      <rect class="cls-1" x="573.9" y="201.36" width="1.04" height="50.41"/>
      <rect class="cls-1" x="574.93" y="201.36" width="1.04" height="50.41"/>
      <rect class="cls-1" x="575.97" y="201.36" width="1.04" height="50.41"/>
      <rect class="cls-1" x="577.01" y="201.36" width="1.04" height="50.41"/>
      <rect class="cls-1" x="578.05" y="201.36" width="1.04" height="50.41"/>
      <rect class="cls-1" x="579.09" y="201.36" width="1.04" height="50.41"/>
      <rect class="cls-1" x="580.13" y="201.36" width="1.04" height="50.41"/>
      <rect class="cls-1" x="581.16" y="201.36" width="1.04" height="50.41"/>
      <rect class="cls-1" x="582.2" y="201.36" width="1.04" height="50.41"/>
      <rect class="cls-1" x="583.24" y="201.36" width="1.04" height="50.41"/>
      <rect class="cls-1" x="584.28" y="201.36" width="1.04" height="50.41"/>
      <rect class="cls-1" x="585.32" y="201.36" width="1.04" height="50.41"/>
      <rect class="cls-1" x="586.36" y="201.36" width="1.04" height="50.41"/>
      <rect class="cls-1" x="587.39" y="201.36" width="1.04" height="50.41"/>
      <rect class="cls-1" x="588.43" y="201.36" width="1.04" height="50.41"/>
      <rect class="cls-1" x="589.47" y="201.36" width="1.04" height="50.41"/>
      <rect class="cls-1" x="590.51" y="201.36" width="1.04" height="50.41"/>
      <rect class="cls-1" x="591.55" y="201.36" width="1.04" height="50.41"/>
      <rect class="cls-1" x="592.58" y="201.36" width="1.04" height="50.41"/>
      <rect class="cls-1" x="593.62" y="201.36" width="1.04" height="50.41"/>
      <rect class="cls-1" x="594.66" y="201.36" width="1.04" height="50.41"/>
      <rect class="cls-1" x="595.7" y="201.36" width="1.04" height="50.41"/>
      <rect class="cls-1" x="596.74" y="201.36" width="1.04" height="50.41"/>
      <rect class="cls-1" x="597.78" y="201.36" width="1.04" height="50.41"/>
      <rect class="cls-1" x="598.81" y="201.36" width="1.04" height="50.41"/>
      <rect class="cls-1" x="599.85" y="201.36" width="1.04" height="50.41"/>
      <rect class="cls-1" x="600.89" y="201.36" width="1.04" height="50.41"/>
      <rect class="cls-1" x="601.93" y="201.36" width="1.04" height="50.41"/>
      <rect class="cls-1" x="602.97" y="201.36" width="1.04" height="50.41"/>
    </g>
  </g>
  <g>
    <path class="cls-1" d="m507.83,163.76c13.62-10.78,28.62-12.66,44.41-6.02,15.77,6.64,24.79,18.84,27.08,35.91,2.65-10.76,1.34-20.96-4.72-30.33-6.31-9.75-15.3-15.76-26.28-18.41,2.38,1.27,5.01,2.61,7.57,4.08,2.36,1.35,6.76,4.82,7.06,5.62-9.03-6.39-18.81-8.82-29.47-6.74-10.5,2.05-19.12,7.33-25.65,15.89Z"/>
    <g class="cls-4">
      <rect class="cls-1" x="507.83" y="144.92" width="1.05" height="48.74"/>
      <rect class="cls-1" x="508.88" y="144.92" width="1.05" height="48.74"/>
      <rect class="cls-1" x="509.94" y="144.92" width="1.05" height="48.74"/>
      <rect class="cls-1" x="510.99" y="144.92" width="1.05" height="48.74"/>
      <rect class="cls-1" x="512.05" y="144.92" width="1.05" height="48.74"/>
      <rect class="cls-1" x="513.1" y="144.92" width="1.05" height="48.74"/>
      <rect class="cls-1" x="514.16" y="144.92" width="1.05" height="48.74"/>
      <rect class="cls-1" x="515.21" y="144.92" width="1.05" height="48.74"/>
      <rect class="cls-1" x="516.27" y="144.92" width="1.05" height="48.74"/>
      <rect class="cls-1" x="517.32" y="144.92" width="1.05" height="48.74"/>
      <rect class="cls-1" x="518.38" y="144.92" width="1.05" height="48.74"/>
      <rect class="cls-1" x="519.43" y="144.92" width="1.05" height="48.74"/>
      <rect class="cls-1" x="520.49" y="144.92" width="1.05" height="48.74"/>
      <rect class="cls-1" x="521.54" y="144.92" width="1.05" height="48.74"/>
      <rect class="cls-1" x="522.6" y="144.92" width="1.05" height="48.74"/>
      <rect class="cls-1" x="523.65" y="144.92" width="1.05" height="48.74"/>
      <rect class="cls-1" x="524.71" y="144.92" width="1.05" height="48.74"/>
      <rect class="cls-1" x="525.76" y="144.92" width="1.05" height="48.74"/>
      <rect class="cls-1" x="526.82" y="144.92" width="1.05" height="48.74"/>
      <rect class="cls-1" x="527.87" y="144.92" width="1.05" height="48.74"/>
      <rect class="cls-1" x="528.93" y="144.92" width="1.05" height="48.74"/>
      <rect class="cls-1" x="529.98" y="144.92" width="1.05" height="48.74"/>
      <rect class="cls-1" x="531.04" y="144.92" width="1.05" height="48.74"/>
      <rect class="cls-1" x="532.09" y="144.92" width="1.05" height="48.74"/>
      <rect class="cls-1" x="533.15" y="144.92" width="1.05" height="48.74"/>
      <rect class="cls-1" x="534.2" y="144.92" width="1.05" height="48.74"/>
      <rect class="cls-1" x="535.26" y="144.92" width="1.05" height="48.74"/>
      <rect class="cls-1" x="536.31" y="144.92" width="1.05" height="48.74"/>
      <rect class="cls-1" x="537.37" y="144.92" width="1.05" height="48.74"/>
      <rect class="cls-1" x="538.42" y="144.92" width="1.05" height="48.74"/>
      <rect class="cls-1" x="539.48" y="144.92" width="1.05" height="48.74"/>
      <rect class="cls-1" x="540.53" y="144.92" width="1.05" height="48.74"/>
      <rect class="cls-1" x="541.59" y="144.92" width="1.05" height="48.74"/>
      <rect class="cls-1" x="542.64" y="144.92" width="1.05" height="48.74"/>
      <rect class="cls-1" x="543.7" y="144.92" width="1.05" height="48.74"/>
      <rect class="cls-1" x="544.75" y="144.92" width="1.05" height="48.74"/>
      <rect class="cls-1" x="545.81" y="144.92" width="1.05" height="48.74"/>
      <rect class="cls-1" x="546.86" y="144.92" width="1.05" height="48.74"/>
      <rect class="cls-1" x="547.92" y="144.92" width="1.05" height="48.74"/>
      <rect class="cls-1" x="548.97" y="144.92" width="1.05" height="48.74"/>
      <rect class="cls-1" x="550.03" y="144.92" width="1.05" height="48.74"/>
      <rect class="cls-1" x="551.08" y="144.92" width="1.05" height="48.74"/>
      <rect class="cls-1" x="552.14" y="144.92" width="1.05" height="48.74"/>
      <rect class="cls-1" x="553.19" y="144.92" width="1.05" height="48.74"/>
      <rect class="cls-1" x="554.25" y="144.92" width="1.05" height="48.74"/>
      <rect class="cls-1" x="555.3" y="144.92" width="1.05" height="48.74"/>
      <rect class="cls-1" x="556.36" y="144.92" width="1.05" height="48.74"/>
      <rect class="cls-1" x="557.41" y="144.92" width="1.05" height="48.74"/>
      <rect class="cls-1" x="558.47" y="144.92" width="1.05" height="48.74"/>
      <rect class="cls-1" x="559.52" y="144.92" width="1.05" height="48.74"/>
      <rect class="cls-1" x="560.58" y="144.92" width="1.05" height="48.74"/>
      <rect class="cls-1" x="561.63" y="144.92" width="1.05" height="48.74"/>
      <rect class="cls-1" x="562.69" y="144.92" width="1.05" height="48.74"/>
      <rect class="cls-1" x="563.74" y="144.92" width="1.05" height="48.74"/>
      <rect class="cls-1" x="564.8" y="144.92" width="1.05" height="48.74"/>
      <rect class="cls-1" x="565.85" y="144.92" width="1.05" height="48.74"/>
      <rect class="cls-1" x="566.91" y="144.92" width="1.05" height="48.74"/>
      <rect class="cls-1" x="567.96" y="144.92" width="1.05" height="48.74"/>
      <rect class="cls-1" x="569.02" y="144.92" width="1.05" height="48.74"/>
      <rect class="cls-1" x="570.07" y="144.92" width="1.05" height="48.74"/>
      <rect class="cls-1" x="571.13" y="144.92" width="1.05" height="48.74"/>
      <rect class="cls-1" x="572.18" y="144.92" width="1.05" height="48.74"/>
      <rect class="cls-1" x="573.24" y="144.92" width="1.05" height="48.74"/>
      <rect class="cls-1" x="574.29" y="144.92" width="1.05" height="48.74"/>
      <rect class="cls-1" x="575.35" y="144.92" width="1.05" height="48.74"/>
      <rect class="cls-1" x="576.4" y="144.92" width="1.05" height="48.74"/>
      <rect class="cls-1" x="577.46" y="144.92" width="1.05" height="48.74"/>
      <rect class="cls-1" x="578.51" y="144.92" width="1.05" height="48.74"/>
      <rect class="cls-1" x="579.57" y="144.92" width="1.05" height="48.74"/>
      <rect class="cls-1" x="580.62" y="144.92" width="1.35" height="48.74"/>
    </g>
  </g>
  <g>
    <path class="cls-1" d="m597.02,232.46c-.03-.08-.06-.16-.09-.24-1.44.43-2.87.92-4.33,1.29-1.44.37-2.89.69-4.35.93-1.49.24-3,.4-4.5.5-1.47.09-2.95.15-4.54-.16.19-.2.22-.27.26-.28.36-.05.72-.11,1.08-.12,4.3-.14,8.33-1.37,12.19-3.18,7.4-3.46,12.97-8.88,16.95-15.98,2.29-4.1,3.88-8.46,4.77-13.05.7-3.61.85-7.28.64-10.96,0-.16-.08-.32-.13-.48-.62,2.99-1.15,5.99-2.16,8.82-3.26,9.08-9.1,16.14-17.3,21.19-8.82,5.44-18.4,7.73-28.75,6.83-4.81-.42-9.36-1.78-13.72-3.74-4.05-1.83-7.76-4.24-10.94-7.41-.12-.12-.29-.2-.44-.3-.06.05-.13.1-.19.15.85,1.39,1.69,2.8,2.56,4.18,2.96,4.68,6.91,8.41,11.59,11.27,4.35,2.66,9.12,4.33,14.2,5.17,3.89.64,7.77.62,11.64.28,3.54-.32,7.02-1.17,10.35-2.45,1.77-.68,3.48-1.5,5.22-2.26Z"/>
    <g class="cls-7">
      <rect class="cls-1" x="541.47" y="190.74" width="1.07" height="46.81"/>
      <rect class="cls-1" x="542.53" y="190.74" width="1.07" height="46.81"/>
      <rect class="cls-1" x="543.6" y="190.74" width="1.07" height="46.81"/>
      <rect class="cls-1" x="544.67" y="190.74" width="1.07" height="46.81"/>
      <rect class="cls-1" x="545.74" y="190.74" width="1.07" height="46.81"/>
      <rect class="cls-1" x="546.81" y="190.74" width="1.07" height="46.81"/>
      <rect class="cls-1" x="547.88" y="190.74" width="1.07" height="46.81"/>
      <rect class="cls-1" x="548.94" y="190.74" width="1.07" height="46.81"/>
      <rect class="cls-1" x="550.01" y="190.74" width="1.07" height="46.81"/>
      <rect class="cls-1" x="551.08" y="190.74" width="1.07" height="46.81"/>
      <rect class="cls-1" x="552.15" y="190.74" width="1.07" height="46.81"/>
      <rect class="cls-1" x="553.22" y="190.74" width="1.07" height="46.81"/>
      <rect class="cls-1" x="554.29" y="190.74" width="1.07" height="46.81"/>
      <rect class="cls-1" x="555.36" y="190.74" width="1.07" height="46.81"/>
      <rect class="cls-1" x="556.42" y="190.74" width="1.07" height="46.81"/>
      <rect class="cls-1" x="557.49" y="190.74" width="1.07" height="46.81"/>
      <rect class="cls-1" x="558.56" y="190.74" width="1.07" height="46.81"/>
      <rect class="cls-1" x="559.63" y="190.74" width="1.07" height="46.81"/>
      <rect class="cls-1" x="560.7" y="190.74" width="1.07" height="46.81"/>
      <rect class="cls-1" x="561.77" y="190.74" width="1.07" height="46.81"/>
      <rect class="cls-1" x="562.84" y="190.74" width="1.07" height="46.81"/>
      <rect class="cls-1" x="563.9" y="190.74" width="1.07" height="46.81"/>
      <rect class="cls-1" x="564.97" y="190.74" width="1.07" height="46.81"/>
      <rect class="cls-1" x="566.04" y="190.74" width="1.07" height="46.81"/>
      <rect class="cls-1" x="567.11" y="190.74" width="1.07" height="46.81"/>
      <rect class="cls-1" x="568.18" y="190.74" width="1.07" height="46.81"/>
      <rect class="cls-1" x="569.25" y="190.74" width="1.07" height="46.81"/>
      <rect class="cls-1" x="570.31" y="190.74" width="1.07" height="46.81"/>
      <rect class="cls-1" x="571.38" y="190.74" width="1.07" height="46.81"/>
      <rect class="cls-1" x="572.45" y="190.74" width="1.07" height="46.81"/>
      <rect class="cls-1" x="573.52" y="190.74" width="1.07" height="46.81"/>
      <rect class="cls-1" x="574.59" y="190.74" width="1.07" height="46.81"/>
      <rect class="cls-1" x="575.66" y="190.74" width="1.07" height="46.81"/>
      <rect class="cls-1" x="576.73" y="190.74" width="1.07" height="46.81"/>
      <rect class="cls-1" x="577.79" y="190.74" width="1.07" height="46.81"/>
      <rect class="cls-1" x="578.86" y="190.74" width="1.07" height="46.81"/>
      <rect class="cls-1" x="579.93" y="190.74" width="1.07" height="46.81"/>
      <rect class="cls-1" x="581" y="190.74" width="1.07" height="46.81"/>
      <rect class="cls-1" x="582.07" y="190.74" width="1.07" height="46.81"/>
      <rect class="cls-1" x="583.14" y="190.74" width="1.07" height="46.81"/>
      <rect class="cls-1" x="584.2" y="190.74" width="1.07" height="46.81"/>
      <rect class="cls-1" x="585.27" y="190.74" width="1.07" height="46.81"/>
      <rect class="cls-1" x="586.34" y="190.74" width="1.07" height="46.81"/>
      <rect class="cls-1" x="587.41" y="190.74" width="1.07" height="46.81"/>
      <rect class="cls-1" x="588.48" y="190.74" width="1.07" height="46.81"/>
      <rect class="cls-1" x="589.55" y="190.74" width="1.07" height="46.81"/>
      <rect class="cls-1" x="590.62" y="190.74" width="1.07" height="46.81"/>
      <rect class="cls-1" x="591.68" y="190.74" width="1.07" height="46.81"/>
      <rect class="cls-1" x="592.75" y="190.74" width="1.07" height="46.81"/>
      <rect class="cls-1" x="593.82" y="190.74" width="1.07" height="46.81"/>
      <rect class="cls-1" x="594.89" y="190.74" width="1.07" height="46.81"/>
      <rect class="cls-1" x="595.96" y="190.74" width="1.07" height="46.81"/>
      <rect class="cls-1" x="597.03" y="190.74" width="1.07" height="46.81"/>
      <rect class="cls-1" x="598.09" y="190.74" width="1.07" height="46.81"/>
      <rect class="cls-1" x="599.16" y="190.74" width="1.07" height="46.81"/>
      <rect class="cls-1" x="600.23" y="190.74" width="1.07" height="46.81"/>
      <rect class="cls-1" x="601.3" y="190.74" width="1.07" height="46.81"/>
      <rect class="cls-1" x="602.37" y="190.74" width="1.07" height="46.81"/>
      <rect class="cls-1" x="603.44" y="190.74" width="1.07" height="46.81"/>
      <rect class="cls-1" x="604.51" y="190.74" width="1.07" height="46.81"/>
      <rect class="cls-1" x="605.57" y="190.74" width="1.07" height="46.81"/>
      <rect class="cls-1" x="606.64" y="190.74" width="1.07" height="46.81"/>
      <rect class="cls-1" x="607.71" y="190.74" width="1.07" height="46.81"/>
      <rect class="cls-1" x="608.78" y="190.74" width="1.07" height="46.81"/>
      <rect class="cls-1" x="609.85" y="190.74" width="1.07" height="46.81"/>
      <rect class="cls-1" x="610.92" y="190.74" width="1.07" height="46.81"/>
      <rect class="cls-1" x="611.98" y="190.74" width="1.07" height="46.81"/>
      <rect class="cls-1" x="613.05" y="190.74" width="1.07" height="46.81"/>
      <rect class="cls-1" x="614.12" y="190.74" width="1.07" height="46.81"/>
      <rect class="cls-1" x="615.19" y="190.74" width=".12" height="46.81"/>
    </g>
  </g>
  <g>
    <polygon class="cls-1" points="125.05 229.08 124.58 229.08 95.17 143 75.56 143 46.63 229.08 46.15 229.08 20.56 143 0 143 36.34 254.9 55.47 254.9 83.69 168.82 84.17 168.82 115.97 254.9 134.38 254.9 170.48 143 150.4 143 125.05 229.08"/>
    <path class="cls-1" d="m231.06,140.13c-33.24,0-57.39,24.39-57.39,58.82s22.24,58.82,56.91,58.82c22.72,0,37.78-7.89,49.5-23.19l-14.11-11c-8.85,11.48-19.85,16.98-35.39,16.98-19.61,0-34.91-15.06-36.82-35.87h90.38v-4.54c0-41.6-23.91-60.02-53.08-60.02Zm-37.3,48.78c2.87-20.32,17.22-31.56,36.34-31.56,20.8,0,33,12.19,33.95,31.56h-70.3Z"/>
    <path class="cls-1" d="m394.7,162.13h-.48c-6.7-13.39-22.72-22-39.69-22-36.11,0-59.3,23.19-59.3,58.82,0,33.24,24.87,57.39,59.3,57.39,16.74,0,31.32-7.65,39.69-20.8h.48v14.59c0,29.41-13.87,44.95-42.32,44.95-17.22,0-29.89-6.69-41.61-19.37l-13.39,15.3c15.54,15.54,33.24,21.28,55,21.28,40.41,0,60.97-23.67,60.97-61.21v-108.08h-18.65v19.13Zm-39.93,76.99c-22,0-39.45-17.69-39.45-40.17,0-23.91,16.74-41.6,39.21-41.6,23.91,0,40.17,16.98,40.17,41.13s-15.78,40.65-39.93,40.65Z"/>
    <path class="cls-1" d="m454.09,161.41h-.48c0-7.41-.48-11.48-.48-18.41h-17.7c0,6.69.96,17.45.96,24.87v87.04h18.65v-55.47c0-25.82,11.24-40.65,32.76-40.65,3.59,0,6.46.48,10.04,1.43l1.2-18.89c-2.63-.96-4.78-1.2-7.65-1.2-16.5,0-31.32,8.61-37.3,21.28Z"/>
    <polygon class="cls-1" points="836 39.34 824.73 0 794.26 25.55 807.27 29.85 771.56 143 746.21 229.08 745.73 229.08 716.32 143 696.72 143 667.79 229.08 667.31 229.08 641.72 143 621.16 143 657.5 254.9 676.63 254.9 704.85 168.82 705.33 168.82 737.13 254.9 755.54 254.9 791.64 143 823.2 35.11 836 39.34"/>
  </g>
  <g>
    <path class="cls-1" d="m427.95,309.53c-1.57,0-2.76-.41-3.57-1.24-.81-.83-1.21-1.99-1.21-3.47,0-.96.26-2.58.79-4.85.52-2.27,1.2-5.03,2.03-8.28.83-3.25,1.44-5.77,1.83-7.56.48-1.83.7-3.26.66-4.29-.04-1.03-.34-1.76-.88-2.19-.55-.44-1.56-.81-3.05-1.11l.13-.46c3.36.04,6.75.04,10.15,0,.44,0,.59.2.46.59-2.18,8.17-3.76,14.34-4.72,18.53-1.4,5.72-2.09,9.21-2.09,10.48,0,1.4.55,2.1,1.64,2.1.83,0,1.55-.37,2.16-1.11s1.25-1.99,1.9-3.73l.52.13c-1.27,4.32-3.52,6.48-6.75,6.48Zm7.2-47.54c.96,0,1.74.31,2.33.92.59.61.88,1.35.88,2.23,0,1.05-.4,1.98-1.21,2.78-.81.81-1.78,1.21-2.92,1.21-1,0-1.81-.31-2.42-.92-.61-.61-.92-1.33-.92-2.16,0-1.09.42-2.04,1.25-2.85.83-.81,1.83-1.21,3.01-1.21Z"/>
    <path class="cls-1" d="m471.23,303.05c-1.35,4.32-3.6,6.48-6.75,6.48-1.48,0-2.66-.38-3.54-1.15-.87-.76-1.31-1.82-1.31-3.18s.85-5.28,2.55-11.79c1.57-6.07,2.36-9.8,2.36-11.2s-.36-2.48-1.08-3.24c-.72-.76-1.76-1.15-3.11-1.15-1.96,0-3.98,1.24-6.06,3.73-2.07,2.49-3.79,6.4-5.14,11.72-1.57,6.38-2.75,11.57-3.54,15.59h-5.7c2.14-8.25,4.13-16.79,5.96-25.61.57-2.4.67-4.02.29-4.85s-1.56-1.46-3.57-1.9l.13-.46c3.32.09,6.7.09,10.15,0,.35,0,.46.18.33.52-1.22,4.28-2.05,7.4-2.49,9.36h.13c3.19-6.98,7.03-10.48,11.53-10.48,2.4,0,4.27.64,5.6,1.93,1.33,1.29,2,3.02,2,5.21,0,1.83-.81,5.7-2.42,11.59-1.75,6.64-2.62,10.57-2.62,11.79s.55,1.77,1.64,1.77c1.48,0,2.86-1.61,4.13-4.85l.52.13Z"/>
    <path class="cls-1" d="m471.62,323.61c-1.96,0-3.51-.39-4.65-1.18-1.13-.79-1.7-1.83-1.7-3.14,0-.87.29-1.65.85-2.32.57-.68,1.29-1.02,2.16-1.02s1.49.23,2,.69c.5.46.75,1.06.75,1.8,0,.39-.1.86-.29,1.41-.2.55-.3.97-.3,1.28,0,1.05.77,1.57,2.29,1.57,1.31,0,2.47-.61,3.47-1.83,1-1.22,1.53-3.23,1.57-6.02,0-.39-.01-1.23-.03-2.52-.02-1.29,0-2.4.1-3.34.09-.94.24-1.97.46-3.11l6.03-28.81h-4.98l.2-.92h3.47c.96,0,1.57-.5,1.83-1.51l.66-2.62c1.83-8.08,6-12.12,12.51-12.12,2.1,0,3.91.47,5.44,1.41,1.53.94,2.29,2.24,2.29,3.9,0,1.01-.31,1.8-.92,2.39-.61.59-1.33.88-2.16.88s-1.52-.23-2.06-.69c-.55-.46-.82-1.08-.82-1.87,0-.44.15-.98.46-1.64.3-.65.46-1.22.46-1.7,0-1.22-1.09-1.83-3.28-1.83-4.28,0-6.7,3.01-7.27,9.04-.04.92-.07,2.05-.07,3.41v2.95h7.73l-.2.92h-7.66c-.35,1.35-1.4,6.17-3.14,14.44-1.75,8.27-2.77,13.26-3.08,14.96-.57,2.75-1.16,5.06-1.77,6.94-.61,1.88-1.38,3.64-2.29,5.3-.92,1.66-2.04,2.89-3.37,3.7-1.33.81-2.89,1.21-4.68,1.21Z"/>
    <path class="cls-1" d="m507.32,293.16c-1.44,5.37-2.64,10.61-3.6,15.72h-5.7c2.14-8.25,4.13-16.79,5.96-25.61.57-2.4.67-4.02.29-4.85s-1.56-1.46-3.57-1.9l.07-.46c3.28.09,6.59.09,9.95,0,.35,0,.46.18.33.52-.79,2.71-1.66,6.2-2.62,10.48h.2c1.88-3.97,3.69-6.9,5.44-8.78,1.75-1.88,3.67-2.82,5.76-2.82,1.31,0,2.35.37,3.11,1.11s1.15,1.66,1.15,2.75-.31,1.92-.92,2.62c-.61.7-1.42,1.05-2.42,1.05-1.66,0-2.62-.85-2.88-2.55-.09-.61-.21-1.05-.36-1.31-.15-.26-.47-.39-.95-.39-1.4,0-3.01,1.4-4.85,4.19-1.83,2.79-3.3,6.2-4.39,10.22Z"/>
    <path class="cls-1" d="m555.32,303.05c-1.27,4.32-3.43,6.48-6.48,6.48-3.32,0-4.98-1.53-4.98-4.58,0-.87.24-2.27.72-4.19h-.2c-2.92,5.76-6.35,8.64-10.28,8.64-2.84,0-5.13-.99-6.88-2.98-1.75-1.99-2.62-4.9-2.62-8.74,0-5.81,1.72-10.98,5.17-15.52,3.45-4.54,7.79-6.81,13.03-6.81,1.66,0,3.27.43,4.85,1.28,1.57.85,2.82,2.08,3.73,3.7,1.39-1.61,2.64-3.25,3.73-4.91h.72c-2.14,8.47-4.15,17.25-6.03,26.33-.48,2.18-.72,3.58-.72,4.19,0,1.22.55,1.83,1.64,1.83,1.48,0,2.86-1.61,4.13-4.85l.46.13Zm-19.84,4.45c1.96,0,3.92-1.22,5.86-3.67,1.94-2.45,3.53-5.56,4.75-9.33,1.22-3.78,1.83-7.48,1.83-11.1,0-2.27-.46-4.04-1.38-5.3-.92-1.27-2.16-1.9-3.73-1.9-2.27,0-4.38,1.26-6.32,3.77-1.94,2.51-3.43,5.57-4.45,9.17-1.03,3.6-1.54,7.17-1.54,10.71,0,2.4.44,4.28,1.31,5.63.87,1.35,2.1,2.03,3.67,2.03Z"/>
    <path class="cls-1" d="m569.47,309.53c-3.97,0-5.96-1.92-5.96-5.76,0-.48.05-1.22.16-2.23.11-1,.27-2.39.49-4.16.22-1.77.41-3.37.59-4.81.74-6.37,1.11-10.22,1.11-11.53.04-1.48-.14-2.53-.56-3.14-.42-.61-1.41-1.07-2.98-1.38l.13-.46c1.92.09,4.69.09,8.32,0,.48,0,.72.22.72.66-.09,4.54-.52,9.87-1.31,15.98-.18,1.22-.36,2.97-.56,5.24-.2,2.27-.36,3.86-.49,4.78-.13,1.57,0,2.69.43,3.34s1.12.98,2.13.98c1.53,0,3.38-1.08,5.57-3.24,2.18-2.16,4.09-4.89,5.73-8.19,1.64-3.3,2.45-6.34,2.45-9.14,0-1.14-.21-2.03-.62-2.69-.42-.66-1.06-1.31-1.93-1.96-1.31-.92-1.97-2.01-1.97-3.27,0-.87.31-1.58.92-2.13.61-.55,1.35-.82,2.23-.82,1.31,0,2.35.55,3.11,1.64.76,1.09,1.15,2.53,1.15,4.32,0,3.8-1.08,7.92-3.24,12.38-2.16,4.45-4.73,8.16-7.69,11.13-2.97,2.97-5.61,4.45-7.92,4.45Z"/>
    <path class="cls-1" d="m617.4,299.77c-2.66,6.51-6.79,9.76-12.38,9.76-3.41,0-6.21-1.1-8.42-3.31-2.2-2.2-3.31-5.25-3.31-9.14,0-5.41,1.78-10.37,5.34-14.87,3.56-4.5,7.65-6.75,12.28-6.75,2.44,0,4.49.53,6.12,1.6,1.64,1.07,2.46,2.54,2.46,4.42,0,6.42-6.66,10.39-19.98,11.92-.17,1.18-.26,2.53-.26,4.06,0,3.19.68,5.65,2.03,7.4,1.35,1.75,3.25,2.62,5.7,2.62,4.15,0,7.42-2.64,9.82-7.92l.59.2Zm-6.61-23.44c-2.49,0-4.8,1.63-6.94,4.88-2.14,3.25-3.54,7.08-4.19,11.49,2.92-.35,5.41-.97,7.47-1.87,2.05-.89,3.58-1.93,4.58-3.11,1.01-1.18,1.71-2.34,2.13-3.47.42-1.13.62-2.31.62-3.54,0-1.4-.33-2.48-.98-3.24-.66-.76-1.55-1.15-2.68-1.15Z"/>
    <path class="cls-1" d="m653.88,303.05c-1.35,4.32-3.6,6.48-6.75,6.48-1.48,0-2.66-.38-3.54-1.15-.87-.76-1.31-1.82-1.31-3.18s.85-5.28,2.55-11.79c1.57-6.07,2.36-9.8,2.36-11.2s-.36-2.48-1.08-3.24c-.72-.76-1.76-1.15-3.11-1.15-1.96,0-3.98,1.24-6.06,3.73-2.07,2.49-3.79,6.4-5.14,11.72-1.57,6.38-2.75,11.57-3.54,15.59h-5.7c2.14-8.25,4.13-16.79,5.96-25.61.57-2.4.67-4.02.29-4.85s-1.56-1.46-3.57-1.9l.13-.46c3.32.09,6.7.09,10.15,0,.35,0,.46.18.33.52-1.22,4.28-2.05,7.4-2.49,9.36h.13c3.19-6.98,7.03-10.48,11.53-10.48,2.4,0,4.27.64,5.6,1.93,1.33,1.29,2,3.02,2,5.21,0,1.83-.81,5.7-2.42,11.59-1.75,6.64-2.62,10.57-2.62,11.79s.55,1.77,1.64,1.77c1.48,0,2.86-1.61,4.13-4.85l.52.13Z"/>
    <path class="cls-1" d="m667.5,309.53c-2.18,0-3.86-.52-5.04-1.57-1.18-1.05-1.77-2.51-1.77-4.39,0-1,.81-5.06,2.42-12.18,1.53-6.2,2.64-11,3.34-14.41h-5.04l.06-.59c3.41-.61,6.15-1.91,8.22-3.9,2.07-1.99,3.79-4.81,5.14-8.48h.59l-3.27,12.12h8.45l-.2.92h-8.51c-1.14,4.5-2.29,9.32-3.47,14.47-1.57,7.03-2.36,11.11-2.36,12.25,0,2.53,1.11,3.8,3.34,3.8s4.17-1.79,6.09-5.37l.52.33c-1.18,2.36-2.43,4.12-3.77,5.27-1.33,1.16-2.91,1.73-4.75,1.73Z"/>
    <path class="cls-1" d="m689.9,309.53c-2.36,0-4.18-.63-5.47-1.9-1.29-1.27-1.93-2.95-1.93-5.04,0-1.61.85-5.54,2.55-11.79,1.44-5.63,2.18-8.69,2.23-9.17.39-1.92.39-3.15,0-3.7-.39-.55-1.46-1.02-3.21-1.41l.13-.46c3.27.09,6.57.09,9.89,0,.31,0,.39.18.26.52-.79,2.58-2.14,7.49-4.06,14.73-1.66,6.42-2.49,10.24-2.49,11.46,0,1.35.37,2.42,1.11,3.21.74.79,1.77,1.18,3.08,1.18,1.92,0,3.88-1.24,5.86-3.73,1.99-2.49,3.66-6.4,5.01-11.72,1.31-5.02,2.58-10.22,3.8-15.59h5.37c-1.61,6.29-3.62,14.89-6.02,25.8-.48,2.18-.72,3.52-.72,4,0,1.22.55,1.83,1.64,1.83,1.48,0,2.86-1.61,4.13-4.85l.52.13c-1.31,4.32-3.47,6.48-6.48,6.48-1.61,0-2.86-.37-3.73-1.11-.87-.74-1.31-1.77-1.31-3.08,0-.92.35-2.86,1.05-5.83h-.13c-3.01,6.68-6.7,10.02-11.07,10.02Z"/>
    <path class="cls-1" d="m726.11,293.16c-1.44,5.37-2.64,10.61-3.6,15.72h-5.7c2.14-8.25,4.13-16.79,5.96-25.61.57-2.4.67-4.02.29-4.85s-1.56-1.46-3.57-1.9l.07-.46c3.28.09,6.59.09,9.95,0,.35,0,.46.18.33.52-.79,2.71-1.66,6.2-2.62,10.48h.2c1.88-3.97,3.69-6.9,5.44-8.78,1.75-1.88,3.67-2.82,5.76-2.82,1.31,0,2.35.37,3.11,1.11s1.15,1.66,1.15,2.75-.31,1.92-.92,2.62c-.61.7-1.42,1.05-2.42,1.05-1.66,0-2.62-.85-2.88-2.55-.09-.61-.21-1.05-.36-1.31-.15-.26-.47-.39-.95-.39-1.4,0-3.01,1.4-4.85,4.19-1.83,2.79-3.3,6.2-4.39,10.22Z"/>
    <path class="cls-1" d="m767.5,299.77c-2.66,6.51-6.79,9.76-12.38,9.76-3.41,0-6.21-1.1-8.42-3.31-2.2-2.2-3.31-5.25-3.31-9.14,0-5.41,1.78-10.37,5.34-14.87,3.56-4.5,7.65-6.75,12.28-6.75,2.44,0,4.49.53,6.12,1.6,1.64,1.07,2.46,2.54,2.46,4.42,0,6.42-6.66,10.39-19.98,11.92-.17,1.18-.26,2.53-.26,4.06,0,3.19.68,5.65,2.03,7.4,1.35,1.75,3.25,2.62,5.7,2.62,4.15,0,7.42-2.64,9.82-7.92l.59.2Zm-6.61-23.44c-2.49,0-4.8,1.63-6.94,4.88-2.14,3.25-3.54,7.08-4.19,11.49,2.92-.35,5.41-.97,7.47-1.87,2.05-.89,3.58-1.93,4.58-3.11,1.01-1.18,1.71-2.34,2.13-3.47.42-1.13.62-2.31.62-3.54,0-1.4-.33-2.48-.98-3.24-.66-.76-1.55-1.15-2.68-1.15Z"/>
  </g>
</svg>