<?xml version="1.0" encoding="UTF-8"?>
<svg id="Layer_1" data-name="Layer 1" xmlns="http://www.w3.org/2000/svg" xmlns:xlink="http://www.w3.org/1999/xlink" viewBox="0 0 836 323.61">
  <defs>
    <style>
      .cls-1 {
        fill: #fff;
      }

      .cls-2 {
        clip-path: url(#clippath-2);
      }

      .cls-3 {
        clip-path: url(#clippath-1);
      }

      .cls-4 {
        clip-path: url(#clippath-4);
      }

      .cls-5 {
        clip-path: url(#clippath);
      }

      .cls-6 {
        clip-path: url(#clippath-3);
      }

      .cls-7 {
        clip-path: url(#clippath-5);
      }
    </style>
    <clipPath id="clippath">
      <path class="cls-1" d="m533.57,170.45c-.49-.08-.99-.13-1.47-.25-.26-.07-.49-.26-.74-.4.19-.18.35-.44.58-.54,3.17-1.5,6.47-2.61,10-2.77,1.56-.07,3.13.08,4.69.13.02.12.05.25.07.37-.29.16-.57.39-.88.48-4.69,1.29-8.98,3.4-12.94,6.24-5.25,3.75-9.24,8.56-12.24,14.23-2.25,4.26-3.76,8.78-4.54,13.55-.84,5.17-.81,10.32.1,15.47.86,4.86,2.45,9.48,4.81,13.82.6,1.11,1.26,2.2,1.98,3.45-.97-3.09-1.97-5.94-2.74-8.86-.76-2.9-1.27-5.87-.96-8.9.17.1.25.22.27.34.18,1.11.28,2.23.55,3.32.42,1.67.86,3.35,1.49,4.95,1.47,3.73,3.45,7.17,6.09,10.24,4.22,4.92,9.36,8.53,15.32,10.98,5.84,2.4,11.94,3.54,18.27,3.21,1.48-.08,2.94-.28,4.27-.4-2.84-.57-5.79-1.08-8.71-1.75-5.7-1.32-10.61-4.23-15.08-7.88-3.3-2.7-6.06-5.93-8.44-9.49-4.11-6.16-6.71-12.92-7.59-20.25-.48-3.98-.48-8,.26-12.01.88-4.7,2.57-9.01,5.28-12.94,2.53-3.67,5.81-6.53,9.68-8.63,5.34-2.89,11.12-4.32,17.19-4.46,2.77-.06,5.55-.02,8.32.04.98.02,1.96.24,2.95.36.21.03.43.05.66.07-.21-1.13-.88-2.03-1.98-2.9-2.63-2.09-5.72-2.79-8.96-2.98-1.75-.1-3.52.04-5.27-.05-.88-.05-1.82-.2-2.59-.6-3.07-1.58-6.38-2.21-9.75-2.35-3.45-.14-6.81.69-10.07,1.78-5.47,1.83-10.29,4.79-14.67,8.52-5.92,5.04-10.61,10.99-13.59,18.21-.57,1.38-1.05,2.81-1.57,4.21l.25.14c2.07-5.64,5.66-10.21,9.76-14.45.06.18.05.32-.02.42-.57.84-1.14,1.68-1.72,2.52-3.67,5.37-5.53,11.37-6.11,17.79-.49,5.39.46,10.62,2.17,15.7,2.37,7.07,6.32,13.14,11.93,18.09.55.49,1.15.93,1.72,1.39.05-.05.09-.1.14-.16-.55-.67-1.14-1.3-1.63-2.01-3.68-5.24-5.83-11.06-6.84-17.38-.77-4.88-.6-9.72.14-14.55.62-4.06,1.76-8.02,3.44-11.79,2.39-5.38,5.46-10.3,9.7-14.44,2.69-2.63,5.64-4.89,9-6.84Z"/>
    </clipPath>
    <clipPath id="clippath-1">
      <path class="cls-1" d="m544.71,131.04c17.44,2.04,29.62,11.28,36.15,27.39,6.5,16.02,4.34,31.16-6.46,45.11,9.94-5.86,16.05-14.28,18.48-25.34,1.18-5.39,1.29-10.83.28-16.29-1.01-5.44-2.95-10.49-5.9-15.17,2.2,5.32,3.29,10.86,3.54,16.63-1.93-10.79-7.3-19.36-16.38-25.48-9-6.06-18.95-8.21-29.73-6.87Z"/>
    </clipPath>
    <clipPath id="clippath-2">
      <path class="cls-1" d="m599.17,197.49c-.14-.07-.28-.15-.42-.22,4.24-5.68,6.56-12.06,7.06-19.08.5-7.05-.94-13.71-3.85-20.13-3.42-7.54-10.36-14.42-12.77-15.52,1.25,1.84,2.7,3.8,3.97,5.86,2.98,4.84,4.88,10.12,5.49,15.76.66,6.04.25,12.02-1.49,17.91-1.89,6.41-4.97,12.13-9.25,17.24-4.14,4.94-9.13,8.78-14.97,11.49-4.09,1.9-8.37,3.14-12.88,3.56-.28.03-.55.1-.83.15,0,.09,0,.17,0,.26,1.8.32,3.59.87,5.4.92,3.27.1,6.57.07,9.83-.22,4.1-.37,7.95-1.81,11.61-3.64,4.84-2.42,8.99-5.75,12.52-9.87,3.43-4,6.2-8.36,7.88-13.38.64-1.91,1.25-3.84,1.87-5.76-.08-.04-.16-.08-.24-.11-1.89,5.62-5.22,10.32-8.96,14.78Z"/>
    </clipPath>
    <clipPath id="clippath-3">
      <path class="cls-1" d="m602.67,226.2c-.13.08-.27.15-.4.23-1.58,1.04-3.13,2.13-4.75,3.11-2.97,1.81-6.17,3.12-9.53,3.98-5.89,1.5-11.86,1.86-17.85.77-6.33-1.15-12.25-3.41-17.68-6.92-5.41-3.49-9.95-7.88-13.43-13.28-4.09-6.36-6.41-13.34-6.73-20.93,0-.23-.06-.47-.12-.88-2.07,5.94-2.76,14.23-.74,21.69,1.94,7.16,5.55,13.36,10.88,18.51,5.17,5,15.36,10.77,18.31,10.65-2.2-1.31-4.71-2.63-7.02-4.24-2.28-1.59-4.6-3.19-6.3-5.47,8.68,6.46,18.3,9.26,29.06,7.62,10.62-1.62,19.43-6.51,26.29-14.85Z"/>
    </clipPath>
    <clipPath id="clippath-4">
      <path class="cls-1" d="m505.43,154.27c13.77-10.9,28.94-12.8,44.9-6.08,15.95,6.72,25.07,19.05,27.38,36.31,2.68-10.88,1.36-21.19-4.77-30.66-6.38-9.86-15.47-15.94-26.58-18.62,2.41,1.29,5.07,2.64,7.66,4.12,2.39,1.37,6.84,4.88,7.13,5.68-9.13-6.46-19.02-8.92-29.79-6.81-10.62,2.08-19.33,7.41-25.93,16.06Z"/>
    </clipPath>
    <clipPath id="clippath-5">
      <path class="cls-1" d="m595.62,223.73c-.03-.08-.06-.16-.1-.25-1.46.44-2.9.93-4.37,1.31-1.45.37-2.92.7-4.4.94-1.51.24-3.03.41-4.55.5-1.48.09-2.98.15-4.59-.16.19-.21.22-.27.26-.28.36-.05.73-.11,1.1-.12,4.35-.15,8.42-1.39,12.33-3.21,7.48-3.5,13.11-8.98,17.14-16.16,2.32-4.14,3.92-8.55,4.82-13.19.71-3.65.86-7.36.65-11.08,0-.16-.09-.32-.13-.49-.62,3.03-1.16,6.06-2.19,8.92-3.29,9.18-9.2,16.32-17.5,21.43-8.92,5.5-18.61,7.82-29.07,6.91-4.86-.42-9.47-1.8-13.87-3.78-4.09-1.85-7.85-4.29-11.06-7.49-.13-.13-.3-.21-.45-.31-.07.05-.13.1-.2.15.86,1.41,1.7,2.83,2.59,4.23,2.99,4.73,6.98,8.5,11.72,11.39,4.4,2.69,9.22,4.38,14.36,5.22,3.93.65,7.85.63,11.77.28,3.58-.32,7.1-1.18,10.47-2.48,1.79-.69,3.52-1.52,5.27-2.29Z"/>
    </clipPath>
  </defs>
  <g>
    <path class="cls-1" d="m14.81,135.46h15.69l26.63,92h.48l30.67-92h13.55l32.57,92h.48l25.91-92h14.26l-32.33,109.83h-14.74l-32.81-89.86h-.48l-30.67,89.86h-14.74L14.81,135.46Z"/>
    <path class="cls-1" d="m286.62,185.38v8.56h-92.24c1.19,23.06,15.93,41.36,41.6,41.36,14.74,0,29.72-7.85,36.85-19.49l10.46,8.8c-11.17,16.64-28.05,23.54-47.55,23.54-33.28,0-55.63-23.54-55.63-58.01,0-31.86,22.11-57.53,54.92-57.53,29,0,51.59,20.21,51.59,52.78Zm-52.54-39.94c-21.63,0-37.32,16.64-39.7,35.66h77.98c-.24-20.44-17.35-35.66-38.27-35.66Z"/>
    <path class="cls-1" d="m361.11,132.61c19.02,0,33.28,8.32,41.6,21.4h.48v-18.54h14.26v102.22c0,42.55-21.87,64.66-58.72,64.66-20.21,0-42.32-7.61-54.2-23.06l11.17-10.46c9.98,14.03,26.15,20.68,43.27,20.68,28.53,0,44.22-16.64,44.22-49.21v-16.4h-.48c-8.32,13.07-22.58,21.4-41.6,21.4-31.86,0-58.72-24.96-58.72-56.34s27.58-56.34,58.72-56.34Zm-44.45,56.34c0,23.3,18.78,43.5,43.5,43.5s43.51-19.73,43.51-43.5-19.49-43.51-43.74-43.51-43.27,19.73-43.27,43.51Z"/>
    <path class="cls-1" d="m498.37,133.8l-1.66,14.03c-1.9-.71-3.8-.95-5.71-.95-23.06,0-35.66,15.69-35.66,38.51v59.91h-14.26v-80.12c0-2.38-1.19-27.81-1.19-29.72h14.26c.24,8.32.48,16.64.95,19.26,8.32-14.74,20.21-22.11,34.95-22.11,2.62,0,4.99.24,8.32,1.19Z"/>
  </g>
  <g>
    <path class="cls-1" d="m422.95,290.87c-1.43,0-2.51-.38-3.24-1.13-.74-.75-1.1-1.8-1.1-3.15,0-.87.24-2.34.71-4.41.48-2.06,1.09-4.57,1.85-7.53.75-2.96,1.31-5.25,1.67-6.88.44-1.67.63-2.97.6-3.9-.04-.93-.31-1.6-.8-1.99-.5-.4-1.42-.73-2.77-1.01l.12-.42c3.06.04,6.13.04,9.23,0,.4,0,.54.18.42.54-1.99,7.42-3.41,13.04-4.29,16.85-1.27,5.2-1.9,8.37-1.9,9.52,0,1.27.5,1.9,1.49,1.9.75,0,1.41-.34,1.96-1.01s1.13-1.81,1.73-3.39l.48.12c-1.15,3.93-3.2,5.89-6.13,5.89Zm6.55-43.22c.87,0,1.58.28,2.11.83.53.56.8,1.23.8,2.02,0,.95-.37,1.8-1.1,2.53-.74.73-1.62,1.1-2.65,1.1-.91,0-1.65-.28-2.2-.83-.56-.55-.83-1.21-.83-1.96,0-.99.38-1.85,1.13-2.59.75-.73,1.67-1.1,2.74-1.1Z"/>
    <path class="cls-1" d="m462.3,284.97c-1.23,3.93-3.27,5.89-6.13,5.89-1.35,0-2.42-.35-3.22-1.04-.79-.69-1.19-1.66-1.19-2.89s.77-4.8,2.32-10.71c1.43-5.52,2.14-8.91,2.14-10.18s-.33-2.25-.98-2.95c-.65-.69-1.6-1.04-2.83-1.04-1.79,0-3.62,1.13-5.51,3.39-1.88,2.26-3.44,5.82-4.67,10.66-1.43,5.8-2.5,10.52-3.21,14.17h-5.18c1.94-7.5,3.75-15.26,5.42-23.28.51-2.18.6-3.65.27-4.4s-1.42-1.33-3.24-1.73l.12-.42c3.02.08,6.09.08,9.23,0,.32,0,.42.16.3.48-1.11,3.89-1.87,6.73-2.26,8.51h.12c2.9-6.35,6.39-9.52,10.48-9.52,2.18,0,3.88.59,5.09,1.76,1.21,1.17,1.81,2.75,1.81,4.73,0,1.67-.73,5.18-2.2,10.54-1.59,6.03-2.38,9.6-2.38,10.71s.5,1.61,1.49,1.61c1.35,0,2.6-1.47,3.75-4.41l.48.12Z"/>
    <path class="cls-1" d="m462.65,303.67c-1.79,0-3.19-.36-4.23-1.07-1.03-.71-1.55-1.67-1.55-2.86,0-.79.26-1.5.77-2.11.52-.62,1.17-.92,1.97-.92s1.36.21,1.81.62c.46.42.68.96.68,1.64,0,.36-.09.78-.27,1.28-.18.5-.27.88-.27,1.16,0,.95.7,1.43,2.08,1.43,1.19,0,2.24-.56,3.16-1.67.91-1.11,1.39-2.94,1.43-5.48,0-.36-.01-1.12-.03-2.29-.02-1.17,0-2.18.09-3.04.08-.85.22-1.79.42-2.83l5.48-26.19h-4.52l.18-.83h3.16c.87,0,1.43-.46,1.67-1.37l.6-2.38c1.67-7.34,5.46-11.01,11.37-11.01,1.91,0,3.55.43,4.94,1.28,1.39.85,2.08,2.03,2.08,3.54,0,.91-.28,1.64-.83,2.17-.56.54-1.21.8-1.96.8s-1.38-.21-1.87-.62c-.5-.42-.74-.98-.74-1.7,0-.4.14-.89.42-1.49.28-.59.42-1.11.42-1.55,0-1.11-.99-1.67-2.98-1.67-3.89,0-6.09,2.74-6.61,8.21-.04.83-.06,1.87-.06,3.1v2.68h7.03l-.18.83h-6.97c-.32,1.23-1.27,5.61-2.86,13.13-1.59,7.52-2.52,12.05-2.8,13.6-.52,2.5-1.05,4.6-1.61,6.31-.56,1.71-1.25,3.31-2.08,4.82-.83,1.51-1.85,2.63-3.06,3.36-1.21.73-2.63,1.1-4.26,1.1Z"/>
    <path class="cls-1" d="m495.1,275.98c-1.31,4.88-2.4,9.64-3.27,14.29h-5.18c1.94-7.5,3.75-15.26,5.42-23.28.51-2.18.6-3.65.27-4.4s-1.42-1.33-3.24-1.73l.06-.42c2.98.08,5.99.08,9.05,0,.32,0,.42.16.3.48-.72,2.46-1.51,5.64-2.38,9.52h.18c1.71-3.61,3.35-6.27,4.94-7.98,1.59-1.71,3.33-2.56,5.24-2.56,1.19,0,2.13.34,2.83,1.01s1.04,1.51,1.04,2.5-.28,1.75-.83,2.38c-.56.63-1.29.95-2.2.95-1.51,0-2.38-.77-2.62-2.32-.08-.55-.19-.95-.33-1.19-.14-.24-.43-.36-.86-.36-1.27,0-2.74,1.27-4.41,3.81-1.67,2.54-3,5.64-3.99,9.29Z"/>
    <path class="cls-1" d="m538.73,284.97c-1.15,3.93-3.12,5.89-5.89,5.89-3.02,0-4.53-1.39-4.53-4.17,0-.79.22-2.06.66-3.81h-.18c-2.66,5.24-5.77,7.86-9.34,7.86-2.58,0-4.66-.9-6.25-2.71-1.59-1.8-2.38-4.45-2.38-7.95,0-5.28,1.57-9.98,4.7-14.11,3.14-4.13,7.08-6.19,11.85-6.19,1.51,0,2.98.39,4.41,1.16,1.43.77,2.56,1.89,3.39,3.36,1.27-1.47,2.4-2.96,3.39-4.46h.66c-1.95,7.7-3.77,15.68-5.48,23.93-.44,1.98-.65,3.25-.65,3.81,0,1.11.5,1.67,1.49,1.67,1.35,0,2.6-1.47,3.75-4.41l.42.12Zm-18.04,4.05c1.79,0,3.56-1.11,5.33-3.33,1.76-2.22,3.2-5.05,4.31-8.48,1.11-3.43,1.67-6.8,1.67-10.09,0-2.06-.42-3.67-1.25-4.82-.83-1.15-1.97-1.73-3.39-1.73-2.06,0-3.98,1.14-5.74,3.42-1.77,2.28-3.12,5.06-4.05,8.33-.93,3.27-1.4,6.52-1.4,9.73,0,2.18.4,3.89,1.19,5.12.79,1.23,1.91,1.85,3.33,1.85Z"/>
    <path class="cls-1" d="m551.59,290.87c-3.61,0-5.42-1.75-5.42-5.24,0-.44.05-1.11.15-2.02.1-.91.25-2.17.45-3.78.2-1.61.38-3.07.54-4.37.67-5.79,1.01-9.29,1.01-10.48.04-1.35-.13-2.3-.51-2.86-.38-.55-1.28-.97-2.71-1.25l.12-.42c1.75.08,4.27.08,7.56,0,.44,0,.66.2.66.6-.08,4.13-.48,8.97-1.19,14.53-.16,1.11-.33,2.7-.51,4.76-.18,2.06-.33,3.51-.45,4.35-.12,1.43,0,2.44.39,3.04s1.02.89,1.93.89c1.39,0,3.08-.98,5.06-2.95,1.99-1.96,3.72-4.44,5.21-7.44,1.49-3,2.23-5.76,2.23-8.3,0-1.03-.19-1.85-.56-2.44-.38-.6-.96-1.19-1.75-1.79-1.19-.83-1.79-1.82-1.79-2.98,0-.79.28-1.44.83-1.93.56-.5,1.23-.74,2.02-.74,1.19,0,2.13.5,2.83,1.49.69.99,1.04,2.3,1.04,3.93,0,3.45-.98,7.2-2.95,11.25-1.96,4.05-4.3,7.42-6.99,10.12-2.7,2.7-5.1,4.05-7.2,4.05Z"/>
    <path class="cls-1" d="m595.16,282c-2.42,5.91-6.17,8.87-11.25,8.87-3.1,0-5.65-1-7.65-3.01-2-2-3.01-4.77-3.01-8.3,0-4.92,1.62-9.43,4.85-13.51,3.23-4.09,6.95-6.13,11.16-6.13,2.22,0,4.08.49,5.57,1.46,1.49.97,2.23,2.31,2.23,4.02,0,5.83-6.05,9.45-18.16,10.83-.16,1.07-.24,2.3-.24,3.69,0,2.9.62,5.14,1.85,6.73,1.23,1.59,2.96,2.38,5.18,2.38,3.77,0,6.75-2.4,8.93-7.2l.54.18Zm-6.01-21.31c-2.26,0-4.37,1.48-6.31,4.43-1.94,2.96-3.21,6.44-3.81,10.45,2.66-.32,4.92-.88,6.79-1.7,1.86-.81,3.25-1.76,4.17-2.83.91-1.07,1.56-2.12,1.93-3.16.38-1.03.57-2.1.57-3.21,0-1.27-.3-2.25-.89-2.95-.6-.69-1.41-1.04-2.44-1.04Z"/>
    <path class="cls-1" d="m628.32,284.97c-1.23,3.93-3.27,5.89-6.13,5.89-1.35,0-2.42-.35-3.22-1.04-.79-.69-1.19-1.66-1.19-2.89s.77-4.8,2.32-10.71c1.43-5.52,2.14-8.91,2.14-10.18s-.33-2.25-.98-2.95c-.65-.69-1.6-1.04-2.83-1.04-1.79,0-3.62,1.13-5.51,3.39-1.88,2.26-3.44,5.82-4.67,10.66-1.43,5.8-2.5,10.52-3.21,14.17h-5.18c1.94-7.5,3.75-15.26,5.42-23.28.51-2.18.6-3.65.27-4.4s-1.42-1.33-3.24-1.73l.12-.42c3.02.08,6.09.08,9.23,0,.32,0,.42.16.3.48-1.11,3.89-1.87,6.73-2.26,8.51h.12c2.9-6.35,6.39-9.52,10.48-9.52,2.18,0,3.88.59,5.09,1.76,1.21,1.17,1.81,2.75,1.81,4.73,0,1.67-.73,5.18-2.2,10.54-1.59,6.03-2.38,9.6-2.38,10.71s.5,1.61,1.49,1.61c1.35,0,2.6-1.47,3.75-4.41l.48.12Z"/>
    <path class="cls-1" d="m640.7,290.87c-1.99,0-3.51-.48-4.58-1.43-1.07-.95-1.61-2.28-1.61-3.99,0-.91.73-4.6,2.2-11.07,1.39-5.64,2.4-10,3.04-13.1h-4.58l.06-.54c3.1-.55,5.59-1.74,7.47-3.54,1.88-1.81,3.44-4.38,4.67-7.71h.54l-2.98,11.01h7.68l-.18.83h-7.74c-1.03,4.09-2.08,8.47-3.15,13.16-1.43,6.39-2.14,10.1-2.14,11.13,0,2.3,1.01,3.45,3.04,3.45s3.79-1.63,5.54-4.88l.48.3c-1.07,2.14-2.21,3.74-3.42,4.79-1.21,1.05-2.65,1.58-4.32,1.58Z"/>
    <path class="cls-1" d="m661.06,290.87c-2.14,0-3.8-.57-4.97-1.73-1.17-1.15-1.76-2.68-1.76-4.58,0-1.47.77-5.04,2.32-10.72,1.31-5.12,1.98-7.9,2.02-8.33.36-1.75.36-2.87,0-3.36-.36-.5-1.33-.92-2.92-1.28l.12-.42c2.98.08,5.97.08,8.99,0,.28,0,.36.16.24.48-.71,2.34-1.95,6.81-3.69,13.39-1.51,5.83-2.26,9.31-2.26,10.42,0,1.23.34,2.2,1.01,2.92.67.71,1.61,1.07,2.8,1.07,1.75,0,3.52-1.13,5.33-3.39,1.81-2.26,3.32-5.81,4.55-10.66,1.19-4.56,2.34-9.29,3.45-14.17h4.88c-1.47,5.71-3.29,13.53-5.48,23.45-.44,1.98-.66,3.2-.66,3.63,0,1.11.5,1.67,1.49,1.67,1.35,0,2.6-1.47,3.75-4.41l.48.12c-1.19,3.93-3.16,5.89-5.89,5.89-1.47,0-2.6-.34-3.39-1.01-.79-.67-1.19-1.61-1.19-2.8,0-.83.32-2.6.95-5.3h-.12c-2.74,6.07-6.09,9.11-10.06,9.11Z"/>
    <path class="cls-1" d="m693.98,275.98c-1.31,4.88-2.4,9.64-3.27,14.29h-5.18c1.94-7.5,3.75-15.26,5.42-23.28.51-2.18.6-3.65.27-4.4s-1.42-1.33-3.24-1.73l.06-.42c2.98.08,5.99.08,9.05,0,.32,0,.42.16.3.48-.72,2.46-1.51,5.64-2.38,9.52h.18c1.71-3.61,3.35-6.27,4.94-7.98,1.59-1.71,3.33-2.56,5.24-2.56,1.19,0,2.13.34,2.83,1.01s1.04,1.51,1.04,2.5-.28,1.75-.83,2.38c-.56.63-1.29.95-2.2.95-1.51,0-2.38-.77-2.62-2.32-.08-.55-.19-.95-.33-1.19-.14-.24-.43-.36-.86-.36-1.27,0-2.74,1.27-4.41,3.81-1.67,2.54-3,5.64-3.99,9.29Z"/>
    <path class="cls-1" d="m731.6,282c-2.42,5.91-6.17,8.87-11.25,8.87-3.1,0-5.65-1-7.65-3.01-2-2-3.01-4.77-3.01-8.3,0-4.92,1.62-9.43,4.85-13.51,3.23-4.09,6.95-6.13,11.16-6.13,2.22,0,4.08.49,5.57,1.46,1.49.97,2.23,2.31,2.23,4.02,0,5.83-6.05,9.45-18.16,10.83-.16,1.07-.24,2.3-.24,3.69,0,2.9.62,5.14,1.85,6.73,1.23,1.59,2.96,2.38,5.18,2.38,3.77,0,6.75-2.4,8.93-7.2l.54.18Zm-6.01-21.31c-2.26,0-4.37,1.48-6.31,4.43-1.94,2.96-3.21,6.44-3.81,10.45,2.66-.32,4.92-.88,6.79-1.7,1.86-.81,3.25-1.76,4.17-2.83.91-1.07,1.56-2.12,1.93-3.16.38-1.03.57-2.1.57-3.21,0-1.27-.3-2.25-.89-2.95-.6-.69-1.41-1.04-2.44-1.04Z"/>
  </g>
  <polygon class="cls-1" points="809.51 17.24 784.19 33.81 794.48 37.84 769.67 120.84 769.66 120.84 765.04 136.46 739.13 228.46 738.65 228.46 706.09 136.46 692.52 136.46 661.86 228.46 661.38 228.46 634.76 136.46 619.07 136.46 653.54 246.29 668.28 246.29 698.94 156.43 699.43 156.43 732.23 246.29 746.97 246.29 779.3 136.46 783.25 122.95 783.28 122.95 806.95 41.87 818.27 45.87 809.51 17.24"/>
  <g>
    <g>
      <path class="cls-1" d="m533.57,170.45c-.49-.08-.99-.13-1.47-.25-.26-.07-.49-.26-.74-.4.19-.18.35-.44.58-.54,3.17-1.5,6.47-2.61,10-2.77,1.56-.07,3.13.08,4.69.13.02.12.05.25.07.37-.29.16-.57.39-.88.48-4.69,1.29-8.98,3.4-12.94,6.24-5.25,3.75-9.24,8.56-12.24,14.23-2.25,4.26-3.76,8.78-4.54,13.55-.84,5.17-.81,10.32.1,15.47.86,4.86,2.45,9.48,4.81,13.82.6,1.11,1.26,2.2,1.98,3.45-.97-3.09-1.97-5.94-2.74-8.86-.76-2.9-1.27-5.87-.96-8.9.17.1.25.22.27.34.18,1.11.28,2.23.55,3.32.42,1.67.86,3.35,1.49,4.95,1.47,3.73,3.45,7.17,6.09,10.24,4.22,4.92,9.36,8.53,15.32,10.98,5.84,2.4,11.94,3.54,18.27,3.21,1.48-.08,2.94-.28,4.27-.4-2.84-.57-5.79-1.08-8.71-1.75-5.7-1.32-10.61-4.23-15.08-7.88-3.3-2.7-6.06-5.93-8.44-9.49-4.11-6.16-6.71-12.92-7.59-20.25-.48-3.98-.48-8,.26-12.01.88-4.7,2.57-9.01,5.28-12.94,2.53-3.67,5.81-6.53,9.68-8.63,5.34-2.89,11.12-4.32,17.19-4.46,2.77-.06,5.55-.02,8.32.04.98.02,1.96.24,2.95.36.21.03.43.05.66.07-.21-1.13-.88-2.03-1.98-2.9-2.63-2.09-5.72-2.79-8.96-2.98-1.75-.1-3.52.04-5.27-.05-.88-.05-1.82-.2-2.59-.6-3.07-1.58-6.38-2.21-9.75-2.35-3.45-.14-6.81.69-10.07,1.78-5.47,1.83-10.29,4.79-14.67,8.52-5.92,5.04-10.61,10.99-13.59,18.21-.57,1.38-1.05,2.81-1.57,4.21l.25.14c2.07-5.64,5.66-10.21,9.76-14.45.06.18.05.32-.02.42-.57.84-1.14,1.68-1.72,2.52-3.67,5.37-5.53,11.37-6.11,17.79-.49,5.39.46,10.62,2.17,15.7,2.37,7.07,6.32,13.14,11.93,18.09.55.49,1.15.93,1.72,1.39.05-.05.09-.1.14-.16-.55-.67-1.14-1.3-1.63-2.01-3.68-5.24-5.83-11.06-6.84-17.38-.77-4.88-.6-9.72.14-14.55.62-4.06,1.76-8.02,3.44-11.79,2.39-5.38,5.46-10.3,9.7-14.44,2.69-2.63,5.64-4.89,9-6.84Z"/>
      <g class="cls-5">
        <rect class="cls-1" x="501.65" y="163.14" width=".99" height="86.69"/>
        <rect class="cls-1" x="502.64" y="163.14" width=".99" height="86.69"/>
        <rect class="cls-1" x="503.63" y="163.14" width=".99" height="86.69"/>
        <rect class="cls-1" x="504.62" y="163.14" width=".99" height="86.69"/>
        <rect class="cls-1" x="505.61" y="163.14" width=".99" height="86.69"/>
        <rect class="cls-1" x="506.61" y="163.14" width=".99" height="86.69"/>
        <rect class="cls-1" x="507.6" y="163.14" width=".99" height="86.69"/>
        <rect class="cls-1" x="508.59" y="163.14" width=".99" height="86.69"/>
        <rect class="cls-1" x="509.58" y="163.14" width=".99" height="86.69"/>
        <rect class="cls-1" x="510.57" y="163.14" width=".99" height="86.69"/>
        <rect class="cls-1" x="511.57" y="163.14" width=".99" height="86.69"/>
        <rect class="cls-1" x="512.56" y="163.14" width=".99" height="86.69"/>
        <rect class="cls-1" x="513.55" y="163.14" width=".99" height="86.69"/>
        <rect class="cls-1" x="514.54" y="163.14" width=".99" height="86.69"/>
        <rect class="cls-1" x="515.53" y="163.14" width=".99" height="86.69"/>
        <rect class="cls-1" x="516.53" y="163.14" width=".99" height="86.69"/>
        <rect class="cls-1" x="517.52" y="163.14" width=".99" height="86.69"/>
        <rect class="cls-1" x="518.51" y="163.14" width=".99" height="86.69"/>
        <rect class="cls-1" x="519.5" y="163.14" width=".99" height="86.69"/>
        <rect class="cls-1" x="520.49" y="163.14" width=".99" height="86.69"/>
        <rect class="cls-1" x="521.49" y="163.14" width=".99" height="86.69"/>
        <rect class="cls-1" x="522.48" y="163.14" width=".99" height="86.69"/>
        <rect class="cls-1" x="523.47" y="163.14" width=".99" height="86.69"/>
        <rect class="cls-1" x="524.46" y="163.14" width=".99" height="86.69"/>
        <rect class="cls-1" x="525.45" y="163.14" width=".99" height="86.69"/>
        <rect class="cls-1" x="526.45" y="163.14" width=".99" height="86.69"/>
        <rect class="cls-1" x="527.44" y="163.14" width=".99" height="86.69"/>
        <rect class="cls-1" x="528.43" y="163.14" width=".99" height="86.69"/>
        <rect class="cls-1" x="529.42" y="163.14" width=".99" height="86.69"/>
        <rect class="cls-1" x="530.41" y="163.14" width=".99" height="86.69"/>
        <rect class="cls-1" x="531.41" y="163.14" width=".99" height="86.69"/>
        <rect class="cls-1" x="532.4" y="163.14" width=".99" height="86.69"/>
        <rect class="cls-1" x="533.39" y="163.14" width=".99" height="86.69"/>
        <rect class="cls-1" x="534.38" y="163.14" width=".99" height="86.69"/>
        <rect class="cls-1" x="535.37" y="163.14" width=".99" height="86.69"/>
        <rect class="cls-1" x="536.37" y="163.14" width=".99" height="86.69"/>
        <rect class="cls-1" x="537.36" y="163.14" width=".99" height="86.69"/>
        <rect class="cls-1" x="538.35" y="163.14" width=".99" height="86.69"/>
        <rect class="cls-1" x="539.34" y="163.14" width=".99" height="86.69"/>
        <rect class="cls-1" x="540.33" y="163.14" width=".99" height="86.69"/>
        <rect class="cls-1" x="541.33" y="163.14" width=".99" height="86.69"/>
        <rect class="cls-1" x="542.32" y="163.14" width=".99" height="86.69"/>
        <rect class="cls-1" x="543.31" y="163.14" width=".99" height="86.69"/>
        <rect class="cls-1" x="544.3" y="163.14" width=".99" height="86.69"/>
        <rect class="cls-1" x="545.29" y="163.14" width=".99" height="86.69"/>
        <rect class="cls-1" x="546.29" y="163.14" width=".99" height="86.69"/>
        <rect class="cls-1" x="547.28" y="163.14" width=".99" height="86.69"/>
        <rect class="cls-1" x="548.27" y="163.14" width=".99" height="86.69"/>
        <rect class="cls-1" x="549.26" y="163.14" width=".99" height="86.69"/>
        <rect class="cls-1" x="550.25" y="163.14" width=".99" height="86.69"/>
        <rect class="cls-1" x="551.25" y="163.14" width=".99" height="86.69"/>
        <rect class="cls-1" x="552.24" y="163.14" width=".99" height="86.69"/>
        <rect class="cls-1" x="553.23" y="163.14" width=".99" height="86.69"/>
        <rect class="cls-1" x="554.22" y="163.14" width=".99" height="86.69"/>
        <rect class="cls-1" x="555.21" y="163.14" width=".99" height="86.69"/>
        <rect class="cls-1" x="556.21" y="163.14" width=".99" height="86.69"/>
        <rect class="cls-1" x="557.2" y="163.14" width=".99" height="86.69"/>
        <rect class="cls-1" x="558.19" y="163.14" width=".99" height="86.69"/>
        <rect class="cls-1" x="559.18" y="163.14" width=".99" height="86.69"/>
        <rect class="cls-1" x="560.17" y="163.14" width=".99" height="86.69"/>
        <rect class="cls-1" x="561.17" y="163.14" width=".99" height="86.69"/>
        <rect class="cls-1" x="562.16" y="163.14" width=".99" height="86.69"/>
        <rect class="cls-1" x="563.15" y="163.14" width=".99" height="86.69"/>
        <rect class="cls-1" x="564.14" y="163.14" width=".99" height="86.69"/>
        <rect class="cls-1" x="565.13" y="163.14" width=".99" height="86.69"/>
        <rect class="cls-1" x="566.13" y="163.14" width=".99" height="86.69"/>
        <rect class="cls-1" x="567.12" y="163.14" width=".99" height="86.69"/>
        <rect class="cls-1" x="568.11" y="163.14" width=".99" height="86.69"/>
        <rect class="cls-1" x="569.1" y="163.14" width=".99" height="86.69"/>
      </g>
    </g>
    <g>
      <path class="cls-1" d="m544.71,131.04c17.44,2.04,29.62,11.28,36.15,27.39,6.5,16.02,4.34,31.16-6.46,45.11,9.94-5.86,16.05-14.28,18.48-25.34,1.18-5.39,1.29-10.83.28-16.29-1.01-5.44-2.95-10.49-5.9-15.17,2.2,5.32,3.29,10.86,3.54,16.63-1.93-10.79-7.3-19.36-16.38-25.48-9-6.06-18.95-8.21-29.73-6.87Z"/>
      <g class="cls-3">
        <rect class="cls-1" x="544.71" y="129.7" width=".71" height="73.85"/>
        <rect class="cls-1" x="545.42" y="129.7" width=".71" height="73.85"/>
        <rect class="cls-1" x="546.13" y="129.7" width=".71" height="73.85"/>
        <rect class="cls-1" x="546.85" y="129.7" width=".71" height="73.85"/>
        <rect class="cls-1" x="547.56" y="129.7" width=".71" height="73.85"/>
        <rect class="cls-1" x="548.27" y="129.7" width=".71" height="73.85"/>
        <rect class="cls-1" x="548.98" y="129.7" width=".71" height="73.85"/>
        <rect class="cls-1" x="549.7" y="129.7" width=".71" height="73.85"/>
        <rect class="cls-1" x="550.41" y="129.7" width=".71" height="73.85"/>
        <rect class="cls-1" x="551.12" y="129.7" width=".71" height="73.85"/>
        <rect class="cls-1" x="551.83" y="129.7" width=".71" height="73.85"/>
        <rect class="cls-1" x="552.54" y="129.7" width=".71" height="73.85"/>
        <rect class="cls-1" x="553.26" y="129.7" width=".71" height="73.85"/>
        <rect class="cls-1" x="553.97" y="129.7" width=".71" height="73.85"/>
        <rect class="cls-1" x="554.68" y="129.7" width=".71" height="73.85"/>
        <rect class="cls-1" x="555.39" y="129.7" width=".71" height="73.85"/>
        <rect class="cls-1" x="556.11" y="129.7" width=".71" height="73.85"/>
        <rect class="cls-1" x="556.82" y="129.7" width=".71" height="73.85"/>
        <rect class="cls-1" x="557.53" y="129.7" width=".71" height="73.85"/>
        <rect class="cls-1" x="558.24" y="129.7" width=".71" height="73.85"/>
        <rect class="cls-1" x="558.95" y="129.7" width=".71" height="73.85"/>
        <rect class="cls-1" x="559.67" y="129.7" width=".71" height="73.85"/>
        <rect class="cls-1" x="560.38" y="129.7" width=".71" height="73.85"/>
        <rect class="cls-1" x="561.09" y="129.7" width=".71" height="73.85"/>
        <rect class="cls-1" x="561.8" y="129.7" width=".71" height="73.85"/>
        <rect class="cls-1" x="562.52" y="129.7" width=".71" height="73.85"/>
        <rect class="cls-1" x="563.23" y="129.7" width=".71" height="73.85"/>
        <rect class="cls-1" x="563.94" y="129.7" width=".71" height="73.85"/>
        <rect class="cls-1" x="564.65" y="129.7" width=".71" height="73.85"/>
        <rect class="cls-1" x="565.37" y="129.7" width=".71" height="73.85"/>
        <rect class="cls-1" x="566.08" y="129.7" width=".71" height="73.85"/>
        <rect class="cls-1" x="566.79" y="129.7" width=".71" height="73.85"/>
        <rect class="cls-1" x="567.5" y="129.7" width=".71" height="73.85"/>
        <rect class="cls-1" x="568.21" y="129.7" width=".71" height="73.85"/>
        <rect class="cls-1" x="568.93" y="129.7" width=".71" height="73.85"/>
        <rect class="cls-1" x="569.64" y="129.7" width=".71" height="73.85"/>
        <rect class="cls-1" x="570.35" y="129.7" width=".71" height="73.85"/>
        <rect class="cls-1" x="571.06" y="129.7" width=".71" height="73.85"/>
        <rect class="cls-1" x="571.78" y="129.7" width=".71" height="73.85"/>
        <rect class="cls-1" x="572.49" y="129.7" width=".71" height="73.85"/>
        <rect class="cls-1" x="573.2" y="129.7" width=".71" height="73.85"/>
        <rect class="cls-1" x="573.91" y="129.7" width=".71" height="73.85"/>
        <rect class="cls-1" x="574.63" y="129.7" width=".71" height="73.85"/>
        <rect class="cls-1" x="575.34" y="129.7" width=".71" height="73.85"/>
        <rect class="cls-1" x="576.05" y="129.7" width=".71" height="73.85"/>
        <rect class="cls-1" x="576.76" y="129.7" width=".71" height="73.85"/>
        <rect class="cls-1" x="577.47" y="129.7" width=".71" height="73.85"/>
        <rect class="cls-1" x="578.19" y="129.7" width=".71" height="73.85"/>
        <rect class="cls-1" x="578.9" y="129.7" width=".71" height="73.85"/>
        <rect class="cls-1" x="579.61" y="129.7" width=".71" height="73.85"/>
        <rect class="cls-1" x="580.32" y="129.7" width=".71" height="73.85"/>
        <rect class="cls-1" x="581.04" y="129.7" width=".71" height="73.85"/>
        <rect class="cls-1" x="581.75" y="129.7" width=".71" height="73.85"/>
        <rect class="cls-1" x="582.46" y="129.7" width=".71" height="73.85"/>
        <rect class="cls-1" x="583.17" y="129.7" width=".71" height="73.85"/>
        <rect class="cls-1" x="583.88" y="129.7" width=".71" height="73.85"/>
        <rect class="cls-1" x="584.6" y="129.7" width=".71" height="73.85"/>
        <rect class="cls-1" x="585.31" y="129.7" width=".71" height="73.85"/>
        <rect class="cls-1" x="586.02" y="129.7" width=".71" height="73.85"/>
        <rect class="cls-1" x="586.73" y="129.7" width=".71" height="73.85"/>
        <rect class="cls-1" x="587.45" y="129.7" width=".71" height="73.85"/>
        <rect class="cls-1" x="588.16" y="129.7" width=".71" height="73.85"/>
        <rect class="cls-1" x="588.87" y="129.7" width=".71" height="73.85"/>
        <rect class="cls-1" x="589.58" y="129.7" width=".71" height="73.85"/>
        <rect class="cls-1" x="590.3" y="129.7" width=".71" height="73.85"/>
        <rect class="cls-1" x="591.01" y="129.7" width=".71" height="73.85"/>
        <rect class="cls-1" x="591.72" y="129.7" width=".71" height="73.85"/>
        <rect class="cls-1" x="592.43" y="129.7" width=".71" height="73.85"/>
        <rect class="cls-1" x="593.14" y="129.7" width=".71" height="73.85"/>
        <rect class="cls-1" x="593.86" y="129.7" width=".32" height="73.85"/>
      </g>
    </g>
    <g>
      <path class="cls-1" d="m599.17,197.49c-.14-.07-.28-.15-.42-.22,4.24-5.68,6.56-12.06,7.06-19.08.5-7.05-.94-13.71-3.85-20.13-3.42-7.54-10.36-14.42-12.77-15.52,1.25,1.84,2.7,3.8,3.97,5.86,2.98,4.84,4.88,10.12,5.49,15.76.66,6.04.25,12.02-1.49,17.91-1.89,6.41-4.97,12.13-9.25,17.24-4.14,4.94-9.13,8.78-14.97,11.49-4.09,1.9-8.37,3.14-12.88,3.56-.28.03-.55.1-.83.15,0,.09,0,.17,0,.26,1.8.32,3.59.87,5.4.92,3.27.1,6.57.07,9.83-.22,4.1-.37,7.95-1.81,11.61-3.64,4.84-2.42,8.99-5.75,12.52-9.87,3.43-4,6.2-8.36,7.88-13.38.64-1.91,1.25-3.84,1.87-5.76-.08-.04-.16-.08-.24-.11-1.89,5.62-5.22,10.32-8.96,14.78Z"/>
      <g class="cls-2">
        <rect class="cls-1" x="559.23" y="142.53" width=".71" height="73.26"/>
        <rect class="cls-1" x="559.95" y="142.53" width=".71" height="73.26"/>
        <rect class="cls-1" x="560.66" y="142.53" width=".71" height="73.26"/>
        <rect class="cls-1" x="561.37" y="142.53" width=".71" height="73.26"/>
        <rect class="cls-1" x="562.08" y="142.53" width=".71" height="73.26"/>
        <rect class="cls-1" x="562.79" y="142.53" width=".71" height="73.26"/>
        <rect class="cls-1" x="563.51" y="142.53" width=".71" height="73.26"/>
        <rect class="cls-1" x="564.22" y="142.53" width=".71" height="73.26"/>
        <rect class="cls-1" x="564.93" y="142.53" width=".71" height="73.26"/>
        <rect class="cls-1" x="565.64" y="142.53" width=".71" height="73.26"/>
        <rect class="cls-1" x="566.35" y="142.53" width=".71" height="73.26"/>
        <rect class="cls-1" x="567.07" y="142.53" width=".71" height="73.26"/>
        <rect class="cls-1" x="567.78" y="142.53" width=".71" height="73.26"/>
        <rect class="cls-1" x="568.49" y="142.53" width=".71" height="73.26"/>
        <rect class="cls-1" x="569.2" y="142.53" width=".71" height="73.26"/>
        <rect class="cls-1" x="569.92" y="142.53" width=".71" height="73.26"/>
        <rect class="cls-1" x="570.63" y="142.53" width=".71" height="73.26"/>
        <rect class="cls-1" x="571.34" y="142.53" width=".71" height="73.26"/>
        <rect class="cls-1" x="572.05" y="142.53" width=".71" height="73.26"/>
        <rect class="cls-1" x="572.76" y="142.53" width=".71" height="73.26"/>
        <rect class="cls-1" x="573.48" y="142.53" width=".71" height="73.26"/>
        <rect class="cls-1" x="574.19" y="142.53" width=".71" height="73.26"/>
        <rect class="cls-1" x="574.9" y="142.53" width=".71" height="73.26"/>
        <rect class="cls-1" x="575.61" y="142.53" width=".71" height="73.26"/>
        <rect class="cls-1" x="576.32" y="142.53" width=".71" height="73.26"/>
        <rect class="cls-1" x="577.04" y="142.53" width=".71" height="73.26"/>
        <rect class="cls-1" x="577.75" y="142.53" width=".71" height="73.26"/>
        <rect class="cls-1" x="578.46" y="142.53" width=".71" height="73.26"/>
        <rect class="cls-1" x="579.17" y="142.53" width=".71" height="73.26"/>
        <rect class="cls-1" x="579.88" y="142.53" width=".71" height="73.26"/>
        <rect class="cls-1" x="580.6" y="142.53" width=".71" height="73.26"/>
        <rect class="cls-1" x="581.31" y="142.53" width=".71" height="73.26"/>
        <rect class="cls-1" x="582.02" y="142.53" width=".71" height="73.26"/>
        <rect class="cls-1" x="582.73" y="142.53" width=".71" height="73.26"/>
        <rect class="cls-1" x="583.44" y="142.53" width=".71" height="73.26"/>
        <rect class="cls-1" x="584.16" y="142.53" width=".71" height="73.26"/>
        <rect class="cls-1" x="584.87" y="142.53" width=".71" height="73.26"/>
        <rect class="cls-1" x="585.58" y="142.53" width=".71" height="73.26"/>
        <rect class="cls-1" x="586.29" y="142.53" width=".71" height="73.26"/>
        <rect class="cls-1" x="587" y="142.53" width=".71" height="73.26"/>
        <rect class="cls-1" x="587.72" y="142.53" width=".71" height="73.26"/>
        <rect class="cls-1" x="588.43" y="142.53" width=".71" height="73.26"/>
        <rect class="cls-1" x="589.14" y="142.53" width=".71" height="73.26"/>
        <rect class="cls-1" x="589.85" y="142.53" width=".71" height="73.26"/>
        <rect class="cls-1" x="590.56" y="142.53" width=".71" height="73.26"/>
        <rect class="cls-1" x="591.28" y="142.53" width=".71" height="73.26"/>
        <rect class="cls-1" x="591.99" y="142.53" width=".71" height="73.26"/>
        <rect class="cls-1" x="592.7" y="142.53" width=".71" height="73.26"/>
        <rect class="cls-1" x="593.41" y="142.53" width=".71" height="73.26"/>
        <rect class="cls-1" x="594.13" y="142.53" width=".71" height="73.26"/>
        <rect class="cls-1" x="594.84" y="142.53" width=".71" height="73.26"/>
        <rect class="cls-1" x="595.55" y="142.53" width=".71" height="73.26"/>
        <rect class="cls-1" x="596.26" y="142.53" width=".71" height="73.26"/>
        <rect class="cls-1" x="596.97" y="142.53" width=".71" height="73.26"/>
        <rect class="cls-1" x="597.69" y="142.53" width=".71" height="73.26"/>
        <rect class="cls-1" x="598.4" y="142.53" width=".71" height="73.26"/>
        <rect class="cls-1" x="599.11" y="142.53" width=".71" height="73.26"/>
        <rect class="cls-1" x="599.82" y="142.53" width=".71" height="73.26"/>
        <rect class="cls-1" x="600.53" y="142.53" width=".71" height="73.26"/>
        <rect class="cls-1" x="601.25" y="142.53" width=".71" height="73.26"/>
        <rect class="cls-1" x="601.96" y="142.53" width=".71" height="73.26"/>
        <rect class="cls-1" x="602.67" y="142.53" width=".71" height="73.26"/>
        <rect class="cls-1" x="603.38" y="142.53" width=".71" height="73.26"/>
        <rect class="cls-1" x="604.09" y="142.53" width=".71" height="73.26"/>
        <rect class="cls-1" x="604.81" y="142.53" width=".71" height="73.26"/>
        <rect class="cls-1" x="605.52" y="142.53" width=".71" height="73.26"/>
        <rect class="cls-1" x="606.23" y="142.53" width=".71" height="73.26"/>
        <rect class="cls-1" x="606.94" y="142.53" width=".71" height="73.26"/>
        <rect class="cls-1" x="607.65" y="142.53" width=".71" height="73.26"/>
      </g>
    </g>
    <g>
      <path class="cls-1" d="m602.67,226.2c-.13.08-.27.15-.4.23-1.58,1.04-3.13,2.13-4.75,3.11-2.97,1.81-6.17,3.12-9.53,3.98-5.89,1.5-11.86,1.86-17.85.77-6.33-1.15-12.25-3.41-17.68-6.92-5.41-3.49-9.95-7.88-13.43-13.28-4.09-6.36-6.41-13.34-6.73-20.93,0-.23-.06-.47-.12-.88-2.07,5.94-2.76,14.23-.74,21.69,1.94,7.16,5.55,13.36,10.88,18.51,5.17,5,15.36,10.77,18.31,10.65-2.2-1.31-4.71-2.63-7.02-4.24-2.28-1.59-4.6-3.19-6.3-5.47,8.68,6.46,18.3,9.26,29.06,7.62,10.62-1.62,19.43-6.51,26.29-14.85Z"/>
      <g class="cls-6">
        <rect class="cls-1" x="529.43" y="192.28" width=".81" height="50.97"/>
        <rect class="cls-1" x="530.24" y="192.28" width="1.05" height="50.97"/>
        <rect class="cls-1" x="531.29" y="192.28" width="1.05" height="50.97"/>
        <rect class="cls-1" x="532.34" y="192.28" width="1.05" height="50.97"/>
        <rect class="cls-1" x="533.39" y="192.28" width="1.05" height="50.97"/>
        <rect class="cls-1" x="534.44" y="192.28" width="1.05" height="50.97"/>
        <rect class="cls-1" x="535.49" y="192.28" width="1.05" height="50.97"/>
        <rect class="cls-1" x="536.54" y="192.28" width="1.05" height="50.97"/>
        <rect class="cls-1" x="537.59" y="192.28" width="1.05" height="50.97"/>
        <rect class="cls-1" x="538.64" y="192.28" width="1.05" height="50.97"/>
        <rect class="cls-1" x="539.69" y="192.28" width="1.05" height="50.97"/>
        <rect class="cls-1" x="540.74" y="192.28" width="1.05" height="50.97"/>
        <rect class="cls-1" x="541.79" y="192.28" width="1.05" height="50.97"/>
        <rect class="cls-1" x="542.84" y="192.28" width="1.05" height="50.97"/>
        <rect class="cls-1" x="543.89" y="192.28" width="1.05" height="50.97"/>
        <rect class="cls-1" x="544.94" y="192.28" width="1.05" height="50.97"/>
        <rect class="cls-1" x="545.99" y="192.28" width="1.05" height="50.97"/>
        <rect class="cls-1" x="547.04" y="192.28" width="1.05" height="50.97"/>
        <rect class="cls-1" x="548.09" y="192.28" width="1.05" height="50.97"/>
        <rect class="cls-1" x="549.14" y="192.28" width="1.05" height="50.97"/>
        <rect class="cls-1" x="550.19" y="192.28" width="1.05" height="50.97"/>
        <rect class="cls-1" x="551.24" y="192.28" width="1.05" height="50.97"/>
        <rect class="cls-1" x="552.29" y="192.28" width="1.05" height="50.97"/>
        <rect class="cls-1" x="553.34" y="192.28" width="1.05" height="50.97"/>
        <rect class="cls-1" x="554.39" y="192.28" width="1.05" height="50.97"/>
        <rect class="cls-1" x="555.44" y="192.28" width="1.05" height="50.97"/>
        <rect class="cls-1" x="556.49" y="192.28" width="1.05" height="50.97"/>
        <rect class="cls-1" x="557.53" y="192.28" width="1.05" height="50.97"/>
        <rect class="cls-1" x="558.58" y="192.28" width="1.05" height="50.97"/>
        <rect class="cls-1" x="559.63" y="192.28" width="1.05" height="50.97"/>
        <rect class="cls-1" x="560.68" y="192.28" width="1.05" height="50.97"/>
        <rect class="cls-1" x="561.73" y="192.28" width="1.05" height="50.97"/>
        <rect class="cls-1" x="562.78" y="192.28" width="1.05" height="50.97"/>
        <rect class="cls-1" x="563.83" y="192.28" width="1.05" height="50.97"/>
        <rect class="cls-1" x="564.88" y="192.28" width="1.05" height="50.97"/>
        <rect class="cls-1" x="565.93" y="192.28" width="1.05" height="50.97"/>
        <rect class="cls-1" x="566.98" y="192.28" width="1.05" height="50.97"/>
        <rect class="cls-1" x="568.03" y="192.28" width="1.05" height="50.97"/>
        <rect class="cls-1" x="569.08" y="192.28" width="1.05" height="50.97"/>
        <rect class="cls-1" x="570.13" y="192.28" width="1.05" height="50.97"/>
        <rect class="cls-1" x="571.18" y="192.28" width="1.05" height="50.97"/>
        <rect class="cls-1" x="572.23" y="192.28" width="1.05" height="50.97"/>
        <rect class="cls-1" x="573.28" y="192.28" width="1.05" height="50.97"/>
        <rect class="cls-1" x="574.33" y="192.28" width="1.05" height="50.97"/>
        <rect class="cls-1" x="575.38" y="192.28" width="1.05" height="50.97"/>
        <rect class="cls-1" x="576.43" y="192.28" width="1.05" height="50.97"/>
        <rect class="cls-1" x="577.48" y="192.28" width="1.05" height="50.97"/>
        <rect class="cls-1" x="578.53" y="192.28" width="1.05" height="50.97"/>
        <rect class="cls-1" x="579.58" y="192.28" width="1.05" height="50.97"/>
        <rect class="cls-1" x="580.63" y="192.28" width="1.05" height="50.97"/>
        <rect class="cls-1" x="581.68" y="192.28" width="1.05" height="50.97"/>
        <rect class="cls-1" x="582.73" y="192.28" width="1.05" height="50.97"/>
        <rect class="cls-1" x="583.78" y="192.28" width="1.05" height="50.97"/>
        <rect class="cls-1" x="584.83" y="192.28" width="1.05" height="50.97"/>
        <rect class="cls-1" x="585.88" y="192.28" width="1.05" height="50.97"/>
        <rect class="cls-1" x="586.93" y="192.28" width="1.05" height="50.97"/>
        <rect class="cls-1" x="587.98" y="192.28" width="1.05" height="50.97"/>
        <rect class="cls-1" x="589.03" y="192.28" width="1.05" height="50.97"/>
        <rect class="cls-1" x="590.08" y="192.28" width="1.05" height="50.97"/>
        <rect class="cls-1" x="591.13" y="192.28" width="1.05" height="50.97"/>
        <rect class="cls-1" x="592.18" y="192.28" width="1.05" height="50.97"/>
        <rect class="cls-1" x="593.23" y="192.28" width="1.05" height="50.97"/>
        <rect class="cls-1" x="594.28" y="192.28" width="1.05" height="50.97"/>
        <rect class="cls-1" x="595.33" y="192.28" width="1.05" height="50.97"/>
        <rect class="cls-1" x="596.38" y="192.28" width="1.05" height="50.97"/>
        <rect class="cls-1" x="597.43" y="192.28" width="1.05" height="50.97"/>
        <rect class="cls-1" x="598.48" y="192.28" width="1.05" height="50.97"/>
        <rect class="cls-1" x="599.53" y="192.28" width="1.05" height="50.97"/>
        <rect class="cls-1" x="600.57" y="192.28" width="1.05" height="50.97"/>
        <rect class="cls-1" x="601.62" y="192.28" width="1.05" height="50.97"/>
      </g>
    </g>
    <g>
      <path class="cls-1" d="m505.43,154.27c13.77-10.9,28.94-12.8,44.9-6.08,15.95,6.72,25.07,19.05,27.38,36.31,2.68-10.88,1.36-21.19-4.77-30.66-6.38-9.86-15.47-15.94-26.58-18.62,2.41,1.29,5.07,2.64,7.66,4.12,2.39,1.37,6.84,4.88,7.13,5.68-9.13-6.46-19.02-8.92-29.79-6.81-10.62,2.08-19.33,7.41-25.93,16.06Z"/>
      <g class="cls-4">
        <rect class="cls-1" x="505.43" y="135.21" width="1.07" height="49.28"/>
        <rect class="cls-1" x="506.5" y="135.21" width="1.07" height="49.28"/>
        <rect class="cls-1" x="507.57" y="135.21" width="1.07" height="49.28"/>
        <rect class="cls-1" x="508.63" y="135.21" width="1.07" height="49.28"/>
        <rect class="cls-1" x="509.7" y="135.21" width="1.07" height="49.28"/>
        <rect class="cls-1" x="510.77" y="135.21" width="1.07" height="49.28"/>
        <rect class="cls-1" x="511.83" y="135.21" width="1.07" height="49.28"/>
        <rect class="cls-1" x="512.9" y="135.21" width="1.07" height="49.28"/>
        <rect class="cls-1" x="513.97" y="135.21" width="1.07" height="49.28"/>
        <rect class="cls-1" x="515.03" y="135.21" width="1.07" height="49.28"/>
        <rect class="cls-1" x="516.1" y="135.21" width="1.07" height="49.28"/>
        <rect class="cls-1" x="517.17" y="135.21" width="1.07" height="49.28"/>
        <rect class="cls-1" x="518.23" y="135.21" width="1.07" height="49.28"/>
        <rect class="cls-1" x="519.3" y="135.21" width="1.07" height="49.28"/>
        <rect class="cls-1" x="520.37" y="135.21" width="1.07" height="49.28"/>
        <rect class="cls-1" x="521.43" y="135.21" width="1.07" height="49.28"/>
        <rect class="cls-1" x="522.5" y="135.21" width="1.07" height="49.28"/>
        <rect class="cls-1" x="523.57" y="135.21" width="1.07" height="49.28"/>
        <rect class="cls-1" x="524.63" y="135.21" width="1.07" height="49.28"/>
        <rect class="cls-1" x="525.7" y="135.21" width="1.07" height="49.28"/>
        <rect class="cls-1" x="526.77" y="135.21" width="1.07" height="49.28"/>
        <rect class="cls-1" x="527.83" y="135.21" width="1.07" height="49.28"/>
        <rect class="cls-1" x="528.9" y="135.21" width="1.07" height="49.28"/>
        <rect class="cls-1" x="529.97" y="135.21" width="1.07" height="49.28"/>
        <rect class="cls-1" x="531.03" y="135.21" width="1.07" height="49.28"/>
        <rect class="cls-1" x="532.1" y="135.21" width="1.07" height="49.28"/>
        <rect class="cls-1" x="533.17" y="135.21" width="1.07" height="49.28"/>
        <rect class="cls-1" x="534.23" y="135.21" width="1.07" height="49.28"/>
        <rect class="cls-1" x="535.3" y="135.21" width="1.07" height="49.28"/>
        <rect class="cls-1" x="536.37" y="135.21" width="1.07" height="49.28"/>
        <rect class="cls-1" x="537.43" y="135.21" width="1.07" height="49.28"/>
        <rect class="cls-1" x="538.5" y="135.21" width="1.07" height="49.28"/>
        <rect class="cls-1" x="539.57" y="135.21" width="1.07" height="49.28"/>
        <rect class="cls-1" x="540.63" y="135.21" width="1.07" height="49.28"/>
        <rect class="cls-1" x="541.7" y="135.21" width="1.07" height="49.28"/>
        <rect class="cls-1" x="542.77" y="135.21" width="1.07" height="49.28"/>
        <rect class="cls-1" x="543.83" y="135.21" width="1.07" height="49.28"/>
        <rect class="cls-1" x="544.9" y="135.21" width="1.07" height="49.28"/>
        <rect class="cls-1" x="545.97" y="135.21" width="1.07" height="49.28"/>
        <rect class="cls-1" x="547.03" y="135.21" width="1.07" height="49.28"/>
        <rect class="cls-1" x="548.1" y="135.21" width="1.07" height="49.28"/>
        <rect class="cls-1" x="549.17" y="135.21" width="1.07" height="49.28"/>
        <rect class="cls-1" x="550.23" y="135.21" width="1.07" height="49.28"/>
        <rect class="cls-1" x="551.3" y="135.21" width="1.07" height="49.28"/>
        <rect class="cls-1" x="552.37" y="135.21" width="1.07" height="49.28"/>
        <rect class="cls-1" x="553.43" y="135.21" width="1.07" height="49.28"/>
        <rect class="cls-1" x="554.5" y="135.21" width="1.07" height="49.28"/>
        <rect class="cls-1" x="555.57" y="135.21" width="1.07" height="49.28"/>
        <rect class="cls-1" x="556.63" y="135.21" width="1.07" height="49.28"/>
        <rect class="cls-1" x="557.7" y="135.21" width="1.07" height="49.28"/>
        <rect class="cls-1" x="558.77" y="135.21" width="1.07" height="49.28"/>
        <rect class="cls-1" x="559.83" y="135.21" width="1.07" height="49.28"/>
        <rect class="cls-1" x="560.9" y="135.21" width="1.07" height="49.28"/>
        <rect class="cls-1" x="561.97" y="135.21" width="1.07" height="49.28"/>
        <rect class="cls-1" x="563.03" y="135.21" width="1.07" height="49.28"/>
        <rect class="cls-1" x="564.1" y="135.21" width="1.07" height="49.28"/>
        <rect class="cls-1" x="565.17" y="135.21" width="1.07" height="49.28"/>
        <rect class="cls-1" x="566.23" y="135.21" width="1.07" height="49.28"/>
        <rect class="cls-1" x="567.3" y="135.21" width="1.07" height="49.28"/>
        <rect class="cls-1" x="568.37" y="135.21" width="1.07" height="49.28"/>
        <rect class="cls-1" x="569.43" y="135.21" width="1.07" height="49.28"/>
        <rect class="cls-1" x="570.5" y="135.21" width="1.07" height="49.28"/>
        <rect class="cls-1" x="571.57" y="135.21" width="1.07" height="49.28"/>
        <rect class="cls-1" x="572.63" y="135.21" width="1.07" height="49.28"/>
        <rect class="cls-1" x="573.7" y="135.21" width="1.07" height="49.28"/>
        <rect class="cls-1" x="574.77" y="135.21" width="1.07" height="49.28"/>
        <rect class="cls-1" x="575.83" y="135.21" width="1.07" height="49.28"/>
        <rect class="cls-1" x="576.9" y="135.21" width="1.07" height="49.28"/>
        <rect class="cls-1" x="577.97" y="135.21" width="1.07" height="49.28"/>
        <rect class="cls-1" x="579.03" y="135.21" width="1.36" height="49.28"/>
      </g>
    </g>
    <g>
      <path class="cls-1" d="m595.62,223.73c-.03-.08-.06-.16-.1-.25-1.46.44-2.9.93-4.37,1.31-1.45.37-2.92.7-4.4.94-1.51.24-3.03.41-4.55.5-1.48.09-2.98.15-4.59-.16.19-.21.22-.27.26-.28.36-.05.73-.11,1.1-.12,4.35-.15,8.42-1.39,12.33-3.21,7.48-3.5,13.11-8.98,17.14-16.16,2.32-4.14,3.92-8.55,4.82-13.19.71-3.65.86-7.36.65-11.08,0-.16-.09-.32-.13-.49-.62,3.03-1.16,6.06-2.19,8.92-3.29,9.18-9.2,16.32-17.5,21.43-8.92,5.5-18.61,7.82-29.07,6.91-4.86-.42-9.47-1.8-13.87-3.78-4.09-1.85-7.85-4.29-11.06-7.49-.13-.13-.3-.21-.45-.31-.07.05-.13.1-.2.15.86,1.41,1.7,2.83,2.59,4.23,2.99,4.73,6.98,8.5,11.72,11.39,4.4,2.69,9.22,4.38,14.36,5.22,3.93.65,7.85.63,11.77.28,3.58-.32,7.1-1.18,10.47-2.48,1.79-.69,3.52-1.52,5.27-2.29Z"/>
      <g class="cls-7">
        <rect class="cls-1" x="539.44" y="181.54" width="1.08" height="47.32"/>
        <rect class="cls-1" x="540.52" y="181.54" width="1.08" height="47.32"/>
        <rect class="cls-1" x="541.6" y="181.54" width="1.08" height="47.32"/>
        <rect class="cls-1" x="542.68" y="181.54" width="1.08" height="47.32"/>
        <rect class="cls-1" x="543.76" y="181.54" width="1.08" height="47.32"/>
        <rect class="cls-1" x="544.84" y="181.54" width="1.08" height="47.32"/>
        <rect class="cls-1" x="545.92" y="181.54" width="1.08" height="47.32"/>
        <rect class="cls-1" x="547" y="181.54" width="1.08" height="47.32"/>
        <rect class="cls-1" x="548.08" y="181.54" width="1.08" height="47.32"/>
        <rect class="cls-1" x="549.16" y="181.54" width="1.08" height="47.32"/>
        <rect class="cls-1" x="550.24" y="181.54" width="1.08" height="47.32"/>
        <rect class="cls-1" x="551.33" y="181.54" width="1.08" height="47.32"/>
        <rect class="cls-1" x="552.41" y="181.54" width="1.08" height="47.32"/>
        <rect class="cls-1" x="553.49" y="181.54" width="1.08" height="47.32"/>
        <rect class="cls-1" x="554.57" y="181.54" width="1.08" height="47.32"/>
        <rect class="cls-1" x="555.65" y="181.54" width="1.08" height="47.32"/>
        <rect class="cls-1" x="556.73" y="181.54" width="1.08" height="47.32"/>
        <rect class="cls-1" x="557.81" y="181.54" width="1.08" height="47.32"/>
        <rect class="cls-1" x="558.89" y="181.54" width="1.08" height="47.32"/>
        <rect class="cls-1" x="559.97" y="181.54" width="1.08" height="47.32"/>
        <rect class="cls-1" x="561.05" y="181.54" width="1.08" height="47.32"/>
        <rect class="cls-1" x="562.13" y="181.54" width="1.08" height="47.32"/>
        <rect class="cls-1" x="563.21" y="181.54" width="1.08" height="47.32"/>
        <rect class="cls-1" x="564.29" y="181.54" width="1.08" height="47.32"/>
        <rect class="cls-1" x="565.37" y="181.54" width="1.08" height="47.32"/>
        <rect class="cls-1" x="566.45" y="181.54" width="1.08" height="47.32"/>
        <rect class="cls-1" x="567.53" y="181.54" width="1.08" height="47.32"/>
        <rect class="cls-1" x="568.61" y="181.54" width="1.08" height="47.32"/>
        <rect class="cls-1" x="569.69" y="181.54" width="1.08" height="47.32"/>
        <rect class="cls-1" x="570.77" y="181.54" width="1.08" height="47.32"/>
        <rect class="cls-1" x="571.85" y="181.54" width="1.08" height="47.32"/>
        <rect class="cls-1" x="572.93" y="181.54" width="1.08" height="47.32"/>
        <rect class="cls-1" x="574.01" y="181.54" width="1.08" height="47.32"/>
        <rect class="cls-1" x="575.09" y="181.54" width="1.08" height="47.32"/>
        <rect class="cls-1" x="576.17" y="181.54" width="1.08" height="47.32"/>
        <rect class="cls-1" x="577.25" y="181.54" width="1.08" height="47.32"/>
        <rect class="cls-1" x="578.33" y="181.54" width="1.08" height="47.32"/>
        <rect class="cls-1" x="579.41" y="181.54" width="1.08" height="47.32"/>
        <rect class="cls-1" x="580.49" y="181.54" width="1.08" height="47.32"/>
        <rect class="cls-1" x="581.57" y="181.54" width="1.08" height="47.32"/>
        <rect class="cls-1" x="582.65" y="181.54" width="1.08" height="47.32"/>
        <rect class="cls-1" x="583.73" y="181.54" width="1.08" height="47.32"/>
        <rect class="cls-1" x="584.81" y="181.54" width="1.08" height="47.32"/>
        <rect class="cls-1" x="585.89" y="181.54" width="1.08" height="47.32"/>
        <rect class="cls-1" x="586.98" y="181.54" width="1.08" height="47.32"/>
        <rect class="cls-1" x="588.06" y="181.54" width="1.08" height="47.32"/>
        <rect class="cls-1" x="589.14" y="181.54" width="1.08" height="47.32"/>
        <rect class="cls-1" x="590.22" y="181.54" width="1.08" height="47.32"/>
        <rect class="cls-1" x="591.3" y="181.54" width="1.08" height="47.32"/>
        <rect class="cls-1" x="592.38" y="181.54" width="1.08" height="47.32"/>
        <rect class="cls-1" x="593.46" y="181.54" width="1.08" height="47.32"/>
        <rect class="cls-1" x="594.54" y="181.54" width="1.08" height="47.32"/>
        <rect class="cls-1" x="595.62" y="181.54" width="1.08" height="47.32"/>
        <rect class="cls-1" x="596.7" y="181.54" width="1.08" height="47.32"/>
        <rect class="cls-1" x="597.78" y="181.54" width="1.08" height="47.32"/>
        <rect class="cls-1" x="598.86" y="181.54" width="1.08" height="47.32"/>
        <rect class="cls-1" x="599.94" y="181.54" width="1.08" height="47.32"/>
        <rect class="cls-1" x="601.02" y="181.54" width="1.08" height="47.32"/>
        <rect class="cls-1" x="602.1" y="181.54" width="1.08" height="47.32"/>
        <rect class="cls-1" x="603.18" y="181.54" width="1.08" height="47.32"/>
        <rect class="cls-1" x="604.26" y="181.54" width="1.08" height="47.32"/>
        <rect class="cls-1" x="605.34" y="181.54" width="1.08" height="47.32"/>
        <rect class="cls-1" x="606.42" y="181.54" width="1.08" height="47.32"/>
        <rect class="cls-1" x="607.5" y="181.54" width="1.08" height="47.32"/>
        <rect class="cls-1" x="608.58" y="181.54" width="1.08" height="47.32"/>
        <rect class="cls-1" x="609.66" y="181.54" width="1.08" height="47.32"/>
        <rect class="cls-1" x="610.74" y="181.54" width="1.08" height="47.32"/>
        <rect class="cls-1" x="611.82" y="181.54" width="1.08" height="47.32"/>
        <rect class="cls-1" x="612.9" y="181.54" width="1.08" height="47.32"/>
        <rect class="cls-1" x="613.98" y="181.54" width=".13" height="47.32"/>
      </g>
    </g>
  </g>
  <path class="cls-1" d="m744.39,290.42c-2.71,0-4.96-.52-6.76-1.57s-2.7-2.46-2.7-4.24c0-.97.26-1.76.78-2.38s1.21-.93,2.06-.93c.77,0,1.4.21,1.89.64.48.43.73.95.73,1.57,0,.58-.22,1.19-.67,1.83-.45.64-.65,1.15-.61,1.54.19,1.86,2.03,2.79,5.51,2.79,1.94,0,3.52-.58,4.76-1.74,1.24-1.16,1.86-2.57,1.86-4.24,0-1.32-.38-2.38-1.13-3.19-.75-.81-2.08-1.84-3.98-3.08-2.59-1.74-4.42-3.22-5.49-4.44-1.06-1.22-1.6-2.76-1.6-4.62,0-2.4,1-4.35,2.99-5.86,1.99-1.51,4.48-2.26,7.46-2.26,2.32,0,4.35.51,6.09,1.54,1.74,1.03,2.61,2.35,2.61,3.98,0,.97-.26,1.76-.78,2.38s-1.21.93-2.06.93c-.78,0-1.4-.22-1.89-.67-.48-.44-.73-1.02-.73-1.71,0-.54.21-1.13.64-1.77.42-.64.62-1.15.58-1.54-.19-1.59-1.74-2.38-4.64-2.38-1.7,0-3.15.49-4.35,1.48-1.2.99-1.8,2.35-1.8,4.09,0,1.32.4,2.4,1.19,3.25.79.85,2.27,1.99,4.44,3.43,2.48,1.62,4.22,3.07,5.22,4.32,1.01,1.26,1.51,2.66,1.51,4.21,0,2.52-1.04,4.59-3.11,6.21-2.07,1.62-4.75,2.44-8.04,2.44Z"/>
</svg>