<?xml version="1.0" encoding="UTF-8"?>
<!DOCTYPE svg PUBLIC "-//W3C//DTD SVG 1.1//EN" "http://www.w3.org/Graphics/SVG/1.1/DTD/svg11.dtd">
<!-- Creator: CorelDRAW X8 -->
<svg xmlns="http://www.w3.org/2000/svg" xml:space="preserve" width="434.975mm" height="464.896mm" version="1.1" style="shape-rendering:geometricPrecision; text-rendering:geometricPrecision; image-rendering:optimizeQuality; fill-rule:evenodd; clip-rule:evenodd"
viewBox="0 0 43498 46490"
 xmlns:xlink="http://www.w3.org/1999/xlink">
 <defs>
  <style type="text/css">
   <![CDATA[
    .fil0 {fill:#C29216}
   ]]>
  </style>
 </defs>
 <g id="Layer_x0020_1">
  <metadata id="CorelCorpID_0Corel-Layer"/>
  <g id="_1715611745680">
  </g>
  <g id="_1715538231248">
  </g>
  <g id="_1715538230192">
  </g>
  <g id="_1715538231504">
  </g>
  <g id="_1715538231376">
  </g>
  <g id="_1715538229456">
  </g>
  <g id="_1715538228336">
  </g>
  <g id="_1715538228944">
  </g>
  <g id="_1715538229808">
  </g>
  <g id="_1715538227056">
  </g>
  <g id="_1715538226864">
  </g>
  <g id="_1715538224240">
  </g>
  <g id="_1715538224784">
  </g>
  <g id="_1715538225744">
  </g>
  <g id="_1715538225200">
  </g>
  <g id="_1715538235760">
   <path class="fil0" d="M8614 43301l13915 0 0 1546 -13915 0 0 -1546zm14881 -3382c-1571,0 -2077,-2609 193,-2609 1470,0 1562,2609 -193,2609zm-16041 -2609l387 0c1469,0 1561,2609 -194,2609 -1755,0 -1663,-2609 -193,-2609zm870 -9470l14398 0 2416 6087 -19230 0 2416 -6087zm22129 -1643c-471,0 -773,-126 -773,-677l0 -7730c0,-468 305,-773 773,-773 2517,0 4823,-435 5865,1768 582,1229 203,2662 -570,3430 -1829,1817 -4425,238 -4620,1178 -186,896 506,2804 -675,2804zm-6378 -5798c0,2806 590,4449 2295,6402l1029 903c1158,878 2853,1682 4407,1682l0 15461 -4639 0 0 -1933c719,-167 1546,-942 1546,-1836l0 -4928c0,-1450 -1487,-1674 -1773,-2092l-2795 -6965c-222,-576 -368,-896 -1133,-896l-15075 0c-625,0 -818,433 -1009,923l-2754 6909c-316,643 -1745,648 -1745,2121l0 4928c0,928 792,1661 1546,1836l0 1933 -3189 0c-1007,0 -1186,1643 290,1643l35078 0c1690,0 1183,-1643 483,-1643l-3285 0 0 -15461c2677,0 5046,-1888 6378,-3768 3509,-4951 342,-13240 -7345,-13240 -2356,0 -4539,1193 -5726,2392 -727,735 -1237,1387 -1716,2342 -411,820 -868,2060 -868,3287z"/>
   <path class="fil0" d="M21659 3488c0,381 482,870 870,870 129,0 1700,-858 1996,-1000 4801,-2312 11136,-2233 15976,-62 348,156 660,330 1032,514 719,355 746,548 1095,548 431,0 870,-391 870,-773 0,-633 -409,-694 -837,-903 -1424,-696 -1890,-1021 -3692,-1622 -4233,-1411 -8531,-1416 -12781,0 -2217,739 -2069,851 -3625,1592 -401,191 -904,301 -904,836z"/>
   <path class="fil0" d="M23302 6194c0,698 280,773 870,773 292,0 1158,-536 1641,-775 4013,-1979 9390,-1932 13466,-31 325,152 490,178 798,362 662,395 543,444 1102,444 551,0 676,-302 676,-773 0,-939 -2896,-1916 -3708,-2187 -4614,-1539 -9983,-1098 -14167,1319 -374,215 -678,428 -678,868z"/>
   <path class="fil0" d="M25621 9673c701,0 6245,-4003 13141,-289 1591,857 2078,-681 1162,-1259 -217,-137 -563,-279 -839,-417 -4321,-2172 -9620,-1986 -13790,382 -837,476 -571,1583 326,1583z"/>
   <path class="fil0" d="M27071 12282c803,0 1151,-520 2318,-870 2267,-681 4125,-671 6379,0 370,110 685,244 1031,418 556,278 688,452 1288,452 469,0 966,-905 347,-1410 -563,-458 -2719,-1184 -3591,-1338l-2264 -254 -2182 240c-730,137 -1340,323 -1960,553 -398,148 -1338,537 -1657,759 -700,486 -199,1450 291,1450z"/>
   <path class="fil0" d="M31129 18756l0 2899c2295,0 3962,396 3962,-1836 0,-759 -845,-1353 -1836,-1353 -1302,0 -2126,-194 -2126,290z"/>
  </g>
 </g>
</svg>
