<?xml version="1.0" encoding="UTF-8"?>
<!DOCTYPE svg PUBLIC "-//W3C//DTD SVG 1.1//EN" "http://www.w3.org/Graphics/SVG/1.1/DTD/svg11.dtd">
<!-- Creator: CorelDRAW X8 -->
<svg xmlns="http://www.w3.org/2000/svg" xml:space="preserve" width="136.703mm" height="169.85mm" version="1.1" style="shape-rendering:geometricPrecision; text-rendering:geometricPrecision; image-rendering:optimizeQuality; fill-rule:evenodd; clip-rule:evenodd"
viewBox="0 0 13670 16985"
 xmlns:xlink="http://www.w3.org/1999/xlink">
 <defs>
  <style type="text/css">
   <![CDATA[
    .fil0 {fill:#C29216}
   ]]>
  </style>
 </defs>
 <g id="Layer_x0020_1">
  <metadata id="CorelCorpID_0Corel-Layer"/>
  <g id="_1715538225968">
   <path class="fil0" d="M3584 8360l-72 -18 72 18zm-2768 8624l-40 0c-62,-4 -128,-28 -199,-77 -491,-341 228,-781 386,-1017 -89,-133 -290,-279 -550,-710 -145,-240 -281,-581 -343,-885 -197,-962 33,-1780 533,-2448 709,-948 1910,-1405 3080,-1132 -11,-136 -508,-1288 -564,-1393 -559,0 -1579,174 -1595,-565 -17,-795 938,-596 1529,-596l-146 -87c-737,-306 -998,-964 -685,-1573 127,-248 848,-1301 1062,-1659l1435 -2214c308,-334 870,-456 1313,-167l1058 767c338,253 829,509 839,985 -154,-81 -1325,-621 -1426,-630l1142 948c271,211 411,417 627,361l1568 -492c161,-54 659,-219 803,-211 287,16 504,184 614,412 135,280 24,623 -135,782 -208,209 -1927,664 -2326,791 -1058,337 -929,371 -2051,-578 -195,-165 -363,-303 -563,-464 -201,-162 -366,-315 -575,-454 24,87 84,145 139,225l1055 1466c-115,219 -266,397 -398,598 -92,140 -351,439 -365,597 111,25 266,97 384,146 368,155 1238,480 1432,692 366,398 149,880 38,1214 -349,1046 -705,2114 -1053,3160 -91,272 -157,533 -316,746 -320,429 -1066,429 -1371,-129 -160,-293 -104,-522 -5,-816l1057 -3156c-104,-24 -244,-91 -336,-128 -119,-47 -221,-89 -328,-136l-1956 -797c93,140 1066,787 1161,929 -186,15 -328,33 -564,33 57,244 208,533 298,763 415,1051 458,662 170,1563 -45,143 -76,260 -124,406 -37,112 -103,312 -112,419 -116,-31 -140,-92 -223,-175 -505,-499 -1361,-573 -2033,-224 -598,311 -1151,1126 -867,2096 139,473 351,653 643,916 206,184 760,421 1172,359 291,-43 421,-53 645,-152 151,-67 342,-193 456,-306 540,-537 414,-625 572,-955 181,122 290,246 520,343 648,272 1412,42 1783,-495 368,-531 682,-1985 915,-2468l3051 398c-61,-263 -112,-524 -168,-794l-504 -2349c-99,-506 -227,-1031 -331,-1559 -125,-630 -197,-543 92,-621 245,-66 477,-162 712,-217l146 684c53,231 88,428 139,657 232,1042 464,2295 704,3310 52,222 88,442 139,656 138,578 9,342 319,511 689,377 1095,1303 794,2161 -30,84 -84,205 -124,274 -243,414 -604,749 -1122,869 316,471 1072,867 1028,1256 -21,186 -190,366 -422,332 -350,-52 -1350,-1399 -1567,-1455l-1162 199c-1630,271 -2999,504 -4638,735 -925,131 -2376,384 -3235,-26 -84,-40 -148,-74 -220,-112 -323,216 -527,644 -811,663zm4791 -12306l-33 -33 33 33zm-33 -33l0 0zm929 -1062l0 0z"/>
   <path class="fil0" d="M8228 3052c704,0 1201,-352 1460,-928 435,-971 -311,-2051 -1297,-2124l-208 0c-170,13 -344,55 -519,133 -335,150 -611,412 -773,753 -83,175 -129,371 -137,616 -29,824 669,1550 1474,1550z"/>
   <path class="fil0" d="M11976 4545c6,257 103,421 -56,839 -50,129 -147,246 -176,355l1593 -762c530,-259 403,-930 -200,-930 -198,0 -950,481 -1161,498z"/>
  </g>
 </g>
</svg>
