<?xml version="1.0" encoding="UTF-8"?>
<!DOCTYPE svg PUBLIC "-//W3C//DTD SVG 1.1//EN" "http://www.w3.org/Graphics/SVG/1.1/DTD/svg11.dtd">
<!-- Creator: CorelDRAW X8 -->
<svg xmlns="http://www.w3.org/2000/svg" xml:space="preserve" width="199.695mm" height="199.898mm" version="1.1" style="shape-rendering:geometricPrecision; text-rendering:geometricPrecision; image-rendering:optimizeQuality; fill-rule:evenodd; clip-rule:evenodd"
viewBox="0 0 19969 19990"
 xmlns:xlink="http://www.w3.org/1999/xlink">
 <defs>
  <style type="text/css">
   <![CDATA[
    .fil0 {fill:#C29216}
   ]]>
  </style>
 </defs>
 <g id="Layer_x0020_1">
  <metadata id="CorelCorpID_0Corel-Layer"/>
  <g id="_1715534682432">
   <path class="fil0" d="M1637 10338c0,-1735 139,-2507 783,-4015 352,-826 1119,-1809 1743,-2426l1152 -905c818,-547 1961,-1021 2962,-1207 1269,-235 2520,-199 3731,66 840,184 1508,486 2214,871 793,431 1041,696 1628,1228l144 140c1509,1632 2396,3511 2361,5913 -33,2254 -794,4315 -2339,5861 -1371,1370 -2876,2139 -4838,2416 -1738,246 -3677,-93 -5144,-859 -197,-103 -452,-247 -652,-377 -229,-150 -388,-276 -596,-431 -779,-580 -1464,-1379 -1961,-2209 -421,-703 -723,-1408 -926,-2215 -138,-544 -262,-1207 -262,-1851zm8339 9652c761,0 1544,-115 2193,-263 725,-165 1274,-400 1870,-642 307,-125 518,-268 792,-408 243,-125 534,-321 767,-490 272,-198 471,-348 718,-538l708 -663c31,-31 53,-57 82,-89 826,-912 1382,-1564 1932,-2751 1193,-2572 1290,-5727 1,-8302 -498,-993 -796,-1431 -1458,-2255 -103,-128 -193,-197 -310,-318 -138,-143 -153,-222 -286,-342l-636 -564c-1868,-1459 -3732,-2365 -6373,-2365 -8787,0 -14239,11650 -5680,18130 1453,1100 3716,1860 5680,1860z"/>
   <path class="fil0" d="M6663 7425c-285,151 -641,439 -871,671 -838,843 -1395,1877 -1473,3211 -100,1721 523,3199 1878,4294 2185,1767 5437,1382 7092,-807 103,-135 255,-322 340,-460l516 -1084c-189,-100 -352,-135 -596,-203 -201,-57 -515,-126 -661,-196 -345,516 -399,1045 -1222,1690 -1091,855 -2598,1105 -3862,481 -1328,-656 -2169,-1830 -2169,-3371 0,-1585 836,-2534 1999,-3312 167,250 524,552 757,785 1102,1102 842,958 842,-2842 0,-333 -658,-99 -1298,-187 -178,-24 -2004,-113 -2273,46 -245,145 701,836 1001,1284z"/>
   <path class="fil0" d="M10318 7196c573,0 947,57 1542,57l-583 1987c-38,138 -156,573 -216,698 269,-72 3228,-2853 3726,-3356 99,-100 159,-167 265,-249 145,-113 180,-72 235,-279l-2056 0c22,-268 1055,-2310 1314,-2799 -268,72 -505,452 -786,699l-2927 2728c-189,145 -380,315 -514,514z"/>
   <path class="fil0" d="M10490 11480l0 800 -572 0c109,-205 400,-685 572,-800zm-1143 914l0 400 1143 0 0 571 628 0 0 -571 343 0 0 -514 -343 0 0 -1714c0,-210 -122,-171 -400,-171 -156,0 -233,179 -389,410l-687 1026c-113,151 -295,327 -295,563z"/>
   <path class="fil0" d="M7177 11309c225,18 268,57 571,57 176,-757 743,-376 743,-115 0,427 -512,769 -758,1013 -584,582 -464,671 -670,1101 361,0 723,0 1085,0 1033,0 971,113 971,-400 0,-293 -256,-126 -455,-122 -169,3 -357,-49 -630,-49 451,-674 1028,-639 1028,-1657 0,-936 -1885,-1039 -1885,172z"/>
   <path class="fil0" d="M13174 10966l-57 1028c204,98 675,191 959,250 270,56 304,124 359,-187 95,-532 36,-742 -15,-1261 -402,-1 -835,161 -1246,170z"/>
  </g>
 </g>
</svg>
