<?xml version="1.0" encoding="UTF-8"?>
<!DOCTYPE svg PUBLIC "-//W3C//DTD SVG 1.1//EN" "http://www.w3.org/Graphics/SVG/1.1/DTD/svg11.dtd">
<!-- Creator: CorelDRAW X8 -->
<svg xmlns="http://www.w3.org/2000/svg" xml:space="preserve" width="372.415mm" height="377.673mm" version="1.1" style="shape-rendering:geometricPrecision; text-rendering:geometricPrecision; image-rendering:optimizeQuality; fill-rule:evenodd; clip-rule:evenodd"
viewBox="0 0 37241 37767"
 xmlns:xlink="http://www.w3.org/1999/xlink">
 <defs>
  <style type="text/css">
   <![CDATA[
    .fil0 {fill:#C29216}
   ]]>
  </style>
 </defs>
 <g id="Layer_x0020_1">
  <metadata id="CorelCorpID_0Corel-Layer"/>
  <g id="_1715538234992">
   <path class="fil0" d="M19741 37767c1442,0 2018,-181 3173,-755 609,-302 1512,-1038 2063,-1488 1652,-1349 2846,-2017 2846,-4782 0,-2279 -2157,-4456 -4683,-4456 -2166,0 -3224,1390 -4532,2266 -190,-284 -1091,-1001 -1417,-1302 -472,-437 -947,-929 -1398,-1397l-3787 -4597 -1117 -1678c-287,-448 -1906,-3057 -2024,-3565 130,-195 1260,-1042 1609,-1336 1772,-1489 2215,-3762 1211,-5789 -1226,-2475 -4640,-3356 -6857,-1669 -369,280 -678,525 -1023,789 -360,274 -702,559 -1058,831 -1486,1135 -2547,2593 -2718,4608 -93,1098 37,2167 424,3047 215,487 359,767 617,1196 242,405 455,785 709,1179 1024,1584 1814,2896 2932,4471 1904,2683 2998,3945 4790,6237 268,344 575,626 842,971l2165 2442c156,169 289,288 454,453 642,641 1174,1246 1813,1888 1371,1375 2813,2436 4966,2436z"/>
   <path class="fil0" d="M8034 5212c926,0 1841,523 2190,604 177,-118 277,-241 453,-378 2962,-2308 5781,-3474 9895,-3474 6403,0 11993,4446 13945,10301 1600,4796 557,10291 -2522,14038 -358,436 -1053,1271 -1441,1580 -310,247 -502,437 -819,693 -226,183 -671,586 -930,656 0,569 391,1690 151,2190 870,-72 3919,-2998 4705,-4057 555,-747 974,-1283 1414,-2136 2166,-4201 2802,-8377 1479,-13037 -2002,-7053 -8741,-12192 -16057,-12192 -4213,0 -8262,1407 -11349,4136l-1114 1076z"/>
   <path class="fil0" d="M26917 13974l0 3928 -2417 0c24,-296 345,-670 574,-1012l1751 -2781c92,-161 19,-51 92,-135zm-76 -2266l-3021 4910c-1234,1866 -996,1485 -906,2568l4003 0 0 2115 1586 0 0 -2115 1209 0 0 -1284c-822,0 -1209,115 -1209,-227l0 -5967c-443,0 -429,-60 -773,-23 -301,32 -583,23 -889,23z"/>
   <path class="fil0" d="M15511 14125l0 378 1511 0c200,-856 263,-1662 1662,-1662 1003,0 1397,915 1177,1855 -242,1031 -2305,3364 -3161,4243 -180,186 -205,269 -377,454 -922,992 -736,689 -736,1908l6269 0 0 -1284 -4154 0c72,-271 1825,-2159 2173,-2586 373,-457 705,-873 1041,-1375 1508,-2250 122,-4499 -2081,-4499l-604 0c-1353,0 -2720,1212 -2720,2568z"/>
  </g>
 </g>
</svg>
