<?xml version="1.0" encoding="UTF-8"?>
<!DOCTYPE svg PUBLIC "-//W3C//DTD SVG 1.1//EN" "http://www.w3.org/Graphics/SVG/1.1/DTD/svg11.dtd">
<!-- Creator: CorelDRAW X8 -->
<svg xmlns="http://www.w3.org/2000/svg" xml:space="preserve" width="181.066mm" height="136.648mm" version="1.1" style="shape-rendering:geometricPrecision; text-rendering:geometricPrecision; image-rendering:optimizeQuality; fill-rule:evenodd; clip-rule:evenodd"
viewBox="0 0 18107 13665"
 xmlns:xlink="http://www.w3.org/1999/xlink">
 <defs>
  <style type="text/css">
   <![CDATA[
    .fil0 {fill:#C29216}
   ]]>
  </style>
 </defs>
 <g id="Layer_x0020_1">
  <metadata id="CorelCorpID_0Corel-Layer"/>
  <g id="_1447181105264">
   <path class="fil0" d="M1554 1735c0,599 97,1066 688,1372 431,224 1346,110 2059,110 928,0 2153,205 3000,541 117,47 269,135 397,145 -38,142 -883,698 -1012,795l-3180 2313c174,363 13,427 568,986 617,620 1433,572 2164,85 873,-582 1565,-1467 2673,-1631 1167,-171 3349,1645 4100,1645 213,0 470,-224 470,-506 0,-308 -246,-855 -400,-1119 -61,-106 -117,-216 -180,-325 -551,-953 -1746,-2971 -2559,-3622 -195,-155 -357,-295 -569,-443 -551,-382 -1488,-836 -2103,-1005 -1368,-373 -2061,-534 -3658,-534 -900,0 -1687,-18 -2178,533 -119,133 -280,424 -280,660z"/>
   <path class="fil0" d="M0 11493c1674,0 2154,972 3526,1786 1210,718 2760,382 3711,-585l415 -380c820,-826 2050,-1097 3005,-383 247,185 378,379 660,604 476,379 393,491 1261,873 351,155 935,253 1445,253 1693,0 2083,-791 2737,-1527 334,-376 603,-605 1347,-605l0 -1229c-2261,0 -2228,1735 -3361,2061 -452,130 -962,139 -1423,13 -422,-116 -636,-294 -922,-525l-320 -294c-94,-90 -143,-107 -237,-197 -729,-703 -1339,-1058 -2447,-1058 -503,0 -1005,123 -1338,289 -1195,593 -1586,1427 -2347,1736 -730,296 -1355,97 -1953,-326 -1148,-812 -1822,-1699 -3759,-1699l0 1193z"/>
   <path class="fil0" d="M0 8601c1437,0 1992,706 2973,1436 1401,1042 3063,987 4264,-234l631 -562c841,-708 1932,-842 2789,-201l880 818c629,624 1572,912 2486,912 1043,0 1694,-354 2214,-894 569,-591 694,-1238 1870,-1238l0 -1193c-566,0 -927,83 -1338,289 -1085,545 -1154,1501 -2051,1743 -749,203 -1614,82 -2203,-416l-671 -594c-729,-703 -1339,-1058 -2447,-1058 -843,0 -1470,286 -2076,743 -105,79 -144,125 -237,196 -726,559 -1633,1984 -3346,744l-991 -780c-757,-547 -1505,-903 -2747,-903l0 1192z"/>
   <path class="fil0" d="M12360 2421l0 398c0,1183 1238,2421 2422,2421 533,0 856,-14 1338,-252 2479,-1220 1623,-4988 -1158,-4988 -728,0 -1412,343 -1780,713 -430,433 -822,1025 -822,1708z"/>
  </g>
 </g>
</svg>
