<?xml version="1.0" encoding="UTF-8"?>
<svg id="Layer_3" data-name="Layer 3" xmlns="http://www.w3.org/2000/svg" xmlns:xlink="http://www.w3.org/1999/xlink" viewBox="0 0 359.58 287.09">
  <defs>
    <style>
      .cls-1 {
        fill: #a4a1a1;
      }

      .cls-1, .cls-2, .cls-3, .cls-4, .cls-5, .cls-6, .cls-7, .cls-8, .cls-9, .cls-10, .cls-11 {
        stroke: #263238;
      }

      .cls-1, .cls-4, .cls-5, .cls-6, .cls-7, .cls-8, .cls-9, .cls-10 {
        stroke-linecap: round;
        stroke-linejoin: round;
      }

      .cls-2, .cls-12, .cls-8, .cls-13 {
        fill: #fff;
      }

      .cls-2, .cls-3, .cls-11 {
        stroke-miterlimit: 10;
      }

      .cls-14, .cls-5 {
        fill: #9bd2a5;
      }

      .cls-3, .cls-10, .cls-15 {
        fill: #263238;
      }

      .cls-4, .cls-11 {
        fill: #747696;
      }

      .cls-16, .cls-17 {
        fill: #dbdbee;
      }

      .cls-18 {
        fill: #6d71ad;
      }

      .cls-6 {
        fill: #b5b6d7;
      }

      .cls-7 {
        fill: #757272;
      }

      .cls-19 {
        opacity: .15;
      }

      .cls-20 {
        clip-path: url(#clippath);
      }

      .cls-9 {
        fill: none;
      }

      .cls-17 {
        opacity: .7;
      }

      .cls-13 {
        opacity: .58;
      }
    </style>
    <clipPath id="clippath">
      <path class="cls-8" d="m34.77,123.92c1.86-.21,3.76.16,5.36,1.14.97.59,1.98,1.43,2.68,2.58,1.74,2.88.38,4.53,1.5,5.71s1.97,1.68,1.79,2.54-1.54,1.52-1.74,1.67c-.2.15.38,2.9-.07,4.38-.45,1.48-4.1,1.44-4.1,1.44,0,0-.42,2.7-.52,3.59-.1.89.73,7.7-2.96,5.6-3.7-2.1-5.83-4.18-6.05-5.06-.22-.89.96-3.63,1-4.5.05-.86.08-1.27-.36-1.87s-3.5-2.57-4.91-6.1.05-8.02,3.64-9.77c1.68-.82,3.4-1.19,4.74-1.34Z"/>
    </clipPath>
  </defs>
  <g>
    <path class="cls-16" d="m333.81,178.75c-10.34-20.69-23.09-39.68-37.83-56.44-15.9-18.08-32.11-30.31-53.02-38.22-14.16-5.36-28.93-8.42-43.76-8.99-27.59-1.06-50.34,6.4-73,25.22-24.29,20.18-46.96,43.02-70.63,64.21-2.47,2.21-4.95,4.41-7.45,6.58C6.82,207.12-13.23,271.07,14.69,286.7h321.28s29.22-1.75,22.02-37.42c-5.04-24.97-13.27-48.69-24.19-70.53Z"/>
    <path class="cls-17" d="m333.81,118.75c-10.34-20.69-23.09-39.68-37.83-56.44-15.9-18.08-32.11-30.31-53.02-38.22-14.16-5.36-28.93-8.42-43.76-8.99-27.59-1.06-50.34,6.4-73,25.22-24.29,20.18-46.96,43.02-70.63,64.21-2.47,2.21-4.95,4.41-7.45,6.58C6.82,147.12-13.23,271.07,14.69,286.7h321.28s29.22-1.75,22.02-37.42c-5.04-24.97-13.27-108.69-24.19-130.53Z"/>
  </g>
  <line class="cls-9" x1="359.08" y1="272.58" x2=".84" y2="272.58"/>
  <polyline class="cls-9" points=".5 226.77 13.58 226.77 13.58 210.35 23.58 210.35 23.58 216.51 33.59 216.51 33.59 205.73 56.67 205.73 56.67 215.48 77.45 215.48 77.45 202.66 94.38 202.66 94.38 214.97 111.21 214.97 111.21 187.78 121.31 187.78 121.31 199.07 129.77 199.07 129.77 183.16 150.55 183.16 150.55 216.51 178.25 216.51 178.25 194.45 195.95 194.45 195.95 207.27 211.34 207.27 211.34 190.35 238.27 190.35 238.27 208.81 252.12 208.81 252.12 198.04 262.89 198.04 262.89 205.22 273.67 205.22 273.67 196.5 279.82 196.5 279.82 187.78 289.06 187.78 289.06 212.55 297.49 212.55 297.49 206.25 299.83 206.25 299.83 220.1 313.68 220.1 313.68 201.12 323.68 201.12 323.68 210.35 329.84 210.35 329.84 220.1 335.99 220.1 335.99 206.76 340.61 206.76 340.61 226.77 359.08 226.77"/>
  <g>
    <polygon class="cls-10" points="220.06 191.45 220.06 165.98 180.08 165.98 180.08 191.45 151.94 191.45 151.94 272.58 180.08 272.58 220.06 272.58 248.2 272.58 248.2 191.45 220.06 191.45"/>
    <g>
      <polygon class="cls-6" points="203.19 105.59 196.22 105.59 192.74 192.3 206.67 192.3 203.19 105.59"/>
      <path class="cls-2" d="m203.14,106.36h-6.88c-.41,0-.75-.33-.75-.75h0c0-.41.33-.75.75-.75h6.88c.41,0,.75.33.75.75h0c0,.41-.33.75-.75.75Z"/>
      <g>
        <polygon class="cls-2" points="196.06 109.57 195.94 112.7 203.47 112.7 203.35 109.57 196.06 109.57"/>
        <polygon class="cls-2" points="206.19 180.36 206.06 177.23 193.34 177.23 193.22 180.36 206.19 180.36"/>
        <polygon class="cls-2" points="194.12 157.9 194 161.03 205.41 161.03 205.29 157.9 194.12 157.9"/>
        <polygon class="cls-2" points="193.73 167.57 193.61 170.69 205.8 170.69 205.68 167.57 193.73 167.57"/>
        <polygon class="cls-2" points="194.51 148.23 194.38 151.36 205.02 151.36 204.9 148.23 194.51 148.23"/>
        <polygon class="cls-2" points="195.67 119.24 195.55 122.37 203.86 122.37 203.73 119.24 195.67 119.24"/>
        <polygon class="cls-2" points="194.9 138.57 194.77 141.7 204.64 141.7 204.51 138.57 194.9 138.57"/>
        <polygon class="cls-2" points="195.29 128.9 195.16 132.03 204.25 132.03 204.12 128.9 195.29 128.9"/>
      </g>
    </g>
    <polygon class="cls-6" points="260.05 191.45 260.05 165.98 220.06 165.98 220.06 191.45 191.93 191.45 191.93 272.58 220.06 272.58 260.05 272.58 288.19 272.58 288.19 191.45 260.05 191.45"/>
    <path class="cls-10" d="m212.22,227.41h-10.69v-17.09c0-2.95,2.39-5.34,5.34-5.34h0c2.95,0,5.34,2.39,5.34,5.34v17.09Z"/>
    <path class="cls-10" d="m229.69,227.41h-10.69v-17.09c0-2.95,2.39-5.34,5.34-5.34h0c2.95,0,5.34,2.39,5.34,5.34v17.09Z"/>
    <path class="cls-10" d="m241.81,204.97h0c2.95,0,5.34,2.39,5.34,5.34v17.09h-10.69v-17.09c0-2.95,2.39-5.34,5.34-5.34Z"/>
    <path class="cls-10" d="m264.62,227.41h-10.69v-17.09c0-2.95,2.39-5.34,5.34-5.34h0c2.95,0,5.34,2.39,5.34,5.34v17.09Z"/>
    <path class="cls-10" d="m282.09,227.41h-10.69v-17.09c0-2.95,2.39-5.34,5.34-5.34h0c2.95,0,5.34,2.39,5.34,5.34v17.09Z"/>
    <path class="cls-10" d="m229.69,267.11h-10.69v-17.09c0-2.95,2.39-5.34,5.34-5.34h0c2.95,0,5.34,2.39,5.34,5.34v17.09Z"/>
    <rect class="cls-10" x="198.66" y="239.21" width="15.45" height="33.37"/>
    <rect class="cls-10" x="151.94" y="191.45" width="39.99" height="81.12"/>
    <g>
      <path class="cls-10" d="m256.07,267.11h-10.69v-17.09c0-2.95,2.39-5.34,5.34-5.34h0c2.95,0,5.34,2.39,5.34,5.34v17.09Z"/>
      <path class="cls-8" d="m268.19,244.67h0c2.95,0,5.34,2.39,5.34,5.34v17.09h-10.69v-17.09c0-2.95,2.39-5.34,5.34-5.34Z"/>
      <path class="cls-8" d="m291,267.11h-10.69v-17.09c0-2.95,2.39-5.34,5.34-5.34h0c2.95,0,5.34,2.39,5.34,5.34v17.09Z"/>
      <g>
        <g>
          <rect class="cls-4" x="249.85" y="247.26" width="42.9" height="25.32"/>
          <polygon class="cls-11" points="291.84 241.47 302.87 247.91 300.75 247.91 289.79 242.43 291.84 241.47"/>
          <polygon class="cls-4" points="301.71 272.58 281.35 272.58 281.35 247.26 291.84 241.47 301.71 247.26 301.71 272.58"/>
        </g>
        <polygon class="cls-7" points="248.29 248.2 279.78 248.2 291.84 241.47 260.22 241.47 248.29 248.2"/>
        <rect class="cls-3" x="290.12" y="245.22" width="3.29" height="2.98"/>
      </g>
      <rect class="cls-7" x="268.97" y="254.17" width="7.36" height="18.41"/>
      <rect class="cls-7" x="254.81" y="254.17" width="7.36" height="18.41"/>
    </g>
    <rect class="cls-10" x="223.97" y="170.45" width="6.9" height="10.36"/>
    <rect class="cls-10" x="233.47" y="185.41" width="4.89" height="7.33"/>
    <rect class="cls-10" x="249.15" y="185.41" width="4.89" height="7.33"/>
    <path class="cls-8" d="m169.48,227.41h-10.69v-17.09c0-2.95,2.39-5.34,5.34-5.34h0c2.95,0,5.34,2.39,5.34,5.34v17.09Z"/>
    <path class="cls-8" d="m188.47,227.41h-10.69v-17.09c0-2.95,2.39-5.34,5.34-5.34h0c2.95,0,5.34,2.39,5.34,5.34v17.09Z"/>
    <path class="cls-8" d="m169.48,267.11h-10.69v-17.09c0-2.95,2.39-5.34,5.34-5.34h0c2.95,0,5.34,2.39,5.34,5.34v17.09Z"/>
    <path class="cls-8" d="m188.47,267.11h-10.69v-17.09c0-2.95,2.39-5.34,5.34-5.34h0c2.95,0,5.34,2.39,5.34,5.34v17.09Z"/>
  </g>
  <g>
    <path class="cls-14" d="m151.03,216.88c0,13.18-7.8,23.87-17.42,23.87s-17.42-10.69-17.42-23.87,7.8-58.49,17.42-58.49,17.42,45.31,17.42,58.49Z"/>
    <polygon class="cls-15" points="143.38 223.78 138.1 225.73 139.16 222.55 136.64 226.27 134.12 227.2 133.94 216.77 143.1 204.6 138.19 209.51 139.02 206.1 136.67 211.03 133.89 213.81 133.61 197.53 132.61 221.28 123.93 212.08 128.7 218.56 124.2 218.06 129.76 220 132.51 223.74 132.03 235.2 128.82 233.02 131.93 237.57 130.46 272.58 134.9 272.58 134.15 228.86 143.38 223.78"/>
    <g>
      <path class="cls-12" d="m143.19,197.58s.16,1.6-.71,2.78-2.45,1.48-2.45,1.48c0,0-.16-1.6.71-2.78.87-1.17,2.45-1.48,2.45-1.48Z"/>
      <path class="cls-12" d="m148.44,204.95s.16,1.6-.71,2.78c-.87,1.17-2.45,1.48-2.45,1.48,0,0-.16-1.6.71-2.78s2.45-1.48,2.45-1.48Z"/>
      <path class="cls-12" d="m148.44,219.31s-.39,1.56-1.61,2.37c-1.22.81-2.81.57-2.81.57,0,0,.39-1.56,1.61-2.37,1.22-.81,2.81-.57,2.81-.57Z"/>
      <path class="cls-12" d="m119.61,219.31s.39,1.56,1.61,2.37c1.22.81,2.81.57,2.81.57,0,0-.39-1.56-1.61-2.37-1.22-.81-2.81-.57-2.81-.57Z"/>
      <path class="cls-12" d="m142.38,213.35s.16,1.6-.71,2.78c-.87,1.17-2.45,1.48-2.45,1.48,0,0-.16-1.6.71-2.78.87-1.17,2.45-1.48,2.45-1.48Z"/>
      <path class="cls-12" d="m141.02,189.55s.16,1.6-.71,2.78c-.87,1.17-2.45,1.48-2.45,1.48,0,0-.16-1.6.71-2.78.87-1.17,2.45-1.48,2.45-1.48Z"/>
      <path class="cls-12" d="m137.89,195.67s.16,1.6-.71,2.78c-.87,1.17-2.45,1.48-2.45,1.48,0,0-.16-1.6.71-2.78s2.45-1.48,2.45-1.48Z"/>
      <path class="cls-12" d="m145.31,191.22s.16,1.6-.71,2.78-2.45,1.48-2.45,1.48c0,0-.16-1.6.71-2.78.87-1.17,2.45-1.48,2.45-1.48Z"/>
      <path class="cls-12" d="m121.18,191.22s-.16,1.6.71,2.78,2.45,1.48,2.45,1.48c0,0,.16-1.6-.71-2.78-.87-1.17-2.45-1.48-2.45-1.48Z"/>
      <path class="cls-12" d="m141.7,182.07s.16,1.6-.71,2.78-2.45,1.48-2.45,1.48c0,0-.16-1.6.71-2.78.87-1.17,2.45-1.48,2.45-1.48Z"/>
      <path class="cls-12" d="m140.16,174.13s.56,1.51,0,2.87-2,2.05-2,2.05c0,0-.56-1.51,0-2.87s2-2.05,2-2.05Z"/>
      <path class="cls-12" d="m129.14,172.05s1.42.75,1.92,2.12c.5,1.38-.12,2.86-.12,2.86,0,0-1.42-.75-1.92-2.12-.5-1.38.12-2.86.12-2.86Z"/>
      <path class="cls-12" d="m134.28,181.55s1.01,1.25.93,2.71c-.08,1.46-1.24,2.59-1.24,2.59,0,0-1.01-1.25-.93-2.71s1.24-2.59,1.24-2.59Z"/>
      <path class="cls-12" d="m134.01,167.41s1.01,1.25.93,2.71c-.08,1.46-1.24,2.59-1.24,2.59,0,0-1.01-1.25-.93-2.71.08-1.46,1.24-2.59,1.24-2.59Z"/>
      <path class="cls-12" d="m122.48,197.58s-.16,1.6.71,2.78,2.45,1.48,2.45,1.48c0,0,.16-1.6-.71-2.78-.87-1.17-2.45-1.48-2.45-1.48Z"/>
      <path class="cls-12" d="m119.49,206.28s-.16,1.6.71,2.78,2.45,1.48,2.45,1.48c0,0,.16-1.6-.71-2.78-.87-1.17-2.45-1.48-2.45-1.48Z"/>
      <path class="cls-12" d="m127.43,209.44s-.16,1.6.71,2.78c.87,1.17,2.45,1.48,2.45,1.48,0,0,.16-1.6-.71-2.78-.87-1.17-2.45-1.48-2.45-1.48Z"/>
      <path class="cls-12" d="m129.6,197.38s-.61,1.49-.11,2.86c.5,1.38,1.93,2.12,1.93,2.12,0,0,.61-1.49.11-2.86-.5-1.38-1.93-2.12-1.93-2.12Z"/>
      <path class="cls-12" d="m123.98,229.47s1.61.03,2.71-.94c1.1-.97,1.27-2.57,1.27-2.57,0,0-1.61-.03-2.71.94-1.1.97-1.27,2.57-1.27,2.57Z"/>
      <path class="cls-12" d="m139.41,227.71s.44,1.55,1.68,2.32c1.24.77,2.83.48,2.83.48,0,0-.44-1.55-1.68-2.32-1.24-.77-2.83-.48-2.83-.48Z"/>
      <path class="cls-12" d="m125.77,189.55s-.16,1.6.71,2.78c.87,1.17,2.45,1.48,2.45,1.48,0,0,.16-1.6-.71-2.78-.87-1.17-2.45-1.48-2.45-1.48Z"/>
      <path class="cls-12" d="m125.74,182.48s-.16,1.6.71,2.78,2.45,1.48,2.45,1.48c0,0,.16-1.6-.71-2.78-.87-1.17-2.45-1.48-2.45-1.48Z"/>
    </g>
  </g>
  <g>
    <path class="cls-14" d="m174.91,236.43c0,8.56-5.06,15.49-11.31,15.49s-11.31-6.94-11.31-15.49,5.06-37.96,11.31-37.96,11.31,29.41,11.31,37.96Z"/>
    <polygon class="cls-15" points="169.94 240.9 166.52 242.17 167.2 240.11 165.57 242.52 163.93 243.12 163.82 236.36 169.76 228.46 166.58 231.64 167.11 229.43 165.59 232.63 163.78 234.44 163.6 223.86 162.95 239.28 157.32 233.31 160.41 237.52 157.49 237.2 161.1 238.45 162.89 240.88 162.57 248.32 160.49 246.91 162.51 249.85 161.55 272.58 164.44 272.58 163.95 244.2 169.94 240.9"/>
    <g>
      <path class="cls-12" d="m169.82,223.9s.1,1.04-.46,1.8c-.57.76-1.59.96-1.59.96,0,0-.1-1.04.46-1.8.57-.76,1.59-.96,1.59-.96Z"/>
      <path class="cls-12" d="m173.23,228.69s.1,1.04-.46,1.8-1.59.96-1.59.96c0,0-.1-1.04.46-1.8s1.59-.96,1.59-.96Z"/>
      <path class="cls-12" d="m173.23,238.01s-.25,1.01-1.04,1.54c-.79.53-1.82.37-1.82.37,0,0,.25-1.01,1.04-1.54s1.82-.37,1.82-.37Z"/>
      <path class="cls-12" d="m154.51,238.01s.25,1.01,1.04,1.54c.79.53,1.82.37,1.82.37,0,0-.25-1.01-1.04-1.54s-1.82-.37-1.82-.37Z"/>
      <path class="cls-12" d="m169.29,234.14s.1,1.04-.46,1.8c-.57.76-1.59.96-1.59.96,0,0-.1-1.04.46-1.8.57-.76,1.59-.96,1.59-.96Z"/>
      <path class="cls-12" d="m168.41,218.69s.1,1.04-.46,1.8-1.59.96-1.59.96c0,0-.1-1.04.46-1.8.57-.76,1.59-.96,1.59-.96Z"/>
      <path class="cls-12" d="m166.38,222.66s.1,1.04-.46,1.8-1.59.96-1.59.96c0,0-.1-1.04.46-1.8.57-.76,1.59-.96,1.59-.96Z"/>
      <path class="cls-12" d="m171.2,219.77s.1,1.04-.46,1.8c-.57.76-1.59.96-1.59.96,0,0-.1-1.04.46-1.8.57-.76,1.59-.96,1.59-.96Z"/>
      <path class="cls-12" d="m155.53,219.77s-.1,1.04.46,1.8c.57.76,1.59.96,1.59.96,0,0,.1-1.04-.46-1.8s-1.59-.96-1.59-.96Z"/>
      <path class="cls-12" d="m168.85,213.84s.1,1.04-.46,1.8c-.57.76-1.59.96-1.59.96,0,0-.1-1.04.46-1.8.57-.76,1.59-.96,1.59-.96Z"/>
      <path class="cls-12" d="m167.85,208.68s.36.98,0,1.86c-.36.88-1.3,1.33-1.3,1.33,0,0-.36-.98,0-1.86.36-.88,1.3-1.33,1.3-1.33Z"/>
      <path class="cls-12" d="m160.7,207.33s.92.48,1.25,1.38c.32.89-.08,1.86-.08,1.86,0,0-.92-.48-1.25-1.38-.32-.89.08-1.86.08-1.86Z"/>
      <path class="cls-12" d="m164.04,213.5s.66.81.6,1.76c-.05.95-.8,1.68-.8,1.68,0,0-.66-.81-.6-1.76s.8-1.68.8-1.68Z"/>
      <path class="cls-12" d="m163.86,204.32s.66.81.6,1.76c-.05.95-.8,1.68-.8,1.68,0,0-.66-.81-.6-1.76s.8-1.68.8-1.68Z"/>
      <path class="cls-12" d="m156.38,223.9s-.1,1.04.46,1.8c.57.76,1.59.96,1.59.96,0,0,.1-1.04-.46-1.8s-1.59-.96-1.59-.96Z"/>
      <path class="cls-12" d="m154.43,229.55s-.1,1.04.46,1.8c.57.76,1.59.96,1.59.96,0,0,.1-1.04-.46-1.8-.57-.76-1.59-.96-1.59-.96Z"/>
      <path class="cls-12" d="m159.59,231.6s-.1,1.04.46,1.8c.57.76,1.59.96,1.59.96,0,0,.1-1.04-.46-1.8s-1.59-.96-1.59-.96Z"/>
      <path class="cls-12" d="m161,223.77s-.4.97-.07,1.86c.33.89,1.25,1.38,1.25,1.38,0,0,.4-.97.07-1.86-.33-.89-1.25-1.38-1.25-1.38Z"/>
      <path class="cls-12" d="m157.35,244.6s1.04.02,1.76-.61c.71-.63.83-1.67.83-1.67,0,0-1.04-.02-1.76.61-.71.63-.83,1.67-.83,1.67Z"/>
      <path class="cls-12" d="m167.36,243.46s.28,1,1.09,1.51c.81.5,1.83.31,1.83.31,0,0-.28-1-1.09-1.51-.81-.5-1.83-.31-1.83-.31Z"/>
      <path class="cls-12" d="m158.51,218.69s-.1,1.04.46,1.8,1.59.96,1.59.96c0,0,.1-1.04-.46-1.8-.57-.76-1.59-.96-1.59-.96Z"/>
      <path class="cls-12" d="m158.5,214.1s-.1,1.04.46,1.8c.57.76,1.59.96,1.59.96,0,0,.1-1.04-.46-1.8-.57-.76-1.59-.96-1.59-.96Z"/>
    </g>
  </g>
  <g>
    <path class="cls-14" d="m325.07,236.43c0,8.56-5.06,15.49-11.31,15.49s-11.31-6.94-11.31-15.49,5.06-37.96,11.31-37.96,11.31,29.41,11.31,37.96Z"/>
    <polygon class="cls-15" points="320.1 240.9 316.68 242.17 317.37 240.11 315.73 242.52 314.1 243.12 313.98 236.36 319.93 228.46 316.74 231.64 317.28 229.43 315.75 232.63 313.95 234.44 313.76 223.86 313.12 239.28 307.48 233.31 310.58 237.52 307.66 237.2 311.26 238.45 313.05 240.88 312.74 248.32 310.66 246.91 312.67 249.85 311.72 272.58 314.6 272.58 314.11 244.2 320.1 240.9"/>
    <g>
      <path class="cls-12" d="m319.98,223.9s.1,1.04-.46,1.8c-.57.76-1.59.96-1.59.96,0,0-.1-1.04.46-1.8.57-.76,1.59-.96,1.59-.96Z"/>
      <path class="cls-12" d="m323.39,228.69s.1,1.04-.46,1.8-1.59.96-1.59.96c0,0-.1-1.04.46-1.8s1.59-.96,1.59-.96Z"/>
      <path class="cls-12" d="m323.39,238.01s-.25,1.01-1.04,1.54c-.79.53-1.82.37-1.82.37,0,0,.25-1.01,1.04-1.54.79-.53,1.82-.37,1.82-.37Z"/>
      <path class="cls-12" d="m304.68,238.01s.25,1.01,1.04,1.54c.79.53,1.82.37,1.82.37,0,0-.25-1.01-1.04-1.54s-1.82-.37-1.82-.37Z"/>
      <path class="cls-12" d="m319.45,234.14s.1,1.04-.46,1.8c-.57.76-1.59.96-1.59.96,0,0-.1-1.04.46-1.8.57-.76,1.59-.96,1.59-.96Z"/>
      <path class="cls-12" d="m318.57,218.69s.1,1.04-.46,1.8c-.57.76-1.59.96-1.59.96,0,0-.1-1.04.46-1.8.57-.76,1.59-.96,1.59-.96Z"/>
      <path class="cls-12" d="m316.54,222.66s.1,1.04-.46,1.8-1.59.96-1.59.96c0,0-.1-1.04.46-1.8.57-.76,1.59-.96,1.59-.96Z"/>
      <path class="cls-12" d="m321.36,219.77s.1,1.04-.46,1.8c-.57.76-1.59.96-1.59.96,0,0-.1-1.04.46-1.8.57-.76,1.59-.96,1.59-.96Z"/>
      <path class="cls-12" d="m305.7,219.77s-.1,1.04.46,1.8c.57.76,1.59.96,1.59.96,0,0,.1-1.04-.46-1.8s-1.59-.96-1.59-.96Z"/>
      <path class="cls-12" d="m319.01,213.84s.1,1.04-.46,1.8c-.57.76-1.59.96-1.59.96,0,0-.1-1.04.46-1.8.57-.76,1.59-.96,1.59-.96Z"/>
      <path class="cls-12" d="m318.02,208.68s.36.98,0,1.86c-.36.88-1.3,1.33-1.3,1.33,0,0-.36-.98,0-1.86.36-.88,1.3-1.33,1.3-1.33Z"/>
      <path class="cls-12" d="m310.87,207.33s.92.48,1.25,1.38c.32.89-.08,1.86-.08,1.86,0,0-.92-.48-1.25-1.38-.32-.89.08-1.86.08-1.86Z"/>
      <path class="cls-12" d="m314.2,213.5s.66.81.6,1.76c-.05.95-.8,1.68-.8,1.68,0,0-.66-.81-.6-1.76.05-.95.8-1.68.8-1.68Z"/>
      <path class="cls-12" d="m314.02,204.32s.66.81.6,1.76c-.05.95-.8,1.68-.8,1.68,0,0-.66-.81-.6-1.76.05-.95.8-1.68.8-1.68Z"/>
      <path class="cls-12" d="m306.54,223.9s-.1,1.04.46,1.8c.57.76,1.59.96,1.59.96,0,0,.1-1.04-.46-1.8s-1.59-.96-1.59-.96Z"/>
      <path class="cls-12" d="m304.6,229.55s-.1,1.04.46,1.8c.57.76,1.59.96,1.59.96,0,0,.1-1.04-.46-1.8-.57-.76-1.59-.96-1.59-.96Z"/>
      <path class="cls-12" d="m309.75,231.6s-.1,1.04.46,1.8c.57.76,1.59.96,1.59.96,0,0,.1-1.04-.46-1.8s-1.59-.96-1.59-.96Z"/>
      <path class="cls-12" d="m311.16,223.77s-.4.97-.07,1.86c.33.89,1.25,1.38,1.25,1.38,0,0,.4-.97.07-1.86-.33-.89-1.25-1.38-1.25-1.38Z"/>
      <path class="cls-12" d="m307.51,244.6s1.04.02,1.76-.61c.71-.63.83-1.67.83-1.67,0,0-1.04-.02-1.76.61-.71.63-.83,1.67-.83,1.67Z"/>
      <path class="cls-12" d="m317.53,243.46s.28,1,1.09,1.51c.81.5,1.83.31,1.83.31,0,0-.28-1-1.09-1.51-.81-.5-1.83-.31-1.83-.31Z"/>
      <path class="cls-12" d="m308.68,218.69s-.1,1.04.46,1.8,1.59.96,1.59.96c0,0,.1-1.04-.46-1.8-.57-.76-1.59-.96-1.59-.96Z"/>
      <path class="cls-12" d="m308.66,214.1s-.1,1.04.46,1.8c.57.76,1.59.96,1.59.96,0,0,.1-1.04-.46-1.8-.57-.76-1.59-.96-1.59-.96Z"/>
    </g>
  </g>
  <g>
    <g>
      <path class="cls-9" d="m279.12,60.79c-.6.47-1.22.76-1.83.9-1.84.41-6.74.2-7.55,2.45s-3.06,2.86-3.06,2.86c0,0-3.88.2-4.08,1.02-.2.82-1.63,2.25-1.63,2.25h66.75s2.25-3.47-1.43-6.74c-3.22-2.86-9.09,1.47-9.82-2.05"/>
      <path class="cls-9" d="m315.85,56.29c-.74-2.68-2.31-6.31-5.5-7.66-5.31-2.25-9.8.82-11.02,3.88-1.22,3.06-2.04,5.1-6.74,2.45-4.7-2.65-8.78-2.45-10.21,1.02-.47,1.13-.98,2.09-1.51,2.88"/>
    </g>
    <path class="cls-9" d="m234.78,96.39h23.18s1.36-2.1-.86-4.07c-2.22-1.98-6.54,1.73-5.93-2.47,0,0-.49-5.19-3.7-6.54-2.03-.86-3.87-.43-5.13.46"/>
    <path class="cls-9" d="m240.8,85.65c-.74,1.85-1.23,3.09-4.07,1.48-2.84-1.61-5.31-1.48-6.17.62-.86,2.1-1.98,3.21-3.09,3.46-1.11.25-4.07.12-4.57,1.48s-1.85,1.73-1.85,1.73c0,0-2.35.12-2.47.62s-.99,1.36-.99,1.36h13.56"/>
    <path class="cls-9" d="m332.31,142.17h10.95s1.36-2.1-.86-4.07-6.54,1.73-5.93-2.47c0,0-.49-5.19-3.7-6.54-3.21-1.36-5.93.49-6.67,2.35-.74,1.85-1.23,3.09-4.07,1.48-2.84-1.61-5.31-1.48-6.17.62-.86,2.1-1.98,3.21-3.09,3.46s-4.07.12-4.57,1.48-1.85,1.73-1.85,1.73c0,0-2.35.12-2.47.62-.12.49-.99,1.36-.99,1.36h25.79"/>
  </g>
  <path class="cls-9" d="m204.19,46.27H66.84c-3.72,0-6.74,2.95-6.74,6.58v75.56l-8.32,9.06,8.32-2.88v7.38c0,3.64,3.02,6.58,6.74,6.58h137.35c3.72,0,6.74-2.95,6.74-6.58V52.85c0-3.64-3.02-6.58-6.74-6.58Z"/>
  <g>
    <g>
      <path class="cls-4" d="m156.8,146.99c-.08,4-3.39,7.18-7.39,7.1-4-.08-7.18-3.39-7.1-7.39.08-4,7.51-13.64,7.51-13.64,0,0,7.05,9.92,6.97,13.92Z"/>
      <path class="cls-4" d="m146.71,139.13c-.06,3.1-2.62,5.56-5.72,5.5-3.1-.06-5.56-2.62-5.5-5.72.06-3.1,5.82-10.56,5.82-10.56,0,0,5.46,7.68,5.4,10.78Z"/>
    </g>
    <path class="cls-12" d="m155.15,145.77c-.03,1.37-.8,2.46-1.74,2.44-.93-.02-1.67-1.14-1.64-2.51s.8-2.46,1.74-2.44,1.67,1.14,1.64,2.51Z"/>
    <path class="cls-12" d="m144.69,138.84c-.02,1.13-.67,2.04-1.44,2.02s-1.38-.95-1.36-2.08.67-2.04,1.44-2.02,1.38.95,1.36,2.08Z"/>
  </g>
  <g id="LdiMUf">
    <g>
      <path class="cls-5" d="m166.67,131.8c-.14,0-.25,0-.37,0-2.13,0-4.27-.02-6.4-.03-1.3,0-2.3-.55-2.96-1.68-.69-1.18-1.36-2.38-2.04-3.57-.02-.03-.02-.06-.02-.05,3.82.02,7.65.03,11.48.04.26,0,.37.06.36.35-.02,1.55-.02,3.09-.02,4.64,0,.09-.02.17-.03.29Z"/>
      <path class="cls-5" d="m172.31,124.67c0,.67,0,1.25,0,1.86.16,0,.29.02.42.02,1.43,0,2.85.02,4.28.01.25,0,.4.07.52.29.48.87.99,1.73,1.47,2.59.68,1.22-.02,2.4-1.41,2.39-1.64,0-3.27-.01-4.91-.02-.11,0-.22,0-.37,0,0,.61,0,1.2,0,1.79-.03.01-.05.03-.08.04-1.51-1.48-3.01-2.96-4.55-4.48,1.53-1.49,3.06-2.96,4.65-4.5Z"/>
      <path class="cls-5" d="m161.51,116.32c.53,2.1,1.04,4.14,1.57,6.27-.58-.33-1.08-.62-1.62-.93-.07.1-.14.2-.19.3-.73,1.25-1.46,2.5-2.18,3.75-.12.22-.26.31-.52.3-.97-.02-1.94-.05-2.91-.01-1.39.05-2.14-1.31-1.41-2.47.87-1.38,1.65-2.82,2.48-4.23.05-.09.1-.19.17-.3-.53-.31-1.04-.61-1.62-.95,2.11-.58,4.15-1.15,6.23-1.72Z"/>
      <path class="cls-5" d="m159.72,114.16c.43-.74.84-1.45,1.25-2.15.73-1.26,1.46-2.52,2.2-3.78.66-1.13,1.66-1.67,2.96-1.67,1.27,0,2.54,0,3.81.01.1,0,.19,0,.29,0-1.99,3.42-3.98,6.81-5.98,10.23-1.51-.88-3.01-1.75-4.54-2.65Z"/>
      <path class="cls-5" d="m175.7,112.08c.54-.31,1.05-.6,1.63-.93-.55,2.13-1.08,4.18-1.62,6.26-2.07-.59-4.1-1.17-6.22-1.77.59-.34,1.09-.63,1.63-.94-.3-.53-.58-1.03-.87-1.54-.5-.87-.99-1.75-1.5-2.61-.1-.17-.09-.29,0-.45.52-.87,1.01-1.76,1.54-2.63.72-1.2,2.08-1.18,2.78.03.81,1.41,1.61,2.82,2.42,4.22.06.11.14.22.22.36Z"/>
      <path class="cls-5" d="m173.9,119.55c1.54-.88,3.03-1.73,4.55-2.6.07.11.13.19.19.29,1.07,1.87,2.14,3.74,3.21,5.6.65,1.14.67,2.28.01,3.43-.66,1.14-1.32,2.27-1.98,3.4-.04.06-.09.12-.11.15-1.95-3.41-3.9-6.83-5.86-10.27Z"/>
    </g>
  </g>
  <g>
    <path class="cls-14" d="m165.83,51.51c-10.58.02-19.14,8.16-19.14,18.2,0,.05,0,.1,0,.15.05,5.46,4.59,9.85,10.05,9.72.85-.02,1.75.02,2.66.17,1.81.29,3.21,1.35,4.16,2.58.52.68,1.31,1.11,2.17,1.11.03,0,.07,0,.1,0,.03,0,.07,0,.1,0,.86,0,1.65-.43,2.17-1.11.95-1.23,2.35-2.29,4.16-2.58.9-.15,1.81-.19,2.66-.17,5.46.14,10.01-4.25,10.05-9.72,0-.05,0-.1,0-.15,0-10.04-8.57-18.19-19.14-18.2Z"/>
    <polygon class="cls-15" points="172.45 73.88 168.21 74.8 173.27 68.5 166.37 74.93 166.32 75.38 166.02 68.62 165.53 79.3 158.72 72.96 163.78 79.25 159.54 78.34 164.9 80.65 165.44 81.32 164.5 101.95 167.54 101.95 166.4 77.06 167.1 76.19 172.45 73.88"/>
    <g>
      <path class="cls-15" d="m160.13,68.35s-.64-1.82-2-2.45-2.27-.82-2.27-.82c0,0,.73,3.73,4.27,3.27Z"/>
      <path class="cls-15" d="m161.78,63.52s-.1-1.92-1.24-2.91c-1.13-.99-1.95-1.42-1.95-1.42,0,0-.34,3.78,3.19,4.33Z"/>
      <path class="cls-15" d="m176.93,78.25s-1.22-1.49-2.72-1.62c-1.5-.13-2.42,0-2.42,0,0,0,1.96,3.25,5.13,1.61Z"/>
      <path class="cls-15" d="m153.12,77.79s1.22-1.49,2.72-1.62c1.5-.13,2.42,0,2.42,0,0,0-1.96,3.25-5.13,1.61Z"/>
      <path class="cls-15" d="m156.42,61.88s-.1-1.92-1.24-2.91c-1.13-.99-1.95-1.42-1.95-1.42,0,0-.34,3.78,3.19,4.33Z"/>
      <path class="cls-15" d="m174.23,62.98s.1-1.92,1.24-2.91c1.13-.99,1.95-1.42,1.95-1.42,0,0,.34,3.78-3.19,4.33Z"/>
      <path class="cls-15" d="m165.36,60.5s1.11-1.57.84-3.05c-.27-1.48-.65-2.33-.65-2.33,0,0-2.61,2.76-.18,5.38Z"/>
      <path class="cls-15" d="m166.6,67.74s.18-1.92-.79-3.06c-.97-1.15-1.72-1.69-1.72-1.69,0,0-.89,3.69,2.52,4.76Z"/>
      <path class="cls-15" d="m162.02,58.98s.58-1.84-.14-3.16c-.71-1.32-1.33-2.01-1.33-2.01,0,0-1.64,3.42,1.47,5.18Z"/>
      <path class="cls-15" d="m163.48,73.25s.58-1.84-.14-3.16-1.33-2.01-1.33-2.01c0,0-1.64,3.42,1.47,5.18Z"/>
      <path class="cls-15" d="m167.79,71.09s1.63-1.03,1.94-2.5c.31-1.47.28-2.4.28-2.4,0,0-3.47,1.55-2.22,4.9Z"/>
      <path class="cls-15" d="m167.98,58.98s-.58-1.84.14-3.16c.71-1.32,1.33-2.01,1.33-2.01,0,0,1.64,3.42-1.47,5.18Z"/>
      <path class="cls-15" d="m170.25,63.6s1.62-1.04,1.93-2.51c.31-1.47.27-2.4.27-2.4,0,0-3.46,1.56-2.2,4.91Z"/>
      <path class="cls-15" d="m174.63,68.64s1.86-.48,2.61-1.79,1-2.2,1-2.2c0,0-3.77.42-3.62,3.99Z"/>
      <path class="cls-15" d="m175.04,73.13s1.75.81,3.15.27c1.41-.54,2.17-1.06,2.17-1.06,0,0-3.18-2.07-5.32.8Z"/>
      <path class="cls-15" d="m177.5,69.04s1.75.81,3.15.27c1.41-.54,2.17-1.06,2.17-1.06,0,0-3.18-2.07-5.32.8Z"/>
      <path class="cls-15" d="m153.01,71.66s1.17,1.53,2.67,1.7c1.49.18,2.41.06,2.41.06,0,0-1.86-3.31-5.08-1.77Z"/>
      <path class="cls-15" d="m149.19,66.38s1.17,1.53,2.67,1.7,2.41.06,2.41.06c0,0-1.86-3.31-5.08-1.77Z"/>
    </g>
  </g>
  <g>
    <g>
      <circle class="cls-9" cx="103.36" cy="93.78" r="36.64"/>
      <path class="cls-9" d="m103.36,57.14v36.64h36.64c0-20.23-16.4-36.64-36.64-36.64Z"/>
      <path class="cls-9" d="m133.36,114.8c4.18-5.95,6.64-13.2,6.64-21.02h-36.64l30,21.02Z"/>
      <path class="cls-9" d="m133.36,114.8l-30-21.02,15.86,33.04c5.68-2.73,10.55-6.9,14.14-12.01Z"/>
    </g>
    <line class="cls-9" x1="132.69" y1="82.95" x2="155.5" y2="82.95"/>
    <line class="cls-9" x1="132.37" y1="104.35" x2="155.07" y2="112.13"/>
    <line class="cls-9" x1="123.62" y1="119.59" x2="136.26" y2="130.61"/>
  </g>
  <g>
    <path class="cls-18" d="m283.98,135.28c-1.33,0-2.66-.56-3.6-1.64-1.72-1.99-1.51-4.99.48-6.72l51.24-48.5c3.31-2.87,8.32-2.51,11.19.8,2.87,3.31,2.51,8.32-.8,11.19l-55.39,43.7c-.9.78-2.01,1.16-3.12,1.16Z"/>
    <circle class="cls-13" cx="247.11" cy="161.61" r="36.65" transform="translate(81.22 405.86) rotate(-89)"/>
    <path class="cls-15" d="m247.11,117.36c-24.44,0-44.25,19.81-44.25,44.25s19.81,44.25,44.25,44.25,44.25-19.81,44.25-44.25-19.81-44.25-44.25-44.25Zm0,80.91c-20.24,0-36.65-16.41-36.65-36.65s16.41-36.65,36.65-36.65,36.65,16.41,36.65,36.65-16.41,36.65-36.65,36.65Z"/>
    <path class="cls-8" d="m250.13,117.36c-24.44,0-44.25,19.81-44.25,44.25s19.81,44.25,44.25,44.25,44.25-19.81,44.25-44.25-19.81-44.25-44.25-44.25Zm0,80.91c-20.24,0-36.65-16.41-36.65-36.65s16.41-36.65,36.65-36.65,36.65,16.41,36.65,36.65-16.41,36.65-36.65,36.65Z"/>
  </g>
  <g>
    <g>
      <g>
        <path class="cls-12" d="m34.77,123.92c1.86-.21,3.76.16,5.36,1.14.97.59,1.98,1.43,2.68,2.58,1.74,2.88.38,4.53,1.5,5.71s1.97,1.68,1.79,2.54-1.54,1.52-1.74,1.67c-.2.15.38,2.9-.07,4.38-.45,1.48-4.1,1.44-4.1,1.44,0,0-.42,2.7-.52,3.59-.1.89.73,7.7-2.96,5.6-3.7-2.1-5.83-4.18-6.05-5.06-.22-.89.96-3.63,1-4.5.05-.86.08-1.27-.36-1.87s-3.5-2.57-4.91-6.1.05-8.02,3.64-9.77c1.68-.82,3.4-1.19,4.74-1.34Z"/>
        <g class="cls-20">
          <path class="cls-19" d="m34.77,123.92c1.86-.21,3.76.16,5.36,1.14.97.59,1.98,1.43,2.68,2.58,1.74,2.88.38,4.53,1.5,5.71s1.97,1.68,1.79,2.54-1.54,1.52-1.74,1.67c-.2.15.38,2.9-.07,4.38-.45,1.48-4.1,1.44-4.1,1.44,0,0-.42,2.7-.52,3.59-.1.89,2.43,4.95,2.65,7.13.22,2.19-1.92.57-5.62-1.53-3.7-2.1-5.83-4.18-6.05-5.06-.22-.89.96-3.63,1-4.5.05-.86.08-1.27-.36-1.87s-3.5-2.57-4.91-6.1.05-8.02,3.64-9.77c1.68-.82,3.4-1.19,4.74-1.34Z"/>
        </g>
        <path class="cls-9" d="m34.77,123.92c1.86-.21,3.76.16,5.36,1.14.97.59,1.98,1.43,2.68,2.58,1.74,2.88.38,4.53,1.5,5.71s1.97,1.68,1.79,2.54-1.54,1.52-1.74,1.67c-.2.15.38,2.9-.07,4.38-.45,1.48-4.1,1.44-4.1,1.44,0,0-.42,2.7-.52,3.59-.1.89.73,7.7-2.96,5.6-3.7-2.1-5.83-4.18-6.05-5.06-.22-.89.96-3.63,1-4.5.05-.86.08-1.27-.36-1.87s-3.5-2.57-4.91-6.1.05-8.02,3.64-9.77c1.68-.82,3.4-1.19,4.74-1.34Z"/>
      </g>
      <path class="cls-10" d="m36.45,126.21c1.09-1.2,2.05-1.57,2.75-1.63-1.38-.61-2.92-.83-4.44-.66-1.34.15-3.05.52-4.74,1.34-3.59,1.76-5.05,6.24-3.64,9.77s4.47,5.5,4.91,6.1c.17.24.27.45.33.67,2.86-.53,3.22-2.22,3.22-2.22,0,0-.89.55-1.94.19-1.05-.36-2.08-2.94-1.6-4.5.48-1.56,2.09-.31,2.47.64.38.95,1.14,1.56,1.55,1.27.4-.29-.13-1.31-.23-2.05-.1-.74,1.46-2.53,1.68-3.27.22-.74-.65-.98-1.71-1.53-1.06-.55-.81-1.69,1.4-4.14Z"/>
      <path class="cls-9" d="m34.79,139.81s.63,1.57,1.98,2.2"/>
      <path class="cls-9" d="m42.39,133.48s-.72-.06-1.59.37"/>
      <path class="cls-9" d="m42.68,131.8s-1.4-1.1-2.53.66"/>
      <path class="cls-9" d="m43.24,138.9s-1.07.6-2-.42"/>
    </g>
    <path class="cls-10" d="m64.52,270.04c-.99-.28-6.05-3.38-6.05-3.38,0,0,.14-1.41,0-1.83-.14-.42-1.41-1.41-1.41-1.41,0,0-1.13-10.28-1.13-15.2s-.99-11.68-1.13-12.25c-.14-.56-3.94-39.84-3.94-39.84l-1.27-10-12.54.61-12.54-.61-1.27,10s-3.8,39.28-3.94,39.84c-.14.56-1.13,7.32-1.13,12.25s-1.13,15.2-1.13,15.2c0,0-1.27.99-1.41,1.41-.14.42,0,1.83,0,1.83,0,0-5.07,3.1-6.05,3.38-.99.28-.56,1.13.56,1.69,1.13.56,3.66.84,4.79.84s2.82-1.97,3.24-2.25c.42-.28.28,1.41.28,1.41,0,0,.99,0,1.55-.28.56-.28,1.55.28,1.69-1.41.14-1.69.14-3.38.14-3.38,0,0,.99-.99,1.27-1.83.28-.84.84-3.24.84-3.24l8.87-35.76,4.23-19.56,4.23,19.56,8.87,35.76s.56,2.39.84,3.24c.28.84,1.27,1.83,1.27,1.83,0,0,0,1.69.14,3.38.14,1.69,1.13,1.13,1.69,1.41.56.28,1.55.28,1.55.28,0,0-.14-1.69.28-1.41.42.28,2.11,2.25,3.24,2.25s3.66-.28,4.79-.84,1.55-1.41.56-1.69Z"/>
    <g>
      <path class="cls-8" d="m18.45,154.47s-7.73,26.88-8.06,27.55c-.34.67,1.68.34,3.58.67,1.9.34,4.59-1.12,4.93-1.68.34-.56,3.14-9.3,3.14-9.3l-3.58-17.25Z"/>
      <g>
        <line class="cls-8" x1="18.8" y1="163.18" x2="18.48" y2="162.41"/>
        <line class="cls-8" x1="21.33" y1="169.31" x2="19.17" y2="164.08"/>
        <path class="cls-8" d="m18.62,177.48c.37.26.61.44.61.44"/>
        <path class="cls-8" d="m12.9,176.26s2.11-.75,2.56-.75c.26,0,1.46.79,2.44,1.47"/>
      </g>
    </g>
    <g>
      <path class="cls-8" d="m54.28,152.9s8.85,23.63,9.07,24.53c.22.9.45,1.46.34,2.46-.11,1.01-1.68,1.68-2.02,1.68s-2.8-1.57-3.81-2.02-4.03-1.9-4.03-1.9l-1.57-5.04,2.02-19.71Z"/>
      <g>
        <line class="cls-8" x1="54.78" y1="160.57" x2="54.93" y2="160"/>
        <line class="cls-8" x1="52.67" y1="168.88" x2="54.54" y2="161.51"/>
        <line class="cls-8" x1="58.09" y1="173.1" x2="54.47" y2="175.36"/>
      </g>
    </g>
    <path class="cls-8" d="m31.1,147.75l-12.66,6.72,5.49,29.12s-.45,2.69-.11,3.25c.34.56.9.9.9.9h24.75s1.68-1.57,1.68-1.9v-1.46l3.14-31.47-12.53-5-10.65-.16Z"/>
    <polygon class="cls-10" points="33.94 149.08 35.6 153.77 33.35 182.29 36.87 187.85 39.9 181.8 36.77 153.77 38.72 149.57 35.89 146.44 33.94 149.08"/>
    <polygon class="cls-8" points="30.82 144.8 29.87 148.53 33.25 152.69 35.21 148.01 30.82 144.8"/>
    <polygon class="cls-8" points="36.97 148.1 38.53 153.08 41.75 147.91 40.29 144.88 36.97 148.1"/>
    <g>
      <polygon class="cls-8" points="44.99 181.13 44.54 177.65 47.56 178.21 44.99 181.13"/>
      <g>
        <path class="cls-1" d="m36.7,170.6s-1.79-.22-2.8-.56c-1.01-.34-1.68.11-.9,1.12.78,1.01,3.58,1.46,3.92,1.46,0,0,.56,2.91,2.13,3.47s2.46.56,2.46.56c0,0,.78,1.12,1.79,1.23,1.01.11,3.36,1.79,3.36,1.79l1.12-2.58-2.46-2.02-2.46-4.26-2.35-.78-2.02-.67-1.79,1.23Z"/>
        <g>
          <path class="cls-1" d="m42.97,173.62l-1.01,1.01s.11.45.11.9-.78.45-1.34.45-1.23-.11-1.68-.45c-.45-.34-2.24-1.9-2.24-1.9l1.9-3.36-1.68,1.12s-.78,1.46-1.46,2.13c-.67.67-.9-.11-.9-.11,0,0,.67-2.13,1.12-2.69.45-.56,2.02-1.9,2.02-1.9,0,0,.56-.11,1.34,0,.78.11,2.35,1.01,3.02,1.46s1.23,1.34,1.34,1.79c.11.45.11.78.11.78"/>
          <path class="cls-9" d="m40.06,175.86s-.34-.78-.11-1.34c.22-.56,1.68-2.69,1.68-2.69"/>
          <path class="cls-9" d="m39.05,175.53s-.18-.2-.38-.49c-.24-.35-.04-.79-.04-1.16,0-.67,1.65-3.4,1.65-3.4"/>
        </g>
      </g>
      <path class="cls-8" d="m61.12,174.97s2.8,4.26,2.69,5.38-.78,3.58-1.79,3.58-5.49-.56-8.62-1.12c-3.14-.56-5.26-.78-5.26-.78l-3.14-.9,2.13-5.15,2.04.43s1.5-.38,2.96-.49c1.46-.11,6.32-1.28,6.32-1.28"/>
      <path class="cls-9" d="m49.17,176.91s.15,1.94-.9,3.58"/>
    </g>
    <g>
      <path class="cls-8" d="m11.84,178.44s-1.9,4.59-2.02,4.93c-.11.34.34,2.46,2.13,2.02,1.79-.45,11.31-1.46,12.54-1.68,1.23-.22,3.14-.56,3.14-.56h2.46c1.12,0,4.26,0,4.93-.22.67-.22,2.02-.67,2.69-.9.67-.22,2.13-1.12,2.24-1.46.11-.34-.34-.67-1.46-.56-1.12.11-4.59.22-4.59.22,0,0,3.14-1.23,4.14-1.68,1.01-.45.67-.9.67-.9,0,0-1.12,0-1.9.34-.78.34-8.51,1.34-8.51,1.34l-.9-.78s.45-1.12.45-2.02-.45-1.57-1.01-1.34c-.56.22-.78,1.57-.9,2.02-.11.45-.67,2.24-.67,2.24l-.22,1.01s-4.59-.9-5.94-1.46-4.14-1.34-4.59-1.23c-.45.11-1.34,1.34-1.57,1.9"/>
      <path class="cls-9" d="m21.84,180.04s-.75,1.64.15,2.69"/>
      <path class="cls-6" d="m23.44,174.14l3.41,6.93c.13.25.38.42.67.42l12.43.13c.53,0,.9-.53.71-1.02l-2.7-7.06c-.11-.29-.39-.48-.7-.48h-13.13c-.56,0-.92.58-.68,1.08Z"/>
      <g>
        <path class="cls-1" d="m38.49,180.01c-1.12.11-4.59.22-4.59.22,0,0,3.14-1.23,4.14-1.68,1.01-.45.67-.9.67-.9,0,0-1.12,0-1.9.34-.78.34-8.51,1.34-8.51,1.34l-.9-.78s.45-1.12.45-2.02-.45-1.57-1.01-1.34c-.56.22-.78,1.57-.9,2.02-.11.45-.67,2.24-.67,2.24l-.22,1.01s-.48-.09-1.18-.24c-.17.61-.25,1.42.06,2.37.15.46.3.83.44,1.14.05,0,.09-.01.12-.02,1.23-.22,3.14-.56,3.14-.56h2.46c1.12,0,4.26,0,4.93-.22.67-.22,2.02-.67,2.69-.9.67-.22,2.13-1.12,2.24-1.46.11-.34-.34-.67-1.46-.56Z"/>
        <path class="cls-9" d="m39.52,180.74s-2.32,1.11-2.66,1.11-4.31.44-4.31.44"/>
      </g>
    </g>
  </g>
</svg>