<?xml version="1.0" encoding="UTF-8"?>
<svg id="Layer_1" data-name="Layer 1" xmlns="http://www.w3.org/2000/svg" xmlns:xlink="http://www.w3.org/1999/xlink" viewBox="0 0 359.58 287.09">
  <defs>
    <style>
      .cls-1 {
        opacity: .85;
      }

      .cls-2 {
        fill: url(#linear-gradient-2);
      }

      .cls-3 {
        opacity: .76;
      }

      .cls-3, .cls-4, .cls-5 {
        fill: #d33938;
      }

      .cls-6 {
        fill: #d6d2e9;
      }

      .cls-7, .cls-8, .cls-9 {
        fill: #fff;
      }

      .cls-10 {
        fill: url(#linear-gradient-17);
      }

      .cls-11 {
        fill: url(#linear-gradient-15);
      }

      .cls-12 {
        fill: url(#linear-gradient-18);
      }

      .cls-13 {
        fill: #f6b567;
      }

      .cls-14 {
        fill: url(#linear-gradient-28);
      }

      .cls-15 {
        fill: #3956a6;
      }

      .cls-16 {
        fill: url(#linear-gradient-14);
      }

      .cls-17 {
        fill: #b7b7d8;
      }

      .cls-18 {
        fill: url(#linear-gradient-20);
      }

      .cls-19 {
        fill: url(#linear-gradient-6);
      }

      .cls-20 {
        fill: #b82963;
      }

      .cls-21 {
        fill: #6b734b;
      }

      .cls-22 {
        fill: #f0e6e6;
      }

      .cls-23 {
        stroke: #f6b567;
      }

      .cls-23, .cls-8, .cls-24, .cls-9 {
        stroke-miterlimit: 10;
      }

      .cls-23, .cls-24 {
        fill: none;
        stroke-width: 2.83px;
      }

      .cls-25 {
        fill: #48174c;
      }

      .cls-26, .cls-27 {
        fill: #9384bb;
      }

      .cls-28 {
        fill: url(#linear-gradient-32);
      }

      .cls-29 {
        fill: url(#linear-gradient-11);
      }

      .cls-30 {
        opacity: .39;
      }

      .cls-30, .cls-31, .cls-32 {
        fill: #b78dae;
      }

      .cls-33 {
        fill: #9b9bb9;
      }

      .cls-34 {
        fill: #8da2d3;
      }

      .cls-35 {
        opacity: .44;
      }

      .cls-36 {
        fill: url(#linear-gradient-10);
      }

      .cls-37 {
        fill: #c4dd7f;
      }

      .cls-38 {
        opacity: .48;
      }

      .cls-39 {
        fill: url(#linear-gradient-16);
      }

      .cls-40, .cls-41 {
        fill: #5d2569;
      }

      .cls-42 {
        fill: url(#linear-gradient-31);
      }

      .cls-43 {
        fill: #4a7b53;
      }

      .cls-44 {
        fill: #e9eef8;
      }

      .cls-45 {
        fill: #538a5b;
      }

      .cls-46 {
        fill: url(#linear-gradient-21);
      }

      .cls-47 {
        fill: url(#linear-gradient-25);
      }

      .cls-48 {
        fill: url(#linear-gradient-5);
      }

      .cls-49 {
        fill: #d0d8ee;
      }

      .cls-50 {
        fill: #92b2dd;
      }

      .cls-51 {
        fill: #e7e2f1;
      }

      .cls-52 {
        fill: #3f1749;
      }

      .cls-53 {
        fill: #dda15c;
      }

      .cls-54 {
        fill: url(#linear-gradient-7);
      }

      .cls-41 {
        opacity: .3;
      }

      .cls-55 {
        fill: url(#linear-gradient-24);
      }

      .cls-8 {
        stroke: #b5b6d7;
      }

      .cls-56 {
        fill: url(#linear-gradient-9);
      }

      .cls-57 {
        fill: #e6e1f0;
      }

      .cls-58 {
        fill: url(#linear-gradient-22);
      }

      .cls-4 {
        opacity: .49;
      }

      .cls-59 {
        fill: url(#linear-gradient-3);
      }

      .cls-60 {
        fill: #b5b6d7;
      }

      .cls-27 {
        opacity: .4;
      }

      .cls-5 {
        opacity: .38;
      }

      .cls-61 {
        fill: url(#linear-gradient);
      }

      .cls-62 {
        fill: url(#linear-gradient-27);
      }

      .cls-63 {
        fill: url(#linear-gradient-33);
      }

      .cls-32 {
        opacity: .9;
      }

      .cls-64 {
        fill: url(#linear-gradient-29);
      }

      .cls-65 {
        fill: #324d40;
      }

      .cls-66 {
        fill: url(#linear-gradient-30);
      }

      .cls-67 {
        fill: url(#linear-gradient-23);
      }

      .cls-68 {
        fill: url(#linear-gradient-19);
      }

      .cls-69 {
        fill: url(#linear-gradient-4);
      }

      .cls-24 {
        stroke: #e6e1f0;
      }

      .cls-70 {
        fill: url(#linear-gradient-8);
      }

      .cls-71 {
        opacity: .71;
      }

      .cls-72 {
        fill: #99a35f;
      }

      .cls-73 {
        fill: url(#linear-gradient-12);
      }

      .cls-74 {
        fill: url(#linear-gradient-13);
      }

      .cls-75 {
        fill: url(#linear-gradient-26);
      }

      .cls-9 {
        stroke: #be8a4c;
      }
    </style>
    <linearGradient id="linear-gradient" x1="-209.02" y1="1068.18" x2="-181.45" y2="1068.18" gradientTransform="translate(1188.26 -410.55) rotate(44.75)" gradientUnits="userSpaceOnUse">
      <stop offset="0" stop-color="#a1cb77"/>
      <stop offset="1" stop-color="#65897f"/>
    </linearGradient>
    <linearGradient id="linear-gradient-2" x1="256.92" y1="142.46" x2="256.92" y2="183.11" gradientUnits="userSpaceOnUse">
      <stop offset="0" stop-color="#e4d5e0"/>
      <stop offset="1" stop-color="#c9b1c3"/>
    </linearGradient>
    <linearGradient id="linear-gradient-3" x1="204.05" y1="153.83" x2="244.35" y2="153.83" xlink:href="#linear-gradient-2"/>
    <linearGradient id="linear-gradient-4" x1="209.26" y1="209.24" x2="251.39" y2="209.24" xlink:href="#linear-gradient-2"/>
    <linearGradient id="linear-gradient-5" x1="257.6" y1="213.37" x2="257.6" y2="266.29" xlink:href="#linear-gradient-2"/>
    <linearGradient id="linear-gradient-6" x1="208.94" y1="173.49" x2="241.31" y2="173.49" xlink:href="#linear-gradient-2"/>
    <linearGradient id="linear-gradient-7" x1="246.08" y1="176.66" x2="246.08" y2="217.31" xlink:href="#linear-gradient-2"/>
    <linearGradient id="linear-gradient-8" x1="262.67" y1="188.36" x2="262.67" y2="209.98" xlink:href="#linear-gradient-2"/>
    <linearGradient id="linear-gradient-9" x1="87.1" y1="169.58" x2="156.82" y2="169.58" xlink:href="#linear-gradient-2"/>
    <linearGradient id="linear-gradient-10" x1="33.68" y1="192.7" x2="178.48" y2="192.7" xlink:href="#linear-gradient-2"/>
    <linearGradient id="linear-gradient-11" x1="80.3" y1="182.78" x2="122.08" y2="182.78" gradientUnits="userSpaceOnUse">
      <stop offset="0" stop-color="#fdd3b6"/>
      <stop offset="1" stop-color="#f68f77"/>
    </linearGradient>
    <linearGradient id="linear-gradient-12" x1="99.03" y1="98.12" x2="112.42" y2="130.11" xlink:href="#linear-gradient-11"/>
    <linearGradient id="linear-gradient-13" x1="107.3" y1="120.21" x2="107.3" y2="122.17" xlink:href="#linear-gradient-11"/>
    <linearGradient id="linear-gradient-14" x1="251.53" y1="241.37" x2="293.79" y2="241.37" gradientTransform="translate(-38.54 26.05) rotate(-5.49)" xlink:href="#linear-gradient-11"/>
    <linearGradient id="linear-gradient-15" x1="261.57" y1="250.57" x2="305.83" y2="250.57" gradientTransform="translate(-38.54 26.05) rotate(-5.49)" xlink:href="#linear-gradient-11"/>
    <linearGradient id="linear-gradient-16" x1="168.07" y1="105.71" x2="181.91" y2="105.71" gradientUnits="userSpaceOnUse">
      <stop offset="0" stop-color="#8090c8"/>
      <stop offset="1" stop-color="#5c69b1"/>
    </linearGradient>
    <linearGradient id="linear-gradient-17" x1="123.64" y1="124.93" x2="181.8" y2="124.93" xlink:href="#linear-gradient-11"/>
    <linearGradient id="linear-gradient-18" x1="111.25" y1="136.07" x2="132.1" y2="136.07" gradientUnits="userSpaceOnUse">
      <stop offset="0" stop-color="#f16576"/>
      <stop offset="1" stop-color="#d53773"/>
    </linearGradient>
    <linearGradient id="linear-gradient-19" x1="98.01" y1="137.65" x2="107.65" y2="183.84" xlink:href="#linear-gradient-18"/>
    <linearGradient id="linear-gradient-20" x1="127.25" y1="201.19" x2="263.37" y2="201.19" gradientTransform="translate(-38.54 26.05) rotate(-5.49)" xlink:href="#linear-gradient-16"/>
    <linearGradient id="linear-gradient-21" x1="197.15" y1="174.93" x2="181.09" y2="222.32" gradientTransform="translate(-38.54 26.05) rotate(-5.49)" xlink:href="#linear-gradient-16"/>
    <linearGradient id="linear-gradient-22" x1="109.87" y1="155.79" x2="92.11" y2="183.43" xlink:href="#linear-gradient-11"/>
    <linearGradient id="linear-gradient-23" x1="103.4" y1="185.98" x2="127.32" y2="185.98" xlink:href="#linear-gradient-2"/>
    <linearGradient id="linear-gradient-24" x1="154.85" y1="144.92" x2="144.81" y2="197.13" xlink:href="#linear-gradient-2"/>
    <linearGradient id="linear-gradient-25" x1="81.5" y1="137.17" x2="85.12" y2="163.68" xlink:href="#linear-gradient-18"/>
    <linearGradient id="linear-gradient-26" x1="76.91" y1="155.83" x2="92.39" y2="155.83" gradientUnits="userSpaceOnUse">
      <stop offset="0" stop-color="#f5a1bd"/>
      <stop offset="1" stop-color="#f27488"/>
    </linearGradient>
    <linearGradient id="linear-gradient-27" x1="126.41" y1="139.51" x2="131.46" y2="139.51" xlink:href="#linear-gradient-26"/>
    <linearGradient id="linear-gradient-28" x1="634.85" y1="158.71" x2="619.86" y2="213.11" gradientTransform="translate(633.68 -52.39) rotate(172.06) scale(1 -1)" xlink:href="#linear-gradient"/>
    <linearGradient id="linear-gradient-29" x1="56.84" y1="185.6" x2="41.85" y2="239.99" gradientTransform="matrix(1,0,0,1,0,0)" xlink:href="#linear-gradient"/>
    <linearGradient id="linear-gradient-30" x1="-903.76" y1="242.34" x2="-884.61" y2="242.34" gradientTransform="translate(-848.7) rotate(-180) scale(1 -1)" gradientUnits="userSpaceOnUse">
      <stop offset="0" stop-color="#fff"/>
      <stop offset=".64" stop-color="#eaf1f4"/>
    </linearGradient>
    <linearGradient id="linear-gradient-31" x1="114.77" y1="232.16" x2="146.37" y2="232.16" xlink:href="#linear-gradient-2"/>
    <linearGradient id="linear-gradient-32" x1="151.03" y1="235.25" x2="151.03" y2="274.94" xlink:href="#linear-gradient-2"/>
    <linearGradient id="linear-gradient-33" x1="151.79" y1="72.54" x2="151.79" y2="104.17" xlink:href="#linear-gradient-16"/>
  </defs>
  <g>
    <path class="cls-22" d="m18.62,255.95c-4.94-23.67-7.98-47.79-5.93-71.98,1.84-21.66,7.22-44.16,20.64-61.73,3.23-4.23,6.93-8.13,11.14-11.4,4.3-3.34,9.16-5.63,14.26-7.46,4.91-1.76,9.94-3.17,14.79-5.11,4.61-1.84,8.91-4.23,12.84-7.27,7.8-6.03,13.38-14.01,19.91-21.28,5.43-6.04,11.5-11.58,18.65-15.51,7.26-3.99,15.35-6.08,23.57-6.87,10.13-.98,21.6-1.47,30.8,3.54,14.18,7.71,16.9,24.53,15.54,39.25-.75,8.1-2.98,15.75-4.88,23.62-2.23,9.23-3.36,19.72,3.37,27.43,3.07,3.52,7.22,5.94,11.46,7.79,4.87,2.12,10.02,3.68,15.17,4.96,11.24,2.79,22.66,3.67,34.22,3.43,11.12-.23,22.59-.97,33.37,2.36,9.13,2.82,16.9,8.79,22.51,16.47,5.37,7.35,8.84,16.05,10.23,25.04,1.82,11.77.39,23.8-2.45,35.28-1.38,5.59-3.11,11.09-5,16.54-.26.73.91,1.05,1.16.32,7.19-20.68,12.36-44.08,3.98-65.22-3.32-8.36-8.53-16.08-15.55-21.77-7.86-6.38-17.35-9.32-27.34-10.12-11.49-.92-23.02.47-34.52-.3-11.67-.79-23.59-3.2-34.42-7.7-4.63-1.93-9.21-4.51-12.42-8.45-3.47-4.27-4.58-9.7-4.33-15.1.44-9.26,4.07-18.06,5.64-27.15,2.41-13.98,2.57-30.99-7.77-42.04-6.37-6.81-15.31-9.47-24.41-9.8-9.33-.34-19.01.31-27.98,3.04-7.42,2.26-14.18,6.08-20.13,11.03-7.09,5.9-12.54,13.17-18.56,20.08-3.42,3.92-7.11,7.65-11.29,10.76-4.39,3.27-9.24,5.66-14.38,7.52-4.98,1.8-10.1,3.22-15.02,5.19-4.73,1.89-9.08,4.34-13.02,7.59-16.77,13.81-25.13,35.82-28.86,56.62-4.21,23.48-3.26,47.41.51,70.88.96,5.98,2.09,11.94,3.33,17.87.16.76,1.32.44,1.16-.32h0Z"/>
    <g>
      <path class="cls-22" d="m270.99,126.01c-.05,3.85-2.46,7.38-6.14,8.66-3.57,1.23-7.6.13-10.04-2.74-2.52-2.97-2.85-7.37-.82-10.69,1.97-3.23,5.85-4.95,9.57-4.23,4.31.83,7.36,4.66,7.43,9,.01.77,1.22.78,1.2,0-.06-4.32-2.71-8.2-6.78-9.73-4.09-1.54-8.88-.21-11.62,3.16-2.74,3.37-3.11,8.23-.84,11.95,2.26,3.71,6.68,5.62,10.93,4.78,4.83-.95,8.24-5.31,8.31-10.17.01-.78-1.19-.78-1.2,0Z"/>
      <path class="cls-22" d="m211.79,58.95c-.06,1.22-1.16,2.23-2.65,2.24-1.44.01-2.66-1.03-2.65-2.24.03-2.9,5.16-2.88,5.3,0,.03.65,1.24.66,1.2,0-.09-1.77-1.69-3.25-3.86-3.25-2.09,0-3.86,1.49-3.86,3.25,0,1.77,1.75,3.25,3.86,3.25s3.77-1.49,3.86-3.25c.03-.65-1.17-.65-1.2,0Z"/>
      <path class="cls-22" d="m60.04,116c-.12,2.2-3.44,2.22-3.44,0s3.32-2.2,3.44,0c.04.77,1.25.78,1.2,0-.09-1.58-1.27-2.92-2.92-2.92s-2.92,1.33-2.92,2.92,1.26,2.85,2.8,2.92c1.7.07,2.96-1.28,3.05-2.92.04-.77-1.16-.77-1.2,0Z"/>
      <path class="cls-22" d="m155.37,111.21c-.11,2.03-3.16,2.04-3.16,0s3.05-2.03,3.16,0c.04.77,1.25.78,1.2,0-.08-1.51-1.21-2.79-2.79-2.79s-2.79,1.27-2.79,2.79,1.2,2.72,2.67,2.78c1.62.07,2.82-1.22,2.91-2.78.04-.77-1.16-.77-1.2,0Z"/>
    </g>
  </g>
  <g>
    <g>
      <g>
        <path class="cls-7" d="m198.31,17.87h-4.96c-1.38,0-2.49,1.12-2.49,2.49v4h-15.97c-4.74,0-8.58,3.84-8.58,8.58v34.84h34.5V20.36c0-1.38-1.12-2.49-2.49-2.49Z"/>
        <path class="cls-24" d="m198.31,17.87h-4.96c-1.38,0-2.49,1.12-2.49,2.49v4h-15.97c-4.74,0-8.58,3.84-8.58,8.58v34.84h34.5V20.36c0-1.38-1.12-2.49-2.49-2.49Z"/>
      </g>
      <polygon class="cls-60" points="194.2 61.78 180.59 61.78 180.53 36.28 187.15 36.28 194.2 46.51 194.2 61.78"/>
      <polygon class="cls-57" points="187.53 61.78 173.42 61.78 173.42 46.51 180.53 36.28 187.53 46.51 187.53 61.78"/>
      <rect class="cls-6" x="187.53" y="46.51" width="6.67" height="15.27" transform="translate(381.73 108.29) rotate(180)"/>
      <rect class="cls-8" x="188.82" y="54.72" width="4.08" height="4.08"/>
      <rect class="cls-8" x="188.82" y="47.58" width="4.08" height="4.08"/>
      <line class="cls-8" x1="189.03" y1="49.62" x2="192.7" y2="49.62"/>
      <line class="cls-8" x1="190.87" y1="47.78" x2="190.87" y2="51.46"/>
      <line class="cls-8" x1="189.03" y1="56.77" x2="192.7" y2="56.77"/>
      <line class="cls-8" x1="190.87" y1="54.93" x2="190.87" y2="58.6"/>
      <rect class="cls-8" x="181.67" y="54.72" width="4.08" height="4.08"/>
      <rect class="cls-8" x="181.67" y="47.58" width="4.08" height="4.08"/>
      <line class="cls-8" x1="181.88" y1="49.62" x2="185.55" y2="49.62"/>
      <line class="cls-8" x1="183.72" y1="47.78" x2="183.72" y2="51.46"/>
      <rect class="cls-8" x="175.39" y="47.58" width="4.08" height="4.08"/>
      <line class="cls-8" x1="175.6" y1="49.62" x2="179.27" y2="49.62"/>
      <line class="cls-8" x1="177.44" y1="47.78" x2="177.44" y2="51.46"/>
      <line class="cls-8" x1="181.88" y1="56.77" x2="185.55" y2="56.77"/>
      <line class="cls-8" x1="183.72" y1="54.93" x2="183.72" y2="58.6"/>
      <path class="cls-33" d="m180.01,59.69c4.73-.19,9.46-.19,14.19,0-4.73.19-9.46.19-14.19,0h0Z"/>
      <rect class="cls-60" x="175.39" y="54.72" width="4.08" height="7.06"/>
      <path class="cls-33" d="m174.79,61.78c-.07-2.54-.12-5.09-.13-7.63,0-.07.06-.13.13-.13,1.74-.01,3.49-.01,5.23,0,.07,0,.13.06.13.13,0,2.54-.05,5.09-.13,7.63-.07-2.54-.12-5.09-.13-7.63l.13.13c-1.74.01-3.49.01-5.23,0l.13-.13c0,2.54-.05,5.09-.13,7.63,0,0,.07-2.54,0,0Z"/>
      <path class="cls-33" d="m173.42,46.51c4.7-.19,9.41-.19,14.11,0-4.7.19-9.41.19-14.11,0h0Z"/>
      <polygon class="cls-57" points="185.13 39.76 187.37 43.09 190.5 43.09 190.5 32.96 185.13 32.96 185.13 39.76"/>
      <polygon class="cls-6" points="187.37 43.09 190.5 43.09 190.5 32.96 187.53 32.96 187.37 43.09"/>
      <path class="cls-33" d="m185.13,34.27c1.79-.19,3.58-.19,5.36,0-1.79.19-3.58.19-5.36,0h0Z"/>
      <polygon class="cls-60" points="194.7 23.59 193.8 23.59 196.72 19.7 197.63 19.7 194.7 23.59"/>
      <polygon class="cls-60" points="196.72 23.59 197.63 23.59 194.7 19.7 193.8 19.7 196.72 23.59"/>
    </g>
    <g>
      <g>
        <path class="cls-7" d="m257.15,29.55h-6.13c-1.7,0-3.08,1.38-3.08,3.08v4.94h-19.72c-5.85,0-10.59,4.74-10.59,10.59v43.01h42.59v-58.54c0-1.7-1.38-3.08-3.08-3.08Z"/>
        <path class="cls-24" d="m257.15,29.55h-6.13c-1.7,0-3.08,1.38-3.08,3.08v4.94h-19.72c-5.85,0-10.59,4.74-10.59,10.59v43.01h42.59v-58.54c0-1.7-1.38-3.08-3.08-3.08Z"/>
      </g>
      <g>
        <polygon class="cls-57" points="228.4 63.67 230.35 66.59 233.09 66.59 233.09 51.47 228.4 51.47 228.4 63.67"/>
        <polygon class="cls-6" points="230.35 66.59 233.09 66.59 233.09 51.47 230.49 51.47 230.35 66.59"/>
        <path class="cls-33" d="m228.4,52.62c1.56-.19,3.13-.19,4.69,0-1.56.19-3.13.19-4.69,0h0Z"/>
        <polygon class="cls-60" points="252.07 83.76 235.27 83.76 235.2 52.29 243.36 52.29 252.07 64.91 252.07 83.76"/>
        <polygon class="cls-57" points="243.84 83.76 226.42 83.76 226.42 64.91 235.2 52.29 243.84 64.91 243.84 83.76"/>
        <rect class="cls-6" x="243.84" y="64.91" width="8.23" height="18.85" transform="translate(495.91 148.67) rotate(180)"/>
        <rect class="cls-8" x="245.43" y="66.23" width="5.04" height="5.04"/>
        <line class="cls-8" x1="245.69" y1="68.75" x2="250.22" y2="68.75"/>
        <line class="cls-8" x1="247.96" y1="66.48" x2="247.96" y2="71.02"/>
        <rect class="cls-8" x="236.61" y="75.05" width="5.04" height="5.04"/>
        <rect class="cls-8" x="236.61" y="66.23" width="5.04" height="5.04"/>
        <line class="cls-8" x1="236.86" y1="68.75" x2="241.4" y2="68.75"/>
        <line class="cls-8" x1="239.13" y1="66.48" x2="239.13" y2="71.02"/>
        <rect class="cls-8" x="228.85" y="66.23" width="5.04" height="5.04"/>
        <line class="cls-8" x1="229.11" y1="68.75" x2="233.64" y2="68.75"/>
        <line class="cls-8" x1="231.37" y1="66.48" x2="231.37" y2="71.02"/>
        <line class="cls-8" x1="236.86" y1="77.57" x2="241.4" y2="77.57"/>
        <line class="cls-8" x1="239.13" y1="75.3" x2="239.13" y2="79.84"/>
        <rect class="cls-60" x="228.85" y="75.05" width="5.04" height="8.71"/>
        <path class="cls-33" d="m228.1,83.76c-.09-3.14-.09-6.28-.12-9.43,0-.06.05-.12.12-.12,2.15-.03,4.3-.03,6.45,0,.06,0,.12.05.12.12-.03,3.14-.03,6.28-.12,9.43-.09-3.14-.09-6.28-.12-9.43l.12.12c-2.15.03-4.3.03-6.45,0l.12-.12c-.03,3.14-.03,6.28-.12,9.43,0,0,.09-3.14,0,0Z"/>
        <rect class="cls-60" x="245.99" y="75.05" width="4.01" height="8.71"/>
        <path class="cls-33" d="m245.39,83.76c-.08-3.14-.13-6.28-.13-9.43,0-.07.06-.13.13-.13,0,0,5.13,0,5.13,0,.07,0,.13.06.13.13,0,3.14-.05,6.28-.13,9.43-.08-3.14-.13-6.28-.13-9.43l.13.13h-5.13s.13-.13.13-.13c0,3.14-.05,6.28-.13,9.43h0Z"/>
        <path class="cls-33" d="m226.42,64.91c5.81-.19,11.61-.19,17.42,0-5.81.19-11.61.19-17.42,0h0Z"/>
        <path class="cls-8" d="m237.58,60.19c0,1.42-1.15,2.57-2.57,2.57s-2.57-1.15-2.57-2.57,1.15-2.57,2.57-2.57,2.57,1.15,2.57,2.57Z"/>
      </g>
      <polygon class="cls-60" points="252.69 36.62 251.57 36.62 255.19 31.81 256.3 31.81 252.69 36.62"/>
      <polygon class="cls-60" points="255.19 36.62 256.3 36.62 252.69 31.81 251.57 31.81 255.19 36.62"/>
    </g>
    <g>
      <g>
        <path class="cls-7" d="m313.67,119.95h-6.13c-1.7,0-3.08,1.38-3.08,3.08v4.94h-19.72c-5.85,0-10.59,4.74-10.59,10.59v43.01h42.59v-58.54c0-1.7-1.38-3.08-3.08-3.08Z"/>
        <path class="cls-24" d="m313.67,119.95h-6.13c-1.7,0-3.08,1.38-3.08,3.08v4.94h-19.72c-5.85,0-10.59,4.74-10.59,10.59v43.01h42.59v-58.54c0-1.7-1.38-3.08-3.08-3.08Z"/>
      </g>
      <polygon class="cls-60" points="309.22 127.02 308.1 127.02 311.71 122.21 312.83 122.21 309.22 127.02"/>
      <polygon class="cls-60" points="311.71 127.02 312.83 127.02 309.22 122.21 308.1 122.21 311.71 127.02"/>
      <polygon class="cls-60" points="287.81 174.16 280.83 174.16 280.83 166.61 284.35 163.55 287.81 166.61 287.81 174.16"/>
      <polygon class="cls-60" points="309.99 174.16 293.19 174.16 293.11 147.69 301.28 147.69 309.99 155.31 309.99 174.16"/>
      <polygon class="cls-57" points="301.75 174.16 284.33 174.16 284.33 155.31 293.11 147.69 301.75 155.31 301.75 174.16"/>
      <rect class="cls-6" x="301.75" y="155.31" width="8.23" height="18.85" transform="translate(611.74 329.47) rotate(180)"/>
      <rect class="cls-8" x="303.35" y="165.45" width="5.04" height="5.04"/>
      <rect class="cls-8" x="303.35" y="156.63" width="5.04" height="5.04"/>
      <line class="cls-8" x1="303.6" y1="159.15" x2="308.14" y2="159.15"/>
      <line class="cls-8" x1="305.87" y1="156.88" x2="305.87" y2="161.42"/>
      <line class="cls-8" x1="303.6" y1="167.97" x2="308.14" y2="167.97"/>
      <line class="cls-8" x1="305.87" y1="165.7" x2="305.87" y2="170.24"/>
      <rect class="cls-8" x="294.52" y="165.45" width="5.04" height="5.04"/>
      <rect class="cls-8" x="294.52" y="156.63" width="5.04" height="5.04"/>
      <line class="cls-8" x1="294.77" y1="159.15" x2="299.31" y2="159.15"/>
      <line class="cls-8" x1="297.04" y1="156.88" x2="297.04" y2="161.42"/>
      <rect class="cls-8" x="286.77" y="156.63" width="5.04" height="5.04"/>
      <line class="cls-8" x1="287.02" y1="159.15" x2="291.56" y2="159.15"/>
      <line class="cls-8" x1="289.29" y1="156.88" x2="289.29" y2="161.42"/>
      <line class="cls-8" x1="294.77" y1="167.97" x2="299.31" y2="167.97"/>
      <line class="cls-8" x1="297.04" y1="165.7" x2="297.04" y2="170.24"/>
      <path class="cls-33" d="m280.83,171.58c1.73-.19,3.46-.19,5.19,0-1.73.19-3.46.19-5.19,0h0Z"/>
      <path class="cls-33" d="m292.47,171.58c5.84-.19,11.68-.19,17.51,0-5.84.19-11.68.19-17.51,0h0Z"/>
      <rect class="cls-60" x="286.77" y="165.45" width="5.04" height="8.71"/>
      <path class="cls-33" d="m286.02,174.16c-.09-3.14-.09-6.28-.12-9.43,0-.06.05-.12.12-.12,2.15-.03,4.3-.03,6.45,0,.06,0,.12.05.12.12-.03,3.14-.03,6.28-.12,9.43-.09-3.14-.09-6.28-.12-9.43l.12.12c-2.15.03-4.3.03-6.45,0l.12-.12c-.03,3.14-.03,6.28-.12,9.43,0,0,.09-3.14,0,0Z"/>
      <path class="cls-33" d="m284.33,155.31c5.81-.19,11.61-.19,17.42,0-5.81.19-11.61.19-17.42,0h0Z"/>
    </g>
    <g>
      <g>
        <path class="cls-7" d="m345.29,57.13h-5.52c-1.53,0-2.77,1.24-2.77,2.77v4.44h-17.75c-5.26,0-9.53,4.27-9.53,9.53v38.71h38.33v-52.68c0-1.53-1.24-2.77-2.77-2.77Z"/>
        <path class="cls-24" d="m345.29,57.13h-5.52c-1.53,0-2.77,1.24-2.77,2.77v4.44h-17.75c-5.26,0-9.53,4.27-9.53,9.53v38.71h38.33v-52.68c0-1.53-1.24-2.77-2.77-2.77Z"/>
      </g>
      <polygon class="cls-60" points="340.72 105.92 325.6 105.92 325.54 77.59 332.88 77.59 340.72 88.96 340.72 105.92"/>
      <polygon class="cls-57" points="333.31 105.92 317.63 105.92 317.63 88.96 325.54 77.59 333.31 88.96 333.31 105.92"/>
      <rect class="cls-6" x="333.31" y="88.96" width="7.41" height="16.97" transform="translate(674.03 194.88) rotate(180)"/>
      <rect class="cls-8" x="334.75" y="98.08" width="4.54" height="4.54"/>
      <rect class="cls-8" x="334.75" y="90.14" width="4.54" height="4.54"/>
      <line class="cls-8" x1="334.97" y1="92.41" x2="339.06" y2="92.41"/>
      <line class="cls-8" x1="337.02" y1="90.37" x2="337.02" y2="94.45"/>
      <line class="cls-8" x1="334.97" y1="100.35" x2="339.06" y2="100.35"/>
      <line class="cls-8" x1="337.02" y1="98.31" x2="337.02" y2="102.39"/>
      <rect class="cls-8" x="326.8" y="98.08" width="4.54" height="4.54"/>
      <rect class="cls-8" x="326.8" y="90.14" width="4.54" height="4.54"/>
      <line class="cls-8" x1="327.03" y1="92.41" x2="331.11" y2="92.41"/>
      <line class="cls-8" x1="329.07" y1="90.37" x2="329.07" y2="94.45"/>
      <rect class="cls-8" x="319.82" y="90.14" width="4.54" height="4.54"/>
      <line class="cls-8" x1="320.05" y1="92.41" x2="324.14" y2="92.41"/>
      <line class="cls-8" x1="322.09" y1="90.37" x2="322.09" y2="94.45"/>
      <line class="cls-8" x1="327.03" y1="100.35" x2="331.11" y2="100.35"/>
      <line class="cls-8" x1="329.07" y1="98.31" x2="329.07" y2="102.39"/>
      <path class="cls-33" d="m324.96,103.6c5.25-.19,10.51-.19,15.76,0-5.25.19-10.51.19-15.76,0h0Z"/>
      <rect class="cls-60" x="319.82" y="98.08" width="4.54" height="7.84"/>
      <path class="cls-33" d="m319.15,105.92c-.07-2.83-.12-5.66-.13-8.48,0-.07.06-.13.13-.13,1.94-.01,3.87-.01,5.81,0,.07,0,.13.06.13.13,0,2.83-.05,5.66-.13,8.48-.07-2.83-.12-5.66-.13-8.48l.13.13c-1.94.01-3.87.01-5.81,0l.13-.13c0,2.83-.05,5.66-.13,8.48,0,0,.07-2.83,0,0Z"/>
      <path class="cls-33" d="m317.63,88.96c5.23-.19,10.45-.19,15.68,0-5.23.19-10.45.19-15.68,0h0Z"/>
      <polygon class="cls-57" points="330.65 81.45 333.13 85.16 336.6 85.16 336.6 73.9 330.65 73.9 330.65 81.45"/>
      <polygon class="cls-6" points="333.13 85.16 336.6 85.16 336.6 73.9 333.31 73.9 333.13 85.16"/>
      <path class="cls-33" d="m330.65,75.36c1.99-.19,3.97-.19,5.96,0-1.99.19-3.97.19-5.96,0h0Z"/>
      <polygon class="cls-60" points="341.28 63.5 340.27 63.5 343.53 59.17 344.53 59.17 341.28 63.5"/>
      <polygon class="cls-60" points="343.53 63.5 344.53 63.5 341.28 59.17 340.27 59.17 343.53 63.5"/>
    </g>
    <g>
      <g>
        <path class="cls-7" d="m257.4,153.03h-4.96c-1.38,0-2.49,1.12-2.49,2.49v4h-15.97c-4.74,0-8.58,3.84-8.58,8.58v34.84h34.5v-47.42c0-1.38-1.12-2.49-2.49-2.49Z"/>
        <path class="cls-24" d="m257.4,153.03h-4.96c-1.38,0-2.49,1.12-2.49,2.49v4h-15.97c-4.74,0-8.58,3.84-8.58,8.58v34.84h34.5v-47.42c0-1.38-1.12-2.49-2.49-2.49Z"/>
      </g>
      <polygon class="cls-60" points="253.29 196.95 239.68 196.95 239.62 171.45 246.23 171.45 253.29 181.68 253.29 196.95"/>
      <polygon class="cls-57" points="246.62 196.95 232.51 196.95 232.51 181.68 239.62 171.45 246.62 181.68 246.62 196.95"/>
      <rect class="cls-6" x="246.62" y="181.68" width="6.67" height="15.27" transform="translate(499.91 378.62) rotate(180)"/>
      <rect class="cls-8" x="247.91" y="189.89" width="4.08" height="4.08"/>
      <rect class="cls-8" x="247.91" y="182.74" width="4.08" height="4.08"/>
      <line class="cls-8" x1="248.12" y1="184.79" x2="251.79" y2="184.79"/>
      <line class="cls-8" x1="249.95" y1="182.95" x2="249.95" y2="186.62"/>
      <line class="cls-8" x1="248.12" y1="191.93" x2="251.79" y2="191.93"/>
      <line class="cls-8" x1="249.95" y1="190.1" x2="249.95" y2="193.77"/>
      <rect class="cls-8" x="240.76" y="189.89" width="4.08" height="4.08"/>
      <rect class="cls-8" x="240.76" y="182.74" width="4.08" height="4.08"/>
      <line class="cls-8" x1="240.97" y1="184.79" x2="244.64" y2="184.79"/>
      <line class="cls-8" x1="242.8" y1="182.95" x2="242.8" y2="186.62"/>
      <rect class="cls-8" x="234.48" y="182.74" width="4.08" height="4.08"/>
      <line class="cls-8" x1="234.69" y1="184.79" x2="238.36" y2="184.79"/>
      <line class="cls-8" x1="236.52" y1="182.95" x2="236.52" y2="186.62"/>
      <line class="cls-8" x1="240.97" y1="191.93" x2="244.64" y2="191.93"/>
      <line class="cls-8" x1="242.8" y1="190.1" x2="242.8" y2="193.77"/>
      <path class="cls-33" d="m239.1,194.85c4.73-.19,9.46-.19,14.19,0-4.73.19-9.46.19-14.19,0h0Z"/>
      <rect class="cls-60" x="234.48" y="189.89" width="4.08" height="7.06"/>
      <path class="cls-33" d="m233.87,196.95c-.07-2.54-.12-5.09-.13-7.63,0-.07.06-.13.13-.13,1.74-.01,3.49-.01,5.23,0,.07,0,.13.06.13.13,0,2.54-.05,5.09-.13,7.63-.07-2.54-.12-5.09-.13-7.63l.13.13c-1.74.01-3.49.01-5.23,0l.13-.13c0,2.54-.05,5.09-.13,7.63,0,0,.07-2.54,0,0Z"/>
      <path class="cls-33" d="m232.51,181.68c4.7-.19,9.41-.19,14.11,0-4.7.19-9.41.19-14.11,0h0Z"/>
      <polygon class="cls-57" points="244.22 174.92 246.46 178.26 249.58 178.26 249.58 168.13 244.22 168.13 244.22 174.92"/>
      <polygon class="cls-6" points="246.46 178.26 249.58 178.26 249.58 168.13 246.62 168.13 246.46 178.26"/>
      <path class="cls-33" d="m244.22,169.44c1.79-.19,3.58-.19,5.36,0-1.79.19-3.58.19-5.36,0h0Z"/>
      <polygon class="cls-60" points="253.79 158.76 252.89 158.76 255.81 154.87 256.71 154.87 253.79 158.76"/>
      <polygon class="cls-60" points="255.81 158.76 256.71 158.76 253.79 154.87 252.89 154.87 255.81 158.76"/>
    </g>
    <g>
      <g>
        <path class="cls-7" d="m322.46,9.03h-6.13c-1.7,0-3.08,1.38-3.08,3.08v4.94h-19.72c-5.85,0-10.59,4.74-10.59,10.59v43.01h42.59V12.11c0-1.7-1.38-3.08-3.08-3.08Z"/>
        <path class="cls-24" d="m322.46,9.03h-6.13c-1.7,0-3.08,1.38-3.08,3.08v4.94h-19.72c-5.85,0-10.59,4.74-10.59,10.59v43.01h42.59V12.11c0-1.7-1.38-3.08-3.08-3.08Z"/>
      </g>
      <polygon class="cls-60" points="317.38 63.24 300.58 63.24 300.51 31.76 308.67 31.76 317.38 44.39 317.38 63.24"/>
      <polygon class="cls-57" points="309.15 63.24 291.73 63.24 291.73 44.39 300.51 31.76 309.15 44.39 309.15 63.24"/>
      <rect class="cls-6" x="309.15" y="44.39" width="8.23" height="18.85" transform="translate(626.53 107.63) rotate(180)"/>
      <rect class="cls-8" x="310.75" y="54.53" width="5.04" height="5.04"/>
      <rect class="cls-8" x="310.75" y="45.71" width="5.04" height="5.04"/>
      <line class="cls-8" x1="311" y1="48.23" x2="315.54" y2="48.23"/>
      <line class="cls-8" x1="313.27" y1="45.96" x2="313.27" y2="50.5"/>
      <line class="cls-8" x1="311" y1="57.05" x2="315.54" y2="57.05"/>
      <line class="cls-8" x1="313.27" y1="54.78" x2="313.27" y2="59.32"/>
      <rect class="cls-8" x="301.92" y="54.53" width="5.04" height="5.04"/>
      <rect class="cls-8" x="301.92" y="45.71" width="5.04" height="5.04"/>
      <line class="cls-8" x1="302.17" y1="48.23" x2="306.71" y2="48.23"/>
      <line class="cls-8" x1="304.44" y1="45.96" x2="304.44" y2="50.5"/>
      <rect class="cls-8" x="294.17" y="45.71" width="5.04" height="5.04"/>
      <line class="cls-8" x1="294.42" y1="48.23" x2="298.95" y2="48.23"/>
      <line class="cls-8" x1="296.69" y1="45.96" x2="296.69" y2="50.5"/>
      <line class="cls-8" x1="302.17" y1="57.05" x2="306.71" y2="57.05"/>
      <line class="cls-8" x1="304.44" y1="54.78" x2="304.44" y2="59.32"/>
      <path class="cls-33" d="m299.87,60.66c5.84-.19,11.68-.19,17.51,0-5.84.19-11.68.19-17.51,0h0Z"/>
      <rect class="cls-60" x="294.17" y="54.53" width="5.04" height="8.71"/>
      <path class="cls-33" d="m293.42,63.24c-.09-3.14-.09-6.28-.12-9.43,0-.06.05-.12.12-.12,2.15-.03,4.3-.03,6.45,0,.06,0,.12.05.12.12-.03,3.14-.03,6.28-.12,9.43-.09-3.14-.09-6.28-.12-9.43l.12.12c-2.15.03-4.3.03-6.45,0l.12-.12c-.03,3.14-.03,6.28-.12,9.43,0,0,.09-3.14,0,0Z"/>
      <path class="cls-33" d="m291.73,44.39c5.81-.19,11.61-.19,17.42,0-5.81.19-11.61.19-17.42,0h0Z"/>
      <polygon class="cls-60" points="318 16.1 316.89 16.1 320.5 11.29 321.61 11.29 318 16.1"/>
      <polygon class="cls-60" points="320.5 16.1 321.61 16.1 318 11.29 316.89 11.29 320.5 16.1"/>
    </g>
  </g>
  <g>
    <path class="cls-65" d="m215.44,188.7c-1.05-2.34-1.61-.37-3.07-.49-1.46-.11.46-4.69-2.22-6.57-2.68-1.88-2.11,2.09-3.9,3.08-1.79.99.72-3.77-1.47-4.98s-1.58.85-2.43,4.86c-.85,4.01-3.03-1.78-7.25-1.24-4.21.54-4.23,3.9-2.4,7.16,1.83,3.26,3.69.92,5.63,1.26,1.94.34.77,1.81-1.93,1.67-2.7-.14-1.21.14-1.28,2.38s3.25,2.09,5.7,1.93,1.8,1.12.28,2.44c-1.52,1.31-.35.91,2.93,3.17,3.28,2.26,8.33,2.33,8.33,2.33,5.06-3.73,4.13-14.66,3.08-17Zm-18.12,1.19c-4.6.62-4.25-4.26-1.94-3.85,0,0,6.54,3.23,1.94,3.85Zm3.36,4.78c-1.22-1.59,2.19-1.74,2.19-1.74,2.36,1.11-.98,3.33-2.19,1.74Zm3.69-5.71c-2.28-1.6-.26-3.09-.26-3.09.74-.97,3.72.51,4.01,2.26s-1.48,2.43-3.75.83Zm2.93,13.68c-4.5-1.52-2.79-3.6-1.33-5.36,1.46-1.76,5.01,1.6,5.01,1.6,3.18,2,.82,5.27-3.68,3.76Z"/>
    <path class="cls-45" d="m265.57,199.82c.38,1.42,3.84,2.02,5.27,3.11,1.44,1.08,3.19,2.71,2.01,2.76s-6.64-2.58-6.69-2.06c-.05.51,2.75,5.03,5.16,7.53s5.89,4.28,7.04,4.53c0,0,9.22-5.51,11.16-9.87,1.94-4.36,1.99-12.83.09-10.49-1.9,2.34-2.68,4.03-4.2,4.05-1.52.01-.23-1.71.22-2.41.45-.7,2.8-5.5,2.39-7.45-.41-1.95-3.78-7.42-4.49-5.3s-1.61,4.69-2.74,5.11-1.57-1.17-1.1-2.31c.47-1.14.63-3.63.39-5.42s-5.19-4.44-7.48-5.74c-2.29-1.31-4.58-1.95-4.58-1.14,0,.81-1.86,11.4-1.55,12.01.31.62,6.15,3.12,6.18,3.64.03.52-.49,1.36-2.7.72-2.21-.64-3.57-1.35-3.96-.13-.39,1.22-.82,7.46-.44,8.88Zm14.06-3.52c.21-.76,1.6-3.72,2.77-2.74,1.1.93.05,3.17-.69,4-.16.18-.32.32-.48.43-1.08.72-1.98-.31-1.6-1.69Zm-5.37-9.19c-.47-.42-.71-1.06-.71-1.7,0-.63.2-1.25.5-1.81.08-.15.18-.31.33-.39.24-.13.54-.03.73.16.71.71.64,2.17.43,3.06-.06.24-.17.51-.34.69-.13.14-.29.23-.49.21-.17-.01-.33-.11-.46-.23Zm-4.21,9.56c.41-.46,1.18-.45,1.69-.11.51.34.81.92,1.01,1.51.16.47.55,1.95.35,2.85-.11.51-.4.83-1.03.69-.44-.1-.77-.45-1.03-.81-.54-.73-.94-1.56-1.17-2.44-.15-.57-.2-1.24.19-1.68Z"/>
    <path class="cls-65" d="m274.12,234.82s2.64-9.26,3.08-17.77c.44-8.51-1.63-22.91-1.63-22.91l1.18-1.14s1.45,15.42,1.41,23.17c-.04,7.75-2.66,19-2.66,19l-1.38-.36Z"/>
    <path class="cls-61" d="m284.58,204.29c-.85,1.33,1.16,4.53,1.34,6.46s.15,4.51-.73,3.6-2.75-7.17-3.19-6.84c-.44.33-2,5.83-2.24,9.55-.24,3.72.86,7.8,1.49,8.9,0,0,11.01,3.41,15.86,1.82s11.59-7.65,8.37-7.49c-3.22.16-5.13.76-6.23-.44-1.1-1.21,1.19-1.42,2.07-1.56.88-.14,6.37-1.72,7.62-3.45,1.25-1.73,3.16-8.37.97-7.41-2.19.96-4.87,2.09-6.02,1.48-1.15-.61-.21-2.1,1.03-2.54,1.24-.44,3.33-2.11,4.57-3.59s-.23-7.35-.85-10.13c-.62-2.78-1.75-5.07-2.4-4.49-.64.58-10.37,6.73-10.63,7.42-.27.69,1.96,7.17,1.57,7.57s-1.43.58-2.52-1.64-1.5-3.82-2.75-3.26c-1.24.57-6.5,4.72-7.35,6.05Zm12.92,8.71c.75-.38,4.1-1.4,4.16.25.06,1.56-2.47,2.32-3.67,2.33-.26,0-.49-.03-.68-.08-1.35-.35-1.18-1.8.19-2.5Zm3.41-10.92c-.01-.68.33-1.33.83-1.79.5-.46,1.14-.74,1.8-.91.18-.04.37-.08.55-.02.27.1.41.41.4.7-.05,1.08-1.26,2.08-2.11,2.56-.23.13-.52.23-.79.23-.21,0-.39-.07-.52-.23-.11-.15-.15-.34-.15-.53Zm-10.61,3.52c.66,0,1.2.62,1.3,1.27.1.65-.15,1.31-.47,1.89-.26.47-1.15,1.84-2,2.33-.48.28-.95.28-1.29-.32-.24-.42-.19-.94-.1-1.41.19-.96.56-1.88,1.09-2.7.34-.53.83-1.06,1.46-1.06Z"/>
    <path class="cls-43" d="m272.63,250.71s3.43-13.01,8.31-22.64c4.87-9.63,17.92-21.38,17.92-21.38l-1-.26s-11.48,9.04-17.78,20.3c-6.3,11.27-8.48,23.71-8.48,23.71l1.04.27Z"/>
  </g>
  <ellipse class="cls-22" cx="166.25" cy="255.79" rx="155.44" ry="11.42"/>
  <ellipse class="cls-27" cx="157.39" cy="255.26" rx="120.42" ry="6.54"/>
  <g>
    <path class="cls-26" d="m284.89,249.52c0,1.25-22.49,2.26-50.23,2.26s-50.23-1.01-50.23-2.26,22.49-2.26,50.23-2.26,50.23,1.01,50.23,2.26Z"/>
    <g>
      <rect class="cls-31" x="222.28" y="142.98" width="19.77" height="27.27"/>
      <rect class="cls-2" x="242.06" y="142.98" width="29.73" height="27.27"/>
      <path class="cls-31" d="m263.92,149.28c0,.49-.2.94-.52,1.26-.32.32-.77.52-1.26.52h-9.88c-.99,0-1.79-.8-1.79-1.79,0-.49.2-.94.52-1.26s.77-.52,1.26-.52h9.88c.99,0,1.79.8,1.79,1.78Z"/>
      <rect class="cls-41" x="222.28" y="142.98" width="49.5" height="3.27"/>
      <g>
        <path class="cls-59" d="m244.31,139.39l-6.81,29.63c-.17.73-.79,1.24-1.51,1.24h-30.39c-1.06,0-1.81-1.07-1.48-2.12l9.31-29.63c.21-.66.81-1.11,1.48-1.11h27.89c1.01,0,1.75.97,1.51,1.99Z"/>
        <path class="cls-22" d="m242.36,139.39l-6.81,29.63c-.17.73-.79,1.24-1.51,1.24h-30.39c-1.06,0-1.81-1.07-1.48-2.12l9.31-29.63c.21-.66.81-1.11,1.48-1.11h27.89c1.01,0,1.75.97,1.51,1.99Z"/>
      </g>
    </g>
    <g>
      <rect class="cls-69" x="209.26" y="204.44" width="42.13" height="9.61" rx="4.81" ry="4.81"/>
      <rect class="cls-22" x="238.71" y="204.44" width="42.13" height="9.61" rx="4.81" ry="4.81"/>
      <rect class="cls-31" x="212.52" y="214.05" width="25.74" height="35.5"/>
      <rect class="cls-48" x="238.26" y="214.05" width="38.69" height="35.5"/>
      <path class="cls-31" d="m266.71,222.25c0,.64-.26,1.22-.68,1.64-.42.42-1,.68-1.64.68h-12.86c-1.28,0-2.32-1.04-2.32-2.32,0-.64.26-1.22.68-1.64.42-.42,1-.68,1.64-.68h12.86c1.28,0,2.32,1.04,2.32,2.32Z"/>
      <rect class="cls-41" x="212.52" y="214.05" width="64.43" height="4.26"/>
    </g>
    <g>
      <rect class="cls-19" x="208.94" y="169.8" width="32.36" height="7.38" rx="3.69" ry="3.69"/>
      <rect class="cls-22" x="231.57" y="169.8" width="32.36" height="7.38" rx="3.69" ry="3.69"/>
      <rect class="cls-31" x="211.44" y="177.18" width="19.77" height="27.27"/>
      <rect class="cls-54" x="231.22" y="177.18" width="29.73" height="27.27"/>
      <path class="cls-31" d="m253.08,183.48c0,.49-.2.94-.52,1.26-.32.32-.77.52-1.26.52h-9.88c-.99,0-1.79-.8-1.79-1.79,0-.49.2-.94.52-1.26.32-.32.77-.52,1.26-.52h9.88c.99,0,1.79.8,1.79,1.78Z"/>
      <rect class="cls-41" x="211.44" y="177.18" width="49.5" height="3.27"/>
    </g>
    <rect class="cls-31" x="241.31" y="188.97" width="22.56" height="15.49" rx="7.74" ry="7.74"/>
    <path class="cls-70" d="m273.95,190.54v12.34c0,.87-.7,1.57-1.57,1.57h-19.42c-.87,0-1.57-.7-1.57-1.57v-12.34c0-.46.2-.87.51-1.16.28-.25.65-.41,1.06-.41h19.42c.87,0,1.57.7,1.57,1.57Z"/>
    <path class="cls-22" d="m273.95,190.54v12.34c0,.87-.7,1.57-1.57,1.57h-5.68v-8.33c0-2.44-1.98-4.41-4.41-4.41h-6.5c-1.69,0-3.15-.95-3.89-2.34.28-.25.65-.41,1.06-.41h19.42c.87,0,1.57.7,1.57,1.57Z"/>
  </g>
  <g>
    <g>
      <path class="cls-7" d="m111.12,7.73h-1.35c-3.24,0-5.86,2.63-5.86,5.86v2.67h-17.82c-7.99,0-14.47,6.48-14.47,14.47v42.62h45.36V13.59c0-3.24-2.63-5.86-5.86-5.86Z"/>
      <path class="cls-23" d="m111.12,7.73h-1.35c-3.24,0-5.86,2.63-5.86,5.86v2.67h-17.82c-7.99,0-14.47,6.48-14.47,14.47v42.62h45.36V13.59c0-3.24-2.63-5.86-5.86-5.86Z"/>
    </g>
    <polygon class="cls-40" points="108.91 16.97 107.81 16.97 111.38 12.21 112.49 12.21 108.91 16.97"/>
    <polygon class="cls-40" points="111.38 16.97 112.49 16.97 108.91 12.21 107.81 12.21 111.38 16.97"/>
    <g>
      <rect class="cls-51" x="92.59" y="62.94" width="1.26" height="17.07"/>
      <rect class="cls-17" x="92.19" y="61.88" width="2.06" height="2.06"/>
      <rect class="cls-40" x="92.19" y="64.78" width="2.06" height="27.07"/>
      <g>
        <path class="cls-17" d="m94.81,25.66c-.53,0-1.06.03-1.58.09,8.38.91,14.93,8.97,14.93,18.79s-6.55,17.88-14.93,18.79c.52.06,1.05.09,1.58.09,9.12,0,16.51-8.45,16.51-18.88s-7.39-18.88-16.51-18.88Z"/>
        <path class="cls-17" d="m78.3,44.54c0-9.82,6.55-17.88,14.93-18.79-.52-.06-1.05-.09-1.58-.09-9.12,0-16.51,8.45-16.51,18.88s7.39,18.88,16.51,18.88c.53,0,1.06-.03,1.58-.09-8.38-.91-14.93-8.97-14.93-18.79Z"/>
        <path class="cls-7" d="m108.16,44.54c0-9.82-6.55-17.88-14.93-18.79-8.38.91-14.93,8.97-14.93,18.79s6.55,17.88,14.93,18.79c8.38-.91,14.93-8.97,14.93-18.79Z"/>
      </g>
      <path class="cls-25" d="m108.11,44.54c.3,12.1-11.3,23.28-23.24,17.33-13.14-6.71-13.14-27.94,0-34.65,11.95-5.96,23.54,5.22,23.24,17.33h0Zm0,0c.24-12.03-11.31-23.15-23.16-17.17-12.89,6.63-12.89,27.71,0,34.34,11.86,5.98,23.4-5.14,23.16-17.17h0Z"/>
    </g>
    <g>
      <polygon class="cls-40" points="103.45 55.23 89.45 55.23 89.39 33.18 96.19 33.18 103.45 39.53 103.45 55.23"/>
      <polygon class="cls-13" points="96.59 55.23 82.08 55.23 82.08 39.53 89.39 33.18 96.59 39.53 96.59 55.23"/>
      <rect class="cls-53" x="96.59" y="39.53" width="6.86" height="15.7" transform="translate(200.04 94.76) rotate(180)"/>
      <rect class="cls-40" x="87.24" y="47.98" width="4.2" height="7.26"/>
      <rect class="cls-9" x="97.92" y="47.98" width="4.2" height="4.2"/>
      <rect class="cls-9" x="97.92" y="40.63" width="4.2" height="4.2"/>
      <rect class="cls-9" x="84.86" y="40.63" width="9.07" height="4.2"/>
      <path class="cls-25" d="m86.61,55.23c-.07-2.62-.12-5.23-.13-7.85,0-.07.06-.13.13-.13,1.79-.01,3.58-.01,5.38,0,.07,0,.13.06.13.13,0,2.62-.05,5.23-.13,7.85-.07-2.62-.12-5.23-.13-7.85l.13.13c-1.79.01-3.58.01-5.38,0l.13-.13c0,2.62-.05,5.23-.13,7.85,0,0,.07-2.62,0,0Z"/>
      <line class="cls-9" x1="84.86" y1="42.73" x2="89.3" y2="42.73"/>
      <line class="cls-9" x1="89.34" y1="42.73" x2="93.78" y2="42.73"/>
      <line class="cls-9" x1="89.3" y1="40.84" x2="89.3" y2="44.62"/>
      <line class="cls-9" x1="87.24" y1="40.84" x2="87.24" y2="44.62"/>
      <line class="cls-9" x1="91.44" y1="40.84" x2="91.44" y2="44.62"/>
      <line class="cls-9" x1="98.13" y1="42.73" x2="101.91" y2="42.73"/>
      <line class="cls-9" x1="100.02" y1="40.84" x2="100.02" y2="44.62"/>
      <line class="cls-9" x1="98.13" y1="50.08" x2="101.91" y2="50.08"/>
      <line class="cls-9" x1="100.02" y1="48.19" x2="100.02" y2="51.97"/>
      <path class="cls-25" d="m82.08,53.08c1.51-.19,3.02-.19,4.53,0-1.51.19-3.02.19-4.53,0h0Z"/>
      <path class="cls-25" d="m92.06,53.08c3.79-.19,7.59-.19,11.39,0-3.79.19-7.59.19-11.39,0h0Z"/>
    </g>
  </g>
  <g>
    <path class="cls-56" d="m87.1,129.57s33.95.38,43.42,20.25c9.47,19.87,13.1,29.29,23.28,33.75,10.17,4.46-6.45,30.59-33.06,25.35-26.61-5.24-33.64-79.34-33.64-79.34Z"/>
    <ellipse class="cls-26" cx="113.78" cy="256.45" rx="58.71" ry="5.3"/>
    <path class="cls-36" d="m177.29,239.02c-2.07,5.42-6.72,10.42-13.19,13.12-1.94.81-4.75,1.59-8.22,2.31h0c-22.67,4.64-73.54,6.3-95.24-5.79-24.67-13.73-33.41-45.46-22.02-78.71.17-.48.34-.97.51-1.46,8.91-24.76,34.67-35.27,47.78-39.11,4.77-1.4,7.87-1.92,7.87-1.92,0,0,8.96,22.48,18.26,39.7,9.3,17.22,45.31,45.2,58.18,53.1,7.18,4.41,8.69,11.91,6.08,18.75Z"/>
    <path class="cls-30" d="m177.29,239.02c-2.07,5.42-6.72,10.42-13.19,13.12-1.94.81-4.75,1.59-8.22,2.31h0c-22.67,4.64-73.54,6.3-95.24-5.79-24.67-13.73-33.41-45.46-22.02-78.71-2.14,9-2.43,18.81.51,29.07,12.35,43.09,39.89,46.3,82.43,49.71,17.84,1.43,38.15-3.5,55.73-9.72Z"/>
    <path class="cls-32" d="m164.1,252.14c-1.94.81-4.75,1.59-8.22,2.31h0s7.58-8.63,5.99-14.91c-1.58-6.28-15.49-14.01-17.7-15.41-2.21-1.41-20.07,2.63-20.07,2.63,0,0,10.43,6.81,12.04,11.81,1.61,5,0,5.04-1.2,6.65-1.2,1.61,0,0-.8-5.67s-10.64-12.2-12.05-12c-1.41.2-5.62.4-14.85,0-9.22-.4-14.22-5.31-14.22-5.31,0,0-4.07.89-5.07,1.62-.81.58-4.09,3.53-5.79,7.05,1.08-3.11,3-7.38,5.79-9.08,5.43-3.31,2.41.09-1.69-7.09-4.1-7.18-9.36-18.92-10.41-20.78-1.06-1.85-9.79,7.68-11.81,7.88-2.02.2,2.82-3.41,8.39-8.67,5.57-5.26,7.08-12.01,7.04-13.9-.04-1.89-13.61,3.3-15.43,3.52-1.82.22-7.42,6.2-10.81,8.53-3.39,2.33-5.82-.4,3.11-6.03,8.93-5.62,16.07-6.12,21.97-6.87,5.9-.74,1.03-6.18,0-11.25-1.03-5.07-3.41-21.76-3.41-21.76.08-7.17,4.62-12.45,12.01-16.02,4.77-1.4,7.87-1.92,7.87-1.92,0,0,8.96,22.48,18.26,39.7,9.3,17.22,45.31,45.2,58.18,53.1,12.87,7.9,7.52,25.76-7.1,31.87Z"/>
    <g>
      <path class="cls-29" d="m122.08,189.29s-5.9.46-13.26.77c-11.94.5-27.75.61-28.51-2.28-.15-.56,1.02-6.1,1.66-9.03.23-1.08.4-1.8.4-1.8l36.82-1.71,2.89,14.05Z"/>
      <path class="cls-5" d="m122.08,189.29s-5.9.46-13.26.77c-2.27-.66-8.04-2.39-11.84-4.08-2.77-1.23-9.65-4.59-15.01-7.23.23-1.08.4-1.8.4-1.8l36.82-1.71,2.89,14.05Z"/>
      <path class="cls-40" d="m121.56,122.17c-4.63,11.05-7.55,10.64-7.55,10.64,0,0,5.76-6.74,5.88-12.6.12-5.86-4.69-11.85-4.69-11.85,0,0,10.99,2.76,6.36,13.81Z"/>
      <g>
        <path class="cls-40" d="m94.3,115.01c.13.28.22.57.3.88.05-.12.09-.25.14-.37.12-.32-.17-.54-.44-.51Z"/>
        <path class="cls-40" d="m94.3,115.01c.13.28.22.57.3.88.05-.12.09-.25.14-.37.12-.32-.17-.54-.44-.51Z"/>
        <path class="cls-40" d="m123.11,98.39c.9,3.38,1.76,7.45.62,10.87-.91,2.74-3.24,4.72-6.04,5.32-.52.11-.72-.69-.2-.8,2.88-.62,5.06-2.77,5.69-5.66.67-3.09-.09-6.54-.88-9.53-.14-.51.66-.72.8-.2h0Z"/>
      </g>
      <path class="cls-40" d="m91.33,104.84s-17.38,11.53-10.07,22.11,20.53-6.21,20.53-6.21c0,0,3.25,14.5,11.34,12.35,8.08-2.15,2.77-12.2-.26-17.21-3.03-5.01-21.53-11.04-21.53-11.04Z"/>
      <path class="cls-40" d="m124.58,94.93c-.97-6.33-7.6-8.67-7.6-8.67,0,0-2.96-6.81-14.1-3.74-11.14,3.07-12.88,13.66-12.02,18.41.86,4.75.47,3.92.47,3.92,0,0-9.91-.19-10.43,4.88-.52,5.07,4.58,11.1,9.02,9.54,4.44-1.56,6.01-4.28,6.01-4.28,0,0-.18.74,2.33,3.17,2.51,2.43,21.71-9.9,21.71-9.9,0,0,5.57-7.01,4.6-13.34Zm-41.36,17.43s-.69-3.3-.09-4.57c.6-1.27,7-2.08,7-2.08-3.34,1.67-6.91,6.65-6.91,6.65Z"/>
      <path class="cls-52" d="m96.02,108.14s-7,3.53-8.38,9.02c-1.38,5.49,3.18,5.01,3.18,5.01,0,0-6.92,1.33-3.73,7.39,3.19,6.07,24.91,3.95,25.76-1.82.86-5.77-1.8-13.54-1.8-13.54l-15.03-6.07Z"/>
      <path class="cls-73" d="m107.31,120.21s-.48.58.17,1.96c.06.14.14.29.23.44.99,1.71,2.19,1.83,2.19,1.83,0,0,1.95,1.98,2.97,3.3s3.77,8.32,3.77,8.32c0,0-.7.74-2.16,1.43,1.64,4.15,2.58,8.28.3,9.1-4.86,1.76-20.21-12.45-20.21-12.45l-.08-.88c-3.41-3.13-3.89-6.52-2.09-7.44,2.74-1.41,5.87-7.66,5.87-7.66.29-2.08.45-3.42.45-3.42,0,0-3.35-.33-3.76-2.13-.42-1.81.11-5.89,1.81-7.5,1.28-1.2,2.48-.57,3.04.63h0c.04.06.54.76,1.26,0,.75-.8,1-4.22,1.64-4.41.64-.19,2.25-.07,7.41-2.9,5.15-2.83,5.77-3.68,5.77-3.68l.89.84c.9.84,3.1,3.45,3.1,3.45,0,0,1.43,17.46-3.77,20.02-4.95,2.43-8.43,1.29-8.76,1.17,0,0-.02,0-.03-.01Z"/>
      <path class="cls-74" d="m107.47,122.17c-.65-1.39-.17-1.96-.17-1.96l.17,1.96Z"/>
      <path class="cls-40" d="m107.44,107.14c0,.55.28,1,.65,1,.37,0,.67-.45.68-1.01,0-.55-.28-1-.65-1-.37,0-.67.45-.68,1.01Z"/>
      <path class="cls-40" d="m116.74,108.36c0,.55.28,1,.65,1,.37,0,.67-.45.68-1.01,0-.55-.28-1-.65-1-.37,0-.67.45-.68,1.01Z"/>
      <path class="cls-3" d="m113.98,114.22c.08,0,.16-.02.23-.04.05-.02.11-.05.17-.12.11-.14.17-.39.19-.74.02-.47-.03-.94-.14-1.34-.04-.13-.08-.25-.12-.36-.04-.11-.07-.21-.11-.31-.1-.34-.14-.77-.1-1.17.01-.15-.03-.28-.1-.31-.07-.02-.13.08-.15.22-.05.53,0,1.09.13,1.54.04.13.08.24.12.36.04.11.08.21.11.31.09.3.12.66.11,1.01,0,.17-.03.28-.06.33-.02.02-.05.03-.07.04-.21.08-.44.03-.64-.13-.06-.05-.14.02-.16.16-.03.14,0,.29.07.34.17.13.35.2.53.19Z"/>
      <path class="cls-40" d="m119.44,103.43c-.76-.42-1.6-.57-2.45-.4-.37.07-.51-.51-.14-.58,1.02-.2,2-.05,2.9.46.33.18.02.7-.3.52h0Z"/>
      <path class="cls-40" d="m110.21,101.51s0-.06,0-.1c.05.09.09.17.14.26-.82-.56-2.28-.24-3.14.08-.35.13-.49-.45-.14-.58.79-.3,1.62-.43,2.45-.33.44.05,1.24.07,1.28.66.02.39-.56.39-.58,0h0Z"/>
      <path class="cls-3" d="m113.94,116.67s-.87,1.61-2.16,1.7-2.17-1.27-2.25-1.69c-.08-.42-.22-.76-.07-.74.15.02,1.58.6,2.7.46,1.12-.14,2.09-.52,1.78.26Z"/>
      <path class="cls-3" d="m102.15,116.64c.07.2,2.32,6.43,4.24,7.52.6.34,1.02.58,1.31.74l-.4-4.69s-1.05-.33-2.49-1c-1.4-.64-2.58-2.46-2.66-2.58Z"/>
      <path class="cls-16" d="m234.27,235.47s5.26,3.38,6.12,5.86c.87,2.48-.58,5.11,3.26,6.08,3.84.97,10.03,1.17,13.87.85,3.84-.31,11.73,1.75,13.13,1.98,1.4.23,6.88-.29,7.03-.98s.12-1.9.14-2.2c.02-.3-.89-.26-1.99-.32-1.1-.07-6-1.62-7.97-2.92-1.96-1.3-9.28-2.79-10.56-3.26s-5.78-2.56-6.16-2.88-10.04-7.66-10.04-7.66c0,0-7.35,4.27-6.82,5.46Z"/>
      <path class="cls-11" d="m245.5,247.15s5.72,2.51,6.97,4.83.23,5.14,4.17,5.5,10.09-.42,13.84-1.33c3.75-.91,11.86-.11,13.28-.1s6.75-1.36,6.79-2.07c.03-.71-.18-1.9-.21-2.2-.03-.3-.92-.11-2.02,0-1.1.11-6.18-.66-8.33-1.64-2.14-.98-9.61-1.3-10.94-1.57-1.34-.26-6.11-1.62-6.54-1.88-.43-.26-11.12-5.99-11.12-5.99,0,0-6.59,5.37-5.88,6.46Z"/>
      <path class="cls-39" d="m168.1,115.81l3.87-20.85c.15-.83.88-1.44,1.73-1.44h6.45c1.11,0,1.94,1.02,1.72,2.11l-3.94,19.56c-.14.69-.68,1.24-1.38,1.38l-6.38,1.29c-1.22.25-2.3-.82-2.08-2.05Z"/>
      <path class="cls-40" d="m169.57,115.81l3.87-20.85c.15-.83.88-1.44,1.73-1.44h6.45c1.11,0,1.94,1.02,1.72,2.11l-3.94,19.56c-.14.69-.68,1.24-1.38,1.38l-6.38,1.29c-1.22.25-2.3-.82-2.08-2.05Z"/>
      <path class="cls-10" d="m181.45,104.93c.14-.42.35-1.08.35-1.25,0-1-.4-1.43-.4-1.43,0,0-2.28,4.17-2.9,5.17-.63,1-3.12.61-3.12.61,0,0,2.08-.94,2.75-1.67.67-.74,2.28-3.75,2.28-4.42s-.2-.54-.53-.4c-.34.14-1.88,2.87-2.48,3.61-.59.72-4.33,1.77-4.47,1.81.1-.09,1.87-1.62,2.26-2.14.4-.54,2.01-1.27,1.47-2.07-.54-.8-4.08,2.34-5.34,3.61-1.25,1.27-3.23,4.55-4.03,6.09-.8,1.54-8.94,8.57-13.27,12.87-4.33,4.3-10.46,10.72-11.94,11.53-.78.42-5.18-.96-9.19-2.37-3.61-1.27-6.9-2.55-6.9-2.55l-2.34,11.72s8.31,2.14,14.08,3.56c2.72.66,4.88,1.17,5.33,1.2,1.41.11,8.94-4.13,12.85-9.55,3.92-5.42,14.53-21.72,15.73-22.93,1.2-1.2,6.96-3.01,7.36-3.48s2.81-6.43,2.81-6.9c0-.24-.18-.47-.35-.63Zm-3.93,6.38c-.27,0-1.54-.33-1.54-.33,0,0,1.36-.47,2.32-.88-.4.72-.7,1.21-.78,1.21Z"/>
      <path class="cls-4" d="m137.72,147.21c-5.77-1.41-14.08-3.56-14.08-3.56l2.34-11.72s3.29,1.29,6.9,2.55l4.84,12.72Z"/>
      <path class="cls-12" d="m129.39,147.19c0,.09-.5-.08-1.3-.42-.47-.2-1.04-.45-1.68-.74-3.86-1.75-10.12-4.84-10.12-4.84l-1.44-13.68-3.6-2.59c.25.1,13.38,5.24,18.6,7.33.69.28,1.24.5,1.6.65.24.1.4.16.47.19,1,.46-2.5,13.63-2.53,14.09Z"/>
      <path class="cls-68" d="m120.5,166.78c-.43,5.33,0,11.31,0,11.31l.94.3c-2.26.17-5.95.28-10.19.31-12.33.1-29.26-.43-28.89-1.77.56-2.03,2.99-7.08,3.71-11.66.6-3.82-.88-13.15-1.97-20.82-.21-1.5-.41-2.94-.58-4.27-1-8.06-3.12-10.27-2.26-11.47.86-1.2,12.72-4.84,12.72-4.84,0,0,4.38,7.27,11.12,7.86,6.74.59,4.68-7.86,4.68-7.86,0,0,8.92,6.24,9.41,7.04s5.3,18.42,5.3,19.35c0,.19-.15.77-.39,1.62-.93,3.3-3.26,10.63-3.6,14.87Z"/>
      <g class="cls-71">
        <path class="cls-20" d="m120.5,166.78c-.43,5.33,0,11.31,0,11.31,0,0-2.34-4.28-2.59-6.84-.25-2.55-.52-9.35-.89-8.56-.37.79-1.66,5.81-1.66,5.81,0,0-1.81-1.99-2.16-2.7-.36-.71-8.1,0-8.1,0,0,0-6.29,1.64-4.15,5.51,1.1,1.99,5.9,4.97,10.3,7.4-12.33.1-29.26-.43-28.89-1.77.56-2.03,2.99-7.08,3.71-11.66.6-3.82-.88-13.15-1.97-20.82l4.47-6.93s6.2,14.34,10.21,15.02c3.36.57,19.98-.34,25.31-.65-.93,3.3-3.26,10.63-3.6,14.87Z"/>
      </g>
      <path class="cls-18" d="m245.72,230.97c-.15,1.04-2.38,8.36-2.38,8.36,0,0-93.42-43.44-101.07-44.33-4.51-.53-16.78-3.65-26.09-6.12-6.49-1.72-11.54-3.13-11.54-3.13,0,0,11.9-.75,17.62-4.04,0,0,39.87-11.95,42.76-11.26,2.89.69,33.15,29.09,43,36.65,5.41,4.15,16.28,10.62,24.96,15.78h0c7.14,4.25,12.81,7.63,12.74,8.1Z"/>
      <g class="cls-1">
        <path class="cls-15" d="m245.72,230.97c-.15,1.04-2.38,8.36-2.38,8.36,0,0-93.42-43.44-101.07-44.33-4.51-.53-16.78-3.65-26.09-6.12l3.97-3.63s43.79-3.69,46.01-2.81c2.22.87,36.08,25.51,48.1,32.65,6.91,4.1,13.39,6.94,18.72,7.79h0c7.14,4.25,12.81,7.63,12.74,8.1Z"/>
      </g>
      <path class="cls-46" d="m253.59,240.95c0,1.85-1.55,4.03-3.18,5.72-.16.17-.33.34-.49.5-.92.89-1.82,1.6-2.45,1.98-1.89,1.16-2.88-.18-9.7-2.05-6.82-1.86-19.2-4.23-32.94-7.25-13.74-3.02-46.4-22.19-48.37-26.16-1.97-3.97-36.31,12.66-54.66,8.75-9.15-1.95-14.73-10.42-18.02-18.43-.16-.4-.32-.79-.47-1.19-2.93-7.58-3.83-14.41-3.83-14.41,0,0,3.72-.36,8.72-.83.97-.09,1.98-.19,3.02-.29l1.32-.13c9.47-.91,20.73-1.98,21.46-2.07.3-.03,3.08.04,7.23.19,11.78.44,34.58,1.53,42.74,2.73,1.41.21,2.38.42,2.79.63.71.37,1.4.75,2.19,1.21,3.15,1.84,7.73,4.99,20.23,14.04,8.1,5.86,25.13,14.79,39.65,22.45,9.52,5.02,17.95,9.5,22.09,12.22,1.72,1.13,2.69,1.95,2.69,2.39Z"/>
      <path class="cls-34" d="m250.56,246.09l-.15.58-.15.59-.35-.09c-15.51-3.99-42.6-18.04-64.39-29.33-14.59-7.56-28.38-14.71-30.79-14.48h-.04c-1.6.22-5.13.88-9.61,1.72-12.06,2.26-30.28,5.67-36.08,5.11-6.95-.67-13.03-7.53-14.73-9.62-2.05,2.13-5.81,3.03-9.31,3.36-.4.04-.8.07-1.19.09-.16-.4-.32-.79-.47-1.19,3.95-.2,8.63-1.02,10.51-3.58,1.96-2.67-.22-7.9-2.6-11.95l1.32-.13c2.23,3.9,4.43,9.15,2.5,12.4,1.31,1.63,7.42,8.77,14.09,9.41,5.62.54,23.75-2.85,35.74-5.1,4.49-.84,8.04-1.5,9.67-1.72.02,0,.04,0,.06,0,2.66-.26,13.19,5.12,31.48,14.61,21.91,11.36,49.17,25.49,64.48,29.32Z"/>
      <g class="cls-1">
        <path class="cls-15" d="m253.59,240.95c0,1.85-1.55,4.03-3.18,5.72-.16.17-.33.34-.49.5-.92.89-1.82,1.6-2.45,1.98-1.89,1.16-2.88-.18-9.7-2.05-6.82-1.86-19.2-4.23-32.94-7.25-13.74-3.02-46.4-22.19-48.37-26.16-1.97-3.97-36.31,12.66-54.66,8.75-9.15-1.95-14.73-10.42-18.02-18.43-.16-.4-.32-.79-.47-1.19-2.93-7.58-3.83-14.41-3.83-14.41,0,0,3.72-.36,8.72-.83,3.11,11.63,9.69,28.81,21.66,30.23,18.24,2.17,46.35-11.49,48.37-10.21,2.02,1.29,38.06,23.51,63.77,30.6,20.37,5.61,24.73,4.61,28.91.35,1.72,1.13,2.69,1.95,2.69,2.39Z"/>
      </g>
      <path class="cls-58" d="m78.31,155.54s7.44,21.53,9.65,23c2.21,1.48,20.89,4.32,21.9,4.78,1,.46,2.55,2.51,2.55,2.51l10.57-.79s-2.07-3.01-5.28-4.4c-3.21-1.38-6.63-2.77-7.54-3.04-.9-.28-10.85-6.55-13.56-8.3-2.71-1.75-2.91-2.49-2.91-2.49l-3.37-13.01s-12.21-.74-12,1.73Z"/>
      <path class="cls-67" d="m127.32,183.56s-24.12,1.3-23.92,2.93l.2,1.62,20.86.28,2.86-4.83Z"/>
      <path class="cls-31" d="m120.53,185.84l5.22-34.03c.18-1.15,1.16-1.99,2.32-1.99h45.88c1.52,0,2.64,1.42,2.29,2.9l-7.12,29.63c-.23.97-1.06,1.69-2.05,1.79l-43.99,4.4c-1.53.15-2.79-1.18-2.56-2.7Z"/>
      <path class="cls-55" d="m122.97,185.84l5.22-34.03c.18-1.15,1.16-1.99,2.32-1.99h45.88c1.52,0,2.64,1.42,2.29,2.9l-7.12,29.63c-.23.97-1.06,1.69-2.05,1.79l-43.99,4.4c-1.53.15-2.79-1.18-2.56-2.7Z"/>
      <g class="cls-38">
        <path class="cls-7" d="m151.79,167.49c0,.93-.76,1.69-1.69,1.69s-1.69-.76-1.69-1.69.76-1.69,1.69-1.69,1.69.76,1.69,1.69Z"/>
      </g>
      <path class="cls-47" d="m92.35,153.82s0,.02,0,.02c-.65,4.39-11.45,7.79-13.78,7.05-.24-.08-.5-.32-.78-.7-.28-.39-.58-.93-.87-1.58-2.19-4.84-4.4-16.07-2.02-21.51,3.01-6.89,7.34-9.02,7.34-9.02,3.04-2.53,9.04,15.92,10.02,23.38.13,1.01.17,1.82.1,2.35Z"/>
      <path class="cls-75" d="m92.35,153.82s0,.02,0,.02c-1.8.33-3.99.83-6.52,1.57-3.57,1.05-6.24,3.02-8.04,4.78-.28-.39-.58-.93-.87-1.58,1.8-1.28,4.37-2.91,7.62-4.5,3-1.47,5.67-2.24,7.72-2.64.13,1.01.17,1.82.1,2.35Z"/>
      <path class="cls-62" d="m131.46,132.9l-3.36,13.87c-.47-.2-1.04-.45-1.68-.74l3.44-13.78c.69.28,1.24.5,1.6.65Z"/>
      <path class="cls-34" d="m121.67,188.98c11.69,1.56,34.28,4.83,42.28,6.8-.08.05-5.54,3.25-7.59,3.25s-40.07-6.96-40.99-8.59c-.93-1.63,3.83-1.6,3.83-1.6l2.48.14Z"/>
      <path class="cls-34" d="m228.82,226.35c-1.23.24-2.33.4-3.13.43-3.65.16-16.24-7.38-31.36-15.69-15.12-8.31-27.9-17.42-29.57-18.24-.91-.45,1.65-1.82,4.19-2.99,3.15,1.84,7.73,4.99,20.23,14.04,8.1,5.86,25.13,14.79,39.65,22.45Z"/>
      <path class="cls-3" d="m98.88,107.63s-1.38-1.11-2.11,0-.9,3.9,0,4.38,1.81,0,1.81,0c0,0-.12-1.33.3-1.19.43.14.64.07.64-.55s.13-2.22-.64-2.64Z"/>
      <path class="cls-7" d="m100.2,106.4l3.86.14c-.02.12-.04.24-.05.36-.25,2.44,1.34,4.56,3.55,4.75s4.21-1.65,4.46-4.09c.01-.11.02-.23.02-.34.23-.08.77-.23,1.34-.15.52.07.75.29.84.39-.1.3-.17.61-.2.94-.23,2.24,1.27,4.2,3.35,4.37,2.08.17,3.95-1.51,4.19-3.75.23-2.24-1.27-4.2-3.35-4.37-1.63-.13-3.14.88-3.82,2.41-.17-.15-.46-.32-.93-.39-.57-.08-1.1.04-1.4.13-.11-2.1-1.59-3.83-3.56-3.99-1.97-.16-3.78,1.28-4.32,3.33l-3.92-.14-.02.4Zm14.19,2.02c.21-2.02,1.9-3.53,3.76-3.38s3.21,1.92,3,3.94c-.21,2.02-1.9,3.53-3.76,3.38-1.86-.15-3.21-1.92-3-3.94Zm-10-1.5c.23-2.21,2.04-3.88,4.03-3.72s3.43,2.1,3.2,4.32-2.04,3.88-4.03,3.72c-1.99-.16-3.43-2.1-3.2-4.32Z"/>
    </g>
  </g>
  <g>
    <g>
      <path class="cls-72" d="m46.72,232.53s2.77-5.03,1.73-20.46c-1.04-15.43-6.11-28.01-6.32-30.13-.21-2.12-1.15.46-1.78,2.87-.63,2.41-1.56,11.72-1.61,13.08-.05,1.36.51,2.77.51,2.77l.72.5-.97,1.48s-.4,4.44-.29,14.07c.11,9.62,2.01,13.93,2.01,13.93l6,1.89Z"/>
      <path class="cls-21" d="m45.41,231.29l-3.6-2.13s-.51-1.8-1.03-4.61c-.03-.19-.07-.38-.1-.58-.22-1.22-.43-2.61-.6-4.11-.02-.17-.04-.34-.06-.51-.15-1.47-.27-3.03-.3-4.64-.13-5.84,0-9.31.07-10.65.02-.33.03-.53.04-.61,0-.03,0-.04,0-.04l.79-1.18-.6-.41s-.48-1.14-.45-2.23c.01-.52.18-2.48.4-4.61.04-.34.07-.68.11-1.03.22-2.02.49-4,.71-4.87.5-1.93,1.07-5.71,1.26-4,.12,1.07,1.93,6.1,3.51,12.75.05.2.09.4.14.6.87,3.74,1.65,7.95,2.02,12.24.01.14.02.28.04.41.03.36.05.72.08,1.07.21,3.32.11,6.28-.15,8.83-.02.2-.04.4-.06.6-.32,2.85-.82,5.14-1.27,6.79-.06.21-.12.42-.17.61-.44,1.51-.79,2.32-.79,2.32Z"/>
    </g>
    <g>
      <path class="cls-72" d="m49.18,233.11s4.18-3,9.27-15.88c5.09-12.88,5.83-25.01,6.48-26.81.65-1.8-1.11-.07-2.55,1.63-1.44,1.7-5.77,8.88-6.34,9.96s-.65,2.43-.65,2.43l.39.68-1.35.82s-2.03,3.44-5.65,11.27c-3.62,7.82-3.73,12.04-3.73,12.04l4.13,3.84Z"/>
      <path class="cls-21" d="m48.6,231.6l-2.09-3.11s.28-1.65.94-4.13c.04-.17.09-.33.14-.51.29-1.07.66-2.27,1.1-3.55.05-.14.1-.29.15-.43.44-1.25.95-2.55,1.54-3.87,2.14-4.78,3.58-7.53,4.16-8.59.14-.26.23-.41.27-.48.01-.02.02-.03.02-.03l1.09-.65-.33-.56s.05-1.1.5-1.97c.21-.41,1.1-1.94,2.09-3.58.16-.26.32-.53.49-.79.96-1.55,1.93-3.05,2.45-3.66,1.15-1.37,3.06-4.21,2.56-2.75-.31.91-.79,5.68-2.06,11.67-.04.18-.08.36-.12.54-.74,3.36-1.72,7.06-3.07,10.68-.04.12-.09.23-.13.35-.12.3-.23.6-.35.89-1.11,2.76-2.33,5.12-3.52,7.09-.09.16-.19.31-.28.46-1.35,2.18-2.64,3.85-3.63,5-.13.15-.25.29-.37.43-.94,1.05-1.53,1.57-1.53,1.57Z"/>
    </g>
    <g>
      <path class="cls-37" d="m47.43,236.98s1.06-5.64-4.74-19.97c-5.8-14.33-14.55-24.7-15.41-26.65-.86-1.95-.95.8-.8,3.28.15,2.49,2.18,11.63,2.55,12.93.38,1.3,1.35,2.47,1.35,2.47l.84.25-.46,1.71s1.01,4.34,4.12,13.45c3.11,9.11,6.26,12.6,6.26,12.6l6.29-.08Z"/>
      <path class="cls-14" d="m45.8,236.22l-4.08-.9s-1.05-1.55-2.42-4.06c-.09-.17-.19-.34-.28-.52-.59-1.09-1.22-2.35-1.85-3.71-.07-.15-.14-.31-.21-.47-.6-1.35-1.2-2.8-1.74-4.31-1.95-5.51-2.91-8.84-3.26-10.14-.08-.32-.13-.51-.15-.59,0-.03,0-.04,0-.04l.38-1.37-.7-.2s-.81-.93-1.12-1.98c-.15-.5-.61-2.41-1.06-4.5-.07-.33-.14-.67-.22-1.01-.42-1.99-.79-3.95-.84-4.85-.12-1.99-.77-5.76-.05-4.19.45.98,3.74,5.19,7.32,11.01.1.17.21.35.32.52,1.99,3.28,4.05,7.03,5.74,10.99.06.13.11.25.16.38.14.33.28.66.41.99,1.23,3.09,2.06,5.93,2.62,8.43.04.2.09.39.13.59.59,2.81.83,5.14.92,6.84.01.22.02.43.03.63.05,1.57-.03,2.45-.03,2.45Z"/>
    </g>
    <g>
      <path class="cls-37" d="m42.59,232.53s-1.83-5.44,1.94-20.44c3.77-14.99,11-26.47,11.59-28.52.58-2.05,1.05.66,1.24,3.14.19,2.48-.55,11.81-.74,13.16-.19,1.34-.99,2.63-.99,2.63l-.8.37.69,1.63s-.4,4.44-2.22,13.89c-1.82,9.45-4.46,13.35-4.46,13.35l-6.24.79Z"/>
      <path class="cls-64" d="m44.11,231.54l3.92-1.46s.83-1.68,1.84-4.35c.07-.18.14-.36.2-.55.43-1.16.88-2.49,1.32-3.93.05-.16.1-.32.15-.49.41-1.42.8-2.93,1.12-4.51,1.17-5.72,1.66-9.16,1.83-10.5.04-.32.06-.52.07-.61,0-.03,0-.04,0-.04l-.57-1.3.67-.3s.67-1.04.84-2.11c.08-.51.27-2.47.43-4.61.03-.34.05-.69.07-1.03.14-2.03.24-4.02.17-4.92-.15-1.99-.03-5.81-.53-4.16-.31,1.03-2.98,5.66-5.73,11.92-.08.19-.16.37-.24.56-1.52,3.52-3.04,7.53-4.17,11.68-.04.13-.07.27-.11.4-.09.35-.18.7-.26,1.04-.79,3.23-1.22,6.16-1.43,8.71-.02.2-.03.4-.04.6-.19,2.86-.11,5.21.04,6.9.02.22.04.43.06.63.16,1.56.36,2.42.36,2.42Z"/>
    </g>
    <path class="cls-66" d="m35.91,231.14c.05,1.92.15,4.89.32,8.09.23,4.4.59,9.24,1.13,12.32.32,1.8.7,3,1.15,3.18,2.21.88,6.97,1,6.97,1,0,0,4.76-.11,6.97-1,.18-.07.35-.31.51-.67.45-1.05.81-3.17,1.1-5.77.62-5.61.9-13.4,1-17.16.03-.89-.51-1.67-1.28-2.01-.26-.11-.55-.18-.85-.18h-14.89c-1.2,0-2.16.99-2.13,2.19Z"/>
    <path class="cls-49" d="m37.36,251.55c.32,1.8.7,3,1.15,3.18,2.21.88,6.97,1,6.97,1,0,0,4.76-.11,6.97-1,.18-.07.35-.31.51-.67.45-1.05.81-3.17,1.1-5.77.62-5.61.9-13.4,1-17.16.03-.89-.51-1.67-1.28-2.01-.26-.11-.55-.18-.85-.18h-1.84l-3.12,22.6h-10.62Z"/>
  </g>
  <g>
    <ellipse class="cls-26" cx="133.82" cy="262.36" rx="37.67" ry="1.69"/>
    <g>
      <rect class="cls-42" x="114.77" y="228.55" width="31.6" height="7.21" rx="3.6" ry="3.6"/>
      <rect class="cls-22" x="136.86" y="228.55" width="31.6" height="7.21" rx="3.6" ry="3.6"/>
      <rect class="cls-31" x="117.21" y="235.76" width="19.3" height="26.63"/>
      <rect class="cls-28" x="136.52" y="235.76" width="29.02" height="26.62"/>
      <path class="cls-31" d="m157.86,241.91c0,.48-.2.92-.51,1.23-.32.32-.75.51-1.23.51h-9.65c-.96,0-1.74-.78-1.74-1.74,0-.48.2-.92.51-1.23.32-.32.75-.51,1.23-.51h9.65c.96,0,1.74.78,1.74,1.74Z"/>
      <rect class="cls-41" x="117.21" y="235.76" width="48.33" height="3.19"/>
    </g>
  </g>
  <g>
    <rect class="cls-63" x="136.11" y="71.95" width="31.35" height="18.03" rx="1.29" ry="1.29"/>
    <path class="cls-44" d="m142.06,78.62c-.34.22-.75.34-1.18.34-1.22,0-2.2-.99-2.2-2.2s.99-2.2,2.2-2.2c.44,0,.84.13,1.18.34-.61.39-1.02,1.08-1.02,1.86s.41,1.47,1.02,1.86Z"/>
    <g class="cls-35">
      <path class="cls-50" d="m143.08,76.76c0,.78-.41,1.47-1.02,1.86-.61-.39-1.02-1.08-1.02-1.86s.41-1.47,1.02-1.86c.61.39,1.02,1.08,1.02,1.86Z"/>
    </g>
    <g class="cls-1">
      <path class="cls-15" d="m145.44,76.76c0,1.22-.99,2.2-2.2,2.2-.44,0-.84-.13-1.18-.34.61-.39,1.02-1.08,1.02-1.86s-.41-1.47-1.02-1.86c.34-.22.74-.34,1.18-.34,1.22,0,2.2.99,2.2,2.2Z"/>
    </g>
    <g>
      <rect class="cls-44" x="139.11" y="83.86" width="5.52" height="1.11"/>
      <rect class="cls-44" x="145.66" y="83.86" width="5.52" height="1.11"/>
      <rect class="cls-44" x="152.22" y="83.86" width="5.52" height="1.11"/>
      <rect class="cls-44" x="158.78" y="83.86" width="5.52" height="1.11"/>
    </g>
    <g class="cls-1">
      <path class="cls-15" d="m167.46,87.3v1.4c0,.71-.58,1.29-1.29,1.29h-28.77c-.71,0-1.29-.58-1.29-1.29v-1.4h31.35Z"/>
    </g>
    <g class="cls-1">
      <rect class="cls-15" x="158.43" y="75.35" width="4.65" height="2.22"/>
    </g>
  </g>
</svg>